<?xml version="1.0" standalone="no"?>
<!DOCTYPE svg PUBLIC "-//W3C//DTD SVG 1.1//EN" "http://www.w3.org/Graphics/SVG/1.1/DTD/svg11.dtd" >
<svg>
<metadata>
Created by FontForge 20090622 at Fri Jul 24 01:52:38 2020
 By deploy user
Copyright (c) 2015, Cadson Demak (info@cadsondemak.com)
</metadata>
<defs>
<font id="Maitree-Medium" horiz-adv-x="0" >
  <font-face 
    font-family="Maitree Medium"
    font-weight="500"
    font-stretch="normal"
    units-per-em="1000"
    panose-1="0 0 6 0 0 0 0 0 0 0"
    ascent="750"
    descent="-250"
    x-height="490"
    cap-height="695"
    bbox="-620 -473 1148 1148"
    underline-thickness="50"
    underline-position="-50"
    unicode-range="U+000D-U+FB02"
  />
<missing-glyph horiz-adv-x="600" 
d="M94 714h411v-714h-411v714zM454 51v612h-309v-612h309z" />
    <glyph glyph-name="fi" unicode="fi" horiz-adv-x="640" 
d="M55 6.5q-5 6.5 -5 17.5q0 16 11.5 24t31.5 8h25v371h-56q-9 0 -14.5 7t-5.5 18q0 16 11.5 25.5t31.5 9.5h33v49q0 59 28 100.5t75.5 62.5t105.5 21q64 0 121 -20t85 -44v-92q0 -6 -4.5 -10.5t-13.5 -4.5q-12 0 -19 7.5t-12 24.5l-10 46q-20 13 -54.5 23t-72.5 10
q-58 0 -97 -31.5t-39 -87.5v-54h337v-431l45 -13q16 -7 23 -12.5t7 -16.5q0 -14 -13 -14h-204q-9 0 -14 6.5t-5 17.5q0 16 11.5 24t31.5 8h25v376l-244 -5v-371l45 -13q16 -7 23 -12.5t7 -16.5q0 -14 -13 -14h-204q-9 0 -14 6.5z" />
    <glyph glyph-name="fl" unicode="fl" horiz-adv-x="638" 
d="M55 6.5q-5 6.5 -5 17.5q0 16 11.5 24t31.5 8h25v371h-56q-9 0 -14.5 7t-5.5 18q0 16 11.5 25.5t31.5 9.5h33v49q0 59 28.5 100.5t76.5 62.5t106 21q65 0 121 -19t89 -43v-602l44 -13q16 -7 23 -12.5t7 -16.5q0 -14 -13 -14h-204q-9 0 -14 6.5t-5 17.5q0 16 11.5 24
t31.5 8h25v584q-47 20 -96 20q-58 0 -98 -32t-40 -87v-54h125q14 0 14 -16q0 -15 -12 -24t-40 -12l-87 -8v-371l45 -13q16 -7 23 -12.5t7 -16.5q0 -14 -13 -14h-204q-9 0 -14 6.5z" />
    <glyph glyph-name="ru_lakkhangyaothai" unicode="&#xe24;&#xe45;" horiz-adv-x="922" 
d="M470 -159.5q-13 10.5 -13 28.5v497q0 67 -38.5 102t-103.5 35q-45 0 -88.5 -17t-72.5 -39q-7 -6 -7 -10q0 -5 7 -10l93 -74v-18l-65 -59q-10 -9 -12.5 -16t-2.5 -23v-44q0 -15 -4 -23q11 6 28 6q42 0 68 -25.5t26 -65.5q0 -43 -28.5 -68.5t-72.5 -25.5q-50 0 -77.5 29.5
t-27.5 75.5v125q0 24 6 37.5t21 26.5l61 56v4l-89 69q-15 13 -15 27q0 13 16 27q48 39 112 65.5t130 26.5q101 0 162 -51q28 21 81 36t99 15q76 0 127.5 -42t51.5 -123v-537q0 -12 -10.5 -20t-29.5 -8q-24 0 -37 10.5t-13 28.5v534q0 51 -28 75.5t-74 24.5q-34 0 -71 -11
t-62 -23q30 -44 30 -108v-503q0 -13 -10 -20.5t-30 -7.5q-24 0 -37 10.5zM218 46.5q14 13.5 14 37.5q0 23 -14 36.5t-34 13.5q-21 0 -34.5 -13.5t-13.5 -36.5q0 -24 13.5 -37.5t34.5 -13.5q20 0 34 13.5z" />
    <glyph glyph-name="lu_lakkhangyaothai" unicode="&#xe26;&#xe45;" horiz-adv-x="942" 
d="M493.5 -159.5q-12.5 10.5 -12.5 28.5v495q0 69 -38 104t-103 35q-44 0 -82.5 -15t-67.5 -37q-7 -6 -7 -10t7 -10l114 -85v-21l-55 -48q-11 -9 -14 -16.5t-3 -24.5v-145q0 -44 -27.5 -72t-76.5 -28q-42 0 -70 25t-28 66q0 38 25.5 63.5t65.5 25.5q13 0 25 -5q-3 4 -3 14
v52q0 20 5.5 31t21.5 24l54 44v5l-109 80q-16 12 -16 27t16 27q48 39 108.5 64.5t124.5 25.5q98 0 157 -50q42 25 88.5 37.5t89.5 12.5q76 0 127.5 -42t51.5 -123v-537q0 -12 -10.5 -20t-29.5 -8q-24 0 -36.5 10.5t-12.5 28.5v534q0 51 -28.5 75.5t-74.5 24.5
q-55 0 -129 -33q30 -44 30 -109v-503q0 -12 -11 -20t-30 -8q-24 0 -36.5 10.5zM161 46.5q13 12.5 13 35.5t-13 35.5t-33 12.5q-19 0 -32 -12.5t-13 -35.5q0 -22 13 -35t32 -13q20 0 33 12.5z" />
    <glyph glyph-name=".notdef" horiz-adv-x="600" 
d="M94 714h411v-714h-411v714zM454 51v612h-309v-612h309z" />
    <glyph glyph-name=".null" horiz-adv-x="500" 
 />
    <glyph glyph-name=".null" horiz-adv-x="500" 
 />
    <glyph glyph-name="nonmarkingreturn" unicode="&#xd;" horiz-adv-x="283" 
 />
    <glyph glyph-name="space" unicode=" " horiz-adv-x="283" 
 />
    <glyph glyph-name="A" unicode="A" horiz-adv-x="728" 
d="M10 7q-5 7 -5 18q0 17 12 26t33 9h24l232 635h112l233 -636l41 -10q17 -4 24.5 -11.5t7.5 -19.5q0 -18 -13 -18h-223q-10 0 -15.5 7t-5.5 18q0 17 12 26t33 9h37l-58 159h-284l-57 -160l58 -14q19 -4 26.5 -11t7.5 -18q0 -16 -13 -16h-204q-10 0 -15 7zM467 284l-118 327
l-118 -327h236z" />
    <glyph glyph-name="Aacute" unicode="&#xc1;" horiz-adv-x="728" 
d="M311 788l94 157l73 -47l-112 -146zM10 7q-5 7 -5 18q0 17 12 26t33 9h24l232 635h112l233 -636l41 -10q17 -4 24.5 -11.5t7.5 -19.5q0 -18 -13 -18h-223q-10 0 -15.5 7t-5.5 18q0 17 12 26t33 9h37l-58 159h-284l-57 -160l58 -14q19 -4 26.5 -11t7.5 -18q0 -16 -13 -16
h-204q-10 0 -15 7zM467 284l-118 327l-118 -327h236z" />
    <glyph glyph-name="Abreve" unicode="&#x102;" horiz-adv-x="728" 
d="M263.5 778q-41.5 31 -59.5 96l54 19q12 -38 38 -59t62 -21q37 0 63 21.5t37 58.5l55 -19q-18 -65 -59.5 -96t-95.5 -31q-53 0 -94.5 31zM10 7q-5 7 -5 18q0 17 12 26t33 9h24l232 635h112l233 -636l41 -10q17 -4 24.5 -11.5t7.5 -19.5q0 -18 -13 -18h-223q-10 0 -15.5 7
t-5.5 18q0 17 12 26t33 9h37l-58 159h-284l-57 -160l58 -14q19 -4 26.5 -11t7.5 -18q0 -16 -13 -16h-204q-10 0 -15 7zM467 284l-118 327l-118 -327h236z" />
    <glyph glyph-name="uni1EAE" unicode="&#x1eae;" horiz-adv-x="728" 
d="M321 912l82 142l68 -43l-100 -131zM265.5 778q-41.5 31 -59.5 96l54 19q12 -38 38 -59t62 -21q37 0 63 21.5t37 58.5l55 -19q-18 -65 -59.5 -96t-95.5 -31q-53 0 -94.5 31zM10 7q-5 7 -5 18q0 17 12 26t33 9h24l232 635h112l233 -636l41 -10q17 -4 24.5 -11.5t7.5 -19.5
q0 -18 -13 -18h-223q-10 0 -15.5 7t-5.5 18q0 17 12 26t33 9h37l-58 159h-284l-57 -160l58 -14q19 -4 26.5 -11t7.5 -18q0 -16 -13 -16h-204q-10 0 -15 7zM467 284l-118 327l-118 -327h236z" />
    <glyph glyph-name="uni1EB6" unicode="&#x1eb6;" horiz-adv-x="728" 
d="M263.5 778q-41.5 31 -59.5 96l54 19q12 -38 38 -59t62 -21q37 0 63 21.5t37 58.5l55 -19q-18 -65 -59.5 -96t-95.5 -31q-53 0 -94.5 31zM10 7q-5 7 -5 18q0 17 12 26t33 9h24l232 635h112l233 -636l41 -10q17 -4 24.5 -11.5t7.5 -19.5q0 -18 -13 -18h-223q-10 0 -15.5 7
t-5.5 18q0 17 12 26t33 9h37l-58 159h-284l-57 -160l58 -14q19 -4 26.5 -11t7.5 -18q0 -16 -13 -16h-204q-10 0 -15 7zM467 284l-118 327l-118 -327h236zM316 -161q-16 16 -16 40t16 39.5t39 15.5t39 -15.5t16 -39.5t-16 -40t-39 -16t-39 16z" />
    <glyph glyph-name="uni1EB0" unicode="&#x1eb0;" horiz-adv-x="728" 
d="M245 1011l68 43l82 -142l-50 -32zM261.5 778q-41.5 31 -59.5 96l54 19q12 -38 38 -59t62 -21q37 0 63 21.5t37 58.5l55 -19q-18 -65 -59.5 -96t-95.5 -31q-53 0 -94.5 31zM10 7q-5 7 -5 18q0 17 12 26t33 9h24l232 635h112l233 -636l41 -10q17 -4 24.5 -11.5t7.5 -19.5
q0 -18 -13 -18h-223q-10 0 -15.5 7t-5.5 18q0 17 12 26t33 9h37l-58 159h-284l-57 -160l58 -14q19 -4 26.5 -11t7.5 -18q0 -16 -13 -16h-204q-10 0 -15 7zM467 284l-118 327l-118 -327h236z" />
    <glyph glyph-name="uni1EB2" unicode="&#x1eb2;" horiz-adv-x="728" 
d="M328 947q54 19 54 50q0 28 -32 28q-18 0 -49 -9l-7 38q37 14 65 14q39 0 62.5 -20t23.5 -50q0 -25 -16 -43.5t-44 -29.5l-6 -45h-46zM262.5 778q-41.5 31 -59.5 96l54 19q12 -38 38 -59t62 -21q37 0 63 21.5t37 58.5l55 -19q-18 -65 -59.5 -96t-95.5 -31q-53 0 -94.5 31z
M10 7q-5 7 -5 18q0 17 12 26t33 9h24l232 635h112l233 -636l41 -10q17 -4 24.5 -11.5t7.5 -19.5q0 -18 -13 -18h-223q-10 0 -15.5 7t-5.5 18q0 17 12 26t33 9h37l-58 159h-284l-57 -160l58 -14q19 -4 26.5 -11t7.5 -18q0 -16 -13 -16h-204q-10 0 -15 7zM467 284l-118 327
l-118 -327h236z" />
    <glyph glyph-name="uni1EB4" unicode="&#x1eb4;" horiz-adv-x="728" 
d="M384 933.5q-13 4.5 -24 10.5q-28 15 -45 15q-24 0 -50 -21l-27 42q19 16 39.5 26.5t37.5 10.5q15 0 30.5 -7t18.5 -8q11 -5 22.5 -9.5t21.5 -4.5q24 0 49 20l27 -41q-38 -38 -75 -38q-12 0 -25 4.5zM265.5 778q-41.5 31 -59.5 96l54 19q12 -38 38 -59t62 -21
q37 0 63 21.5t37 58.5l55 -19q-18 -65 -59.5 -96t-95.5 -31q-53 0 -94.5 31zM10 7q-5 7 -5 18q0 17 12 26t33 9h24l232 635h112l233 -636l41 -10q17 -4 24.5 -11.5t7.5 -19.5q0 -18 -13 -18h-223q-10 0 -15.5 7t-5.5 18q0 17 12 26t33 9h37l-58 159h-284l-57 -160l58 -14
q19 -4 26.5 -11t7.5 -18q0 -16 -13 -16h-204q-10 0 -15 7zM467 284l-118 327l-118 -327h236z" />
    <glyph glyph-name="uni01CD" unicode="&#x1cd;" horiz-adv-x="728" 
d="M216 895l44 37l92 -102l93 102l44 -37l-112 -143h-49zM10 7q-5 7 -5 18q0 17 12 26t33 9h24l232 635h112l233 -636l41 -10q17 -4 24.5 -11.5t7.5 -19.5q0 -18 -13 -18h-223q-10 0 -15.5 7t-5.5 18q0 17 12 26t33 9h37l-58 159h-284l-57 -160l58 -14q19 -4 26.5 -11
t7.5 -18q0 -16 -13 -16h-204q-10 0 -15 7zM467 284l-118 327l-118 -327h236z" />
    <glyph glyph-name="Acircumflex" unicode="&#xc2;" horiz-adv-x="728" 
d="M217 789l112 143h49l112 -143l-44 -37l-93 102l-92 -102zM10 7q-5 7 -5 18q0 17 12 26t33 9h24l232 635h112l233 -636l41 -10q17 -4 24.5 -11.5t7.5 -19.5q0 -18 -13 -18h-223q-10 0 -15.5 7t-5.5 18q0 17 12 26t33 9h37l-58 159h-284l-57 -160l58 -14q19 -4 26.5 -11
t7.5 -18q0 -16 -13 -16h-204q-10 0 -15 7zM467 284l-118 327l-118 -327h236z" />
    <glyph glyph-name="uni1EA4" unicode="&#x1ea4;" horiz-adv-x="728" 
d="M457 890l65 115l65 -42l-86 -102zM221 789l112 143h49l112 -143l-44 -37l-93 102l-92 -102zM10 7q-5 7 -5 18q0 17 12 26t33 9h24l232 635h112l233 -636l41 -10q17 -4 24.5 -11.5t7.5 -19.5q0 -18 -13 -18h-223q-10 0 -15.5 7t-5.5 18q0 17 12 26t33 9h37l-58 159h-284
l-57 -160l58 -14q19 -4 26.5 -11t7.5 -18q0 -16 -13 -16h-204q-10 0 -15 7zM467 284l-118 327l-118 -327h236z" />
    <glyph glyph-name="uni1EAC" unicode="&#x1eac;" horiz-adv-x="728" 
d="M220 789l112 143h49l112 -143l-44 -37l-93 102l-92 -102zM10 7q-5 7 -5 18q0 17 12 26t33 9h24l232 635h112l233 -636l41 -10q17 -4 24.5 -11.5t7.5 -19.5q0 -18 -13 -18h-223q-10 0 -15.5 7t-5.5 18q0 17 12 26t33 9h37l-58 159h-284l-57 -160l58 -14q19 -4 26.5 -11
t7.5 -18q0 -16 -13 -16h-204q-10 0 -15 7zM467 284l-118 327l-118 -327h236zM314 -161q-16 16 -16 40t16 39.5t39 15.5t39 -15.5t16 -39.5t-16 -40t-39 -16t-39 16z" />
    <glyph glyph-name="uni1EA6" unicode="&#x1ea6;" horiz-adv-x="728" 
d="M129 963l65 42l65 -115l-44 -29zM222 789l112 143h49l112 -143l-44 -37l-93 102l-92 -102zM10 7q-5 7 -5 18q0 17 12 26t33 9h24l232 635h112l233 -636l41 -10q17 -4 24.5 -11.5t7.5 -19.5q0 -18 -13 -18h-223q-10 0 -15.5 7t-5.5 18q0 17 12 26t33 9h37l-58 159h-284
l-57 -160l58 -14q19 -4 26.5 -11t7.5 -18q0 -16 -13 -16h-204q-10 0 -15 7zM467 284l-118 327l-118 -327h236z" />
    <glyph glyph-name="uni1EA8" unicode="&#x1ea8;" horiz-adv-x="728" 
d="M485 924q54 19 54 50q0 28 -32 28q-18 0 -49 -9l-7 37q13 6 31 10t34 4q39 0 62.5 -19.5t23.5 -50.5q0 -24 -16 -42.5t-44 -29.5l-6 -45h-46zM221 789l112 143h49l112 -143l-44 -37l-93 102l-92 -102zM10 7q-5 7 -5 18q0 17 12 26t33 9h24l232 635h112l233 -636l41 -10
q17 -4 24.5 -11.5t7.5 -19.5q0 -18 -13 -18h-223q-10 0 -15.5 7t-5.5 18q0 17 12 26t33 9h37l-58 159h-284l-57 -160l58 -14q19 -4 26.5 -11t7.5 -18q0 -16 -13 -16h-204q-10 0 -15 7zM467 284l-118 327l-118 -327h236z" />
    <glyph glyph-name="uni1EAA" unicode="&#x1eaa;" horiz-adv-x="728" 
d="M382 966.5q-13 4.5 -24 10.5q-28 15 -45 15q-14 0 -25 -5.5t-25 -15.5l-27 42q19 16 39.5 26.5t37.5 10.5q15 0 30.5 -7t18.5 -8q11 -5 22.5 -9.5t21.5 -4.5q25 0 49 19l27 -40q-38 -38 -75 -38q-12 0 -25 4.5zM221 789l112 143h49l112 -143l-44 -37l-93 102l-92 -102z
M10 7q-5 7 -5 18q0 17 12 26t33 9h24l232 635h112l233 -636l41 -10q17 -4 24.5 -11.5t7.5 -19.5q0 -18 -13 -18h-223q-10 0 -15.5 7t-5.5 18q0 17 12 26t33 9h37l-58 159h-284l-57 -160l58 -14q19 -4 26.5 -11t7.5 -18q0 -16 -13 -16h-204q-10 0 -15 7zM467 284l-118 327
l-118 -327h236z" />
    <glyph glyph-name="Adieresis" unicode="&#xc4;" horiz-adv-x="728" 
d="M221 778.5q-16 15.5 -16 39.5t16 39.5t39 15.5q22 0 38.5 -16t16.5 -39t-16.5 -39t-38.5 -16q-23 0 -39 15.5zM418 778.5q-16 15.5 -16 39.5t16 39.5t39 15.5q22 0 38.5 -16t16.5 -39t-16.5 -39t-38.5 -16q-23 0 -39 15.5zM10 7q-5 7 -5 18q0 17 12 26t33 9h24l232 635
h112l233 -636l41 -10q17 -4 24.5 -11.5t7.5 -19.5q0 -18 -13 -18h-223q-10 0 -15.5 7t-5.5 18q0 17 12 26t33 9h37l-58 159h-284l-57 -160l58 -14q19 -4 26.5 -11t7.5 -18q0 -16 -13 -16h-204q-10 0 -15 7zM467 284l-118 327l-118 -327h236z" />
    <glyph glyph-name="uni1EA0" unicode="&#x1ea0;" horiz-adv-x="728" 
d="M10 7q-5 7 -5 18q0 17 12 26t33 9h24l232 635h112l233 -636l41 -10q17 -4 24.5 -11.5t7.5 -19.5q0 -18 -13 -18h-223q-10 0 -15.5 7t-5.5 18q0 17 12 26t33 9h37l-58 159h-284l-57 -160l58 -14q19 -4 26.5 -11t7.5 -18q0 -16 -13 -16h-204q-10 0 -15 7zM467 284l-118 327
l-118 -327h236zM320 -161q-16 16 -16 40t16 39.5t39 15.5t39 -15.5t16 -39.5t-16 -40t-39 -16t-39 16z" />
    <glyph glyph-name="Agrave" unicode="&#xc0;" horiz-adv-x="728" 
d="M238 899l73 47l94 -157l-55 -36zM10 7q-5 7 -5 18q0 17 12 26t33 9h24l232 635h112l233 -636l41 -10q17 -4 24.5 -11.5t7.5 -19.5q0 -18 -13 -18h-223q-10 0 -15.5 7t-5.5 18q0 17 12 26t33 9h37l-58 159h-284l-57 -160l58 -14q19 -4 26.5 -11t7.5 -18q0 -16 -13 -16
h-204q-10 0 -15 7zM467 284l-118 327l-118 -327h236z" />
    <glyph glyph-name="uni1EA2" unicode="&#x1ea2;" horiz-adv-x="728" 
d="M329 819q56 19 56 51q0 29 -33 29q-20 0 -51 -9l-7 38q14 6 32.5 10.5t34.5 4.5q39 0 64 -20.5t25 -51.5q0 -25 -16.5 -44.5t-46.5 -30.5l-6 -46h-46zM10 7q-5 7 -5 18q0 17 12 26t33 9h24l232 635h112l233 -636l41 -10q17 -4 24.5 -11.5t7.5 -19.5q0 -18 -13 -18h-223
q-10 0 -15.5 7t-5.5 18q0 17 12 26t33 9h37l-58 159h-284l-57 -160l58 -14q19 -4 26.5 -11t7.5 -18q0 -16 -13 -16h-204q-10 0 -15 7zM467 284l-118 327l-118 -327h236z" />
    <glyph glyph-name="Amacron" unicode="&#x100;" horiz-adv-x="728" 
d="M213 847h287v-66h-287v66zM10 7q-5 7 -5 18q0 17 12 26t33 9h24l232 635h112l233 -636l41 -10q17 -4 24.5 -11.5t7.5 -19.5q0 -18 -13 -18h-223q-10 0 -15.5 7t-5.5 18q0 17 12 26t33 9h37l-58 159h-284l-57 -160l58 -14q19 -4 26.5 -11t7.5 -18q0 -16 -13 -16h-204
q-10 0 -15 7zM467 284l-118 327l-118 -327h236z" />
    <glyph glyph-name="Aogonek" unicode="&#x104;" horiz-adv-x="728" 
d="M527.5 -182q-32.5 27 -32.5 74q0 32 20 61t53 47h-80q-10 0 -15.5 7t-5.5 18q0 17 12 26t33 9h37l-58 159h-284l-57 -160l58 -14q34 -8 34 -29q0 -16 -13 -16h-204q-10 0 -15 7t-5 18q0 17 12 26t33 9h24l232 635h112l233 -636l41 -10q17 -4 24.5 -11.5t7.5 -19.5
q0 -18 -13 -18h-75q-31 -14 -52.5 -43.5t-21.5 -61.5q0 -26 16.5 -41t45.5 -15q20 0 41 7l9 -41q-30 -14 -63 -14q-51 0 -83.5 27zM467 284l-118 327l-118 -327h236z" />
    <glyph glyph-name="Aring" unicode="&#xc5;" horiz-adv-x="728" 
d="M286 771q-27 27 -27 66q0 40 27.5 67t71.5 27q45 0 72.5 -27t27.5 -67q0 -39 -27.5 -66t-72.5 -27t-72 27zM390.5 804q12.5 12 12.5 33q0 22 -12.5 34t-31.5 12q-20 0 -32.5 -12t-12.5 -34q0 -21 13 -33t32 -12t31.5 12zM10 7q-5 7 -5 18q0 17 12 26t33 9h24l232 635h112
l233 -636l41 -10q17 -4 24.5 -11.5t7.5 -19.5q0 -18 -13 -18h-223q-10 0 -15.5 7t-5.5 18q0 17 12 26t33 9h37l-58 159h-284l-57 -160l58 -14q19 -4 26.5 -11t7.5 -18q0 -16 -13 -16h-204q-10 0 -15 7zM467 284l-118 327l-118 -327h236z" />
    <glyph glyph-name="Aringacute" unicode="&#x1fa;" horiz-adv-x="728" 
d="M348 991l94 157l73 -47l-112 -146zM283 769q-27 27 -27 66q0 40 27.5 67t71.5 27q45 0 72.5 -27t27.5 -67q0 -39 -27.5 -66t-72.5 -27t-72 27zM387.5 802q12.5 12 12.5 33q0 22 -12.5 34t-31.5 12q-20 0 -32.5 -12t-12.5 -34q0 -21 13 -33t32 -12t31.5 12zM10 7
q-5 7 -5 18q0 17 12 26t33 9h24l232 635h112l233 -636l41 -10q17 -4 24.5 -11.5t7.5 -19.5q0 -18 -13 -18h-223q-10 0 -15.5 7t-5.5 18q0 17 12 26t33 9h37l-58 159h-284l-57 -160l58 -14q19 -4 26.5 -11t7.5 -18q0 -16 -13 -16h-204q-10 0 -15 7zM467 284l-118 327
l-118 -327h236z" />
    <glyph glyph-name="Atilde" unicode="&#xc3;" horiz-adv-x="728" 
d="M393.5 767.5q-13.5 4.5 -33.5 14.5q-20 9 -32 13.5t-26 4.5q-17 0 -32 -6.5t-33 -19.5l-33 46q23 21 49.5 34.5t49.5 13.5q14 0 26.5 -4.5t35.5 -14.5q20 -9 31.5 -13.5t24.5 -4.5q30 0 63 25l34 -46q-22 -22 -47.5 -34.5t-48.5 -12.5q-15 0 -28.5 4.5zM10 7q-5 7 -5 18
q0 17 12 26t33 9h24l232 635h112l233 -636l41 -10q17 -4 24.5 -11.5t7.5 -19.5q0 -18 -13 -18h-223q-10 0 -15.5 7t-5.5 18q0 17 12 26t33 9h37l-58 159h-284l-57 -160l58 -14q19 -4 26.5 -11t7.5 -18q0 -16 -13 -16h-204q-10 0 -15 7zM467 284l-118 327l-118 -327h236z" />
    <glyph glyph-name="AE" unicode="&#xc6;" horiz-adv-x="1130" 
d="M12 7q-5 7 -5 18q0 17 12 26t33 9h24l405 570l-27 6q-25 5 -35.5 14t-10.5 25q0 10 5 15t12 5h625v-140q0 -17 -17 -17q-24 0 -34 50l-9 43h-322v-244h264l13 43q10 30 26 30t16 -15v-179q0 -15 -16 -15q-17 0 -26 30l-13 43h-264v-260h335l10 46q11 49 34 49
q17 0 17 -17v-142h-553q-16 0 -16 20q0 31 46 40l27 5v154h-289l-115 -160l58 -14q19 -4 26.5 -11t7.5 -18q0 -16 -13 -16h-216q-10 0 -15 7zM568 284v344l-245 -344h245z" />
    <glyph glyph-name="AEacute" unicode="&#x1fc;" horiz-adv-x="1130" 
d="M687 788l94 157l73 -47l-112 -146zM12 7q-5 7 -5 18q0 17 12 26t33 9h24l405 570l-27 6q-25 5 -35.5 14t-10.5 25q0 10 5 15t12 5h625v-140q0 -17 -17 -17q-24 0 -34 50l-9 43h-322v-244h264l13 43q10 30 26 30t16 -15v-179q0 -15 -16 -15q-17 0 -26 30l-13 43h-264v-260
h335l10 46q11 49 34 49q17 0 17 -17v-142h-553q-16 0 -16 20q0 31 46 40l27 5v154h-289l-115 -160l58 -14q18 -4 26 -11t8 -18q0 -16 -13 -16h-216q-10 0 -15 7zM568 284v344l-245 -344h245z" />
    <glyph glyph-name="B" unicode="B" horiz-adv-x="700" 
d="M55 20q0 16 11 26t35 14l27 5v565l-27 5q-46 9 -46 40q0 20 16 20h307q107 0 167 -48t60 -136q0 -50 -26.5 -87.5t-73.5 -55.5v-4q66 -19 103 -63.5t37 -108.5q0 -92 -62 -142t-168 -50h-344q-16 0 -16 20zM386 390q54 0 86.5 32.5t32.5 87.5q0 56 -34.5 88.5t-97.5 32.5
h-145v-241h158zM401 64q71 0 107.5 34.5t36.5 95.5t-36.5 97t-102.5 36h-178v-263h173z" />
    <glyph glyph-name="C" unicode="C" horiz-adv-x="660" 
d="M210.5 28q-77.5 41 -122 122.5t-44.5 197.5q0 115 44 196.5t119 122.5t167 41q70 0 130 -20.5t100 -54.5v-122q0 -18 -19 -18q-13 0 -21 10t-13 32l-16 69q-24 17 -62 27.5t-83 10.5q-73 0 -128 -34t-85.5 -100t-30.5 -160t32 -160.5t89 -100.5t131 -34q101 0 157 40
q9 7 16 10.5t13 3.5q10 0 18.5 -8.5t8.5 -20.5q0 -23 -32 -43t-81.5 -34t-111.5 -14q-98 0 -175.5 41z" />
    <glyph glyph-name="Cacute" unicode="&#x106;" horiz-adv-x="660" 
d="M306 789l94 157l73 -47l-112 -146zM210.5 28q-77.5 41 -122 122.5t-44.5 197.5q0 115 44 196.5t119 122.5t167 41q70 0 130 -20.5t100 -54.5v-122q0 -18 -19 -18q-13 0 -21 10t-13 32l-16 69q-24 17 -62 27.5t-83 10.5q-73 0 -128 -34t-85.5 -100t-30.5 -160t32 -160.5
t89 -100.5t131 -34q101 0 157 40q9 7 16 10.5t13 3.5q10 0 18.5 -8.5t8.5 -20.5q0 -23 -32 -43t-81.5 -34t-111.5 -14q-98 0 -175.5 41z" />
    <glyph glyph-name="Ccaron" unicode="&#x10c;" horiz-adv-x="660" 
d="M222 895l44 37l92 -102l93 102l44 -37l-112 -143h-49zM210.5 28q-77.5 41 -122 122.5t-44.5 197.5q0 115 44 196.5t119 122.5t167 41q70 0 130 -20.5t100 -54.5v-122q0 -18 -19 -18q-13 0 -21 10t-13 32l-16 69q-24 17 -62 27.5t-83 10.5q-73 0 -128 -34t-85.5 -100
t-30.5 -160t32 -160.5t89 -100.5t131 -34q101 0 157 40q9 7 16 10.5t13 3.5q10 0 18.5 -8.5t8.5 -20.5q0 -23 -32 -43t-81.5 -34t-111.5 -14q-98 0 -175.5 41z" />
    <glyph glyph-name="Ccedilla" unicode="&#xc7;" horiz-adv-x="660" 
d="M302 -185q68 22 68 67q0 38 -45 52l20 55q-88 8 -156 51.5t-106.5 121.5t-38.5 186q0 115 44 196.5t119 122.5t167 41q70 0 130 -20.5t100 -54.5v-122q0 -18 -19 -18q-25 0 -34 42l-16 69q-24 17 -62 27.5t-83 10.5q-73 0 -128 -34t-85.5 -100t-30.5 -160t32 -160.5
t89 -100.5t131 -34q98 0 157 40q9 7 16 10.5t13 3.5q10 0 18.5 -8.5t8.5 -20.5q0 -23 -32 -43q-29 -19 -72.5 -32t-98.5 -16l-19 -41q49 -20 49 -66q0 -34 -36 -61.5t-86 -38.5z" />
    <glyph glyph-name="Ccircumflex" unicode="&#x108;" horiz-adv-x="660" 
d="M223 789l112 143h49l112 -143l-44 -37l-93 102l-92 -102zM210.5 28q-77.5 41 -122 122.5t-44.5 197.5q0 115 44 196.5t119 122.5t167 41q70 0 130 -20.5t100 -54.5v-122q0 -18 -19 -18q-13 0 -21 10t-13 32l-16 69q-24 17 -62 27.5t-83 10.5q-73 0 -128 -34t-85.5 -100
t-30.5 -160t32 -160.5t89 -100.5t131 -34q101 0 157 40q9 7 16 10.5t13 3.5q10 0 18.5 -8.5t8.5 -20.5q0 -23 -32 -43t-81.5 -34t-111.5 -14q-98 0 -175.5 41z" />
    <glyph glyph-name="Cdotaccent" unicode="&#x10a;" horiz-adv-x="660" 
d="M323 785q-16 16 -16 39q0 24 16 40t39 16t39 -16t16 -40q0 -23 -16 -39t-39 -16t-39 16zM210.5 28q-77.5 41 -122 122.5t-44.5 197.5q0 115 44 196.5t119 122.5t167 41q70 0 130 -20.5t100 -54.5v-122q0 -18 -19 -18q-13 0 -21 10t-13 32l-16 69q-24 17 -62 27.5
t-83 10.5q-73 0 -128 -34t-85.5 -100t-30.5 -160t32 -160.5t89 -100.5t131 -34q101 0 157 40q9 7 16 10.5t13 3.5q10 0 18.5 -8.5t8.5 -20.5q0 -23 -32 -43t-81.5 -34t-111.5 -14q-98 0 -175.5 41z" />
    <glyph glyph-name="D" unicode="D" horiz-adv-x="747" 
d="M55 20q0 31 46 40l27 5v565l-27 5q-46 9 -46 40q0 20 16 20h297q96 0 171.5 -38t119.5 -116.5t44 -194.5t-44 -193.5t-119.5 -115t-171.5 -37.5h-297q-16 0 -16 20zM368 66q111 0 172 73.5t61 206.5q0 134 -61 208.5t-172 74.5h-140v-563h140z" />
    <glyph glyph-name="Eth" unicode="&#xd0;" horiz-adv-x="749" 
d="M57 20q0 16 11 25t35 14l27 6v256h-68v66h68v243l-27 6q-24 5 -35 14t-11 25q0 20 16 20h297q96 0 171.5 -38t119.5 -116.5t44 -194.5t-44 -193.5t-119.5 -115t-171.5 -37.5h-297q-16 0 -16 20zM370 66q111 0 172 73.5t61 206.5q0 134 -61 208.5t-172 74.5h-140v-242h182
v-66h-182v-255h140z" />
    <glyph glyph-name="Dcaron" unicode="&#x10e;" horiz-adv-x="747" 
d="M210 895l44 37l92 -102l93 102l44 -37l-112 -143h-49zM55 20q0 31 46 40l27 5v565l-27 5q-46 9 -46 40q0 20 16 20h297q96 0 171.5 -38t119.5 -116.5t44 -194.5t-44 -193.5t-119.5 -115t-171.5 -37.5h-297q-16 0 -16 20zM368 66q111 0 172 73.5t61 206.5q0 134 -61 208.5
t-172 74.5h-140v-563h140z" />
    <glyph glyph-name="Dcroat" unicode="&#x110;" horiz-adv-x="749" 
d="M57 20q0 16 11 25t35 14l27 6v256h-68v66h68v243l-27 6q-24 5 -35 14t-11 25q0 20 16 20h297q96 0 171.5 -38t119.5 -116.5t44 -194.5t-44 -193.5t-119.5 -115t-171.5 -37.5h-297q-16 0 -16 20zM370 66q111 0 172 73.5t61 206.5q0 134 -61 208.5t-172 74.5h-140v-242h182
v-66h-182v-255h140z" />
    <glyph glyph-name="uni1E0C" unicode="&#x1e0c;" horiz-adv-x="747" 
d="M55 20q0 31 46 40l27 5v565l-27 5q-46 9 -46 40q0 20 16 20h297q96 0 171.5 -38t119.5 -116.5t44 -194.5t-44 -193.5t-119.5 -115t-171.5 -37.5h-297q-16 0 -16 20zM368 66q111 0 172 73.5t61 206.5q0 134 -61 208.5t-172 74.5h-140v-563h140zM333 -161q-16 16 -16 40
t16 39.5t39 15.5t39 -15.5t16 -39.5t-16 -40t-39 -16t-39 16z" />
    <glyph glyph-name="uni1E0E" unicode="&#x1e0e;" horiz-adv-x="747" 
d="M55 20q0 31 46 40l27 5v565l-27 5q-46 9 -46 40q0 20 16 20h297q96 0 171.5 -38t119.5 -116.5t44 -194.5t-44 -193.5t-119.5 -115t-171.5 -37.5h-297q-16 0 -16 20zM368 66q111 0 172 73.5t61 206.5q0 134 -61 208.5t-172 74.5h-140v-563h140zM160 -88h388v-65h-388v65z
" />
    <glyph glyph-name="E" unicode="E" horiz-adv-x="696" 
d="M55 20q0 31 46 40l27 5v565l-27 5q-24 4 -35 14t-11 26q0 20 16 20h545v-140q0 -17 -17 -17q-12 0 -20 12t-14 38l-10 43h-327v-244h269l13 43q10 30 26 30t16 -15v-179q0 -15 -16 -15t-26 30l-13 43h-269v-260h341l10 46q6 26 14 37.5t19 11.5q17 0 17 -17v-142h-558
q-16 0 -16 20z" />
    <glyph glyph-name="Eacute" unicode="&#xc9;" horiz-adv-x="696" 
d="M286 789l94 157l73 -47l-112 -146zM55 20q0 31 46 40l27 5v565l-27 5q-24 4 -35 14t-11 26q0 20 16 20h545v-140q0 -17 -17 -17q-12 0 -20 12t-14 38l-10 43h-327v-244h269l13 43q10 30 26 30t16 -15v-179q0 -15 -16 -15t-26 30l-13 43h-269v-260h341l10 46q6 26 14 37.5
t19 11.5q17 0 17 -17v-142h-558q-16 0 -16 20z" />
    <glyph glyph-name="Ebreve" unicode="&#x114;" horiz-adv-x="696" 
d="M254.5 778q-41.5 31 -59.5 96l54 19q12 -38 38 -59t62 -21q37 0 63 21.5t37 58.5l55 -19q-18 -65 -59.5 -96t-95.5 -31q-53 0 -94.5 31zM55 20q0 31 46 40l27 5v565l-27 5q-24 4 -35 14t-11 26q0 20 16 20h545v-140q0 -17 -17 -17q-12 0 -20 12t-14 38l-10 43h-327v-244
h269l13 43q10 30 26 30t16 -15v-179q0 -15 -16 -15t-26 30l-13 43h-269v-260h341l10 46q6 26 14 37.5t19 11.5q17 0 17 -17v-142h-558q-16 0 -16 20z" />
    <glyph glyph-name="Ecaron" unicode="&#x11a;" horiz-adv-x="696" 
d="M214 895l44 37l92 -102l93 102l44 -37l-112 -143h-49zM55 20q0 31 46 40l27 5v565l-27 5q-24 4 -35 14t-11 26q0 20 16 20h545v-140q0 -17 -17 -17q-12 0 -20 12t-14 38l-10 43h-327v-244h269l13 43q10 30 26 30t16 -15v-179q0 -15 -16 -15t-26 30l-13 43h-269v-260h341
l10 46q6 26 14 37.5t19 11.5q17 0 17 -17v-142h-558q-16 0 -16 20z" />
    <glyph glyph-name="Ecircumflex" unicode="&#xca;" horiz-adv-x="696" 
d="M214 789l112 143h49l112 -143l-44 -37l-93 102l-92 -102zM55 20q0 31 46 40l27 5v565l-27 5q-24 4 -35 14t-11 26q0 20 16 20h545v-140q0 -17 -17 -17q-12 0 -20 12t-14 38l-10 43h-327v-244h269l13 43q10 30 26 30t16 -15v-179q0 -15 -16 -15t-26 30l-13 43h-269v-260
h341l10 46q6 26 14 37.5t19 11.5q17 0 17 -17v-142h-558q-16 0 -16 20z" />
    <glyph glyph-name="uni1EBE" unicode="&#x1ebe;" horiz-adv-x="696" 
d="M454 890l65 115l65 -42l-86 -102zM219 789l112 143h49l112 -143l-44 -37l-93 102l-92 -102zM55 20q0 31 46 40l27 5v565l-27 5q-24 4 -35 14t-11 26q0 20 16 20h545v-140q0 -17 -17 -17q-12 0 -20 12t-14 38l-10 43h-327v-244h269l13 43q10 30 26 30t16 -15v-179
q0 -15 -16 -15t-26 30l-13 43h-269v-260h341l10 46q6 26 14 37.5t19 11.5q17 0 17 -17v-142h-558q-16 0 -16 20z" />
    <glyph glyph-name="uni1EC6" unicode="&#x1ec6;" horiz-adv-x="696" 
d="M214 789l112 143h49l112 -143l-44 -37l-93 102l-92 -102zM55 20q0 31 46 40l27 5v565l-27 5q-24 4 -35 14t-11 26q0 20 16 20h545v-140q0 -17 -17 -17q-12 0 -20 12t-14 38l-10 43h-327v-244h269l13 43q10 30 26 30t16 -15v-179q0 -15 -16 -15t-26 30l-13 43h-269v-260
h341l10 46q6 26 14 37.5t19 11.5q17 0 17 -17v-142h-558q-16 0 -16 20zM320 -161q-16 16 -16 40t16 39.5t39 15.5t39 -15.5t16 -39.5t-16 -40t-39 -16t-39 16z" />
    <glyph glyph-name="uni1EC0" unicode="&#x1ec0;" horiz-adv-x="696" 
d="M128 963l65 42l65 -115l-44 -29zM221 789l112 143h49l112 -143l-44 -37l-93 102l-92 -102zM55 20q0 31 46 40l27 5v565l-27 5q-24 4 -35 14t-11 26q0 20 16 20h545v-140q0 -17 -17 -17q-12 0 -20 12t-14 38l-10 43h-327v-244h269l13 43q10 30 26 30t16 -15v-179
q0 -15 -16 -15t-26 30l-13 43h-269v-260h341l10 46q6 26 14 37.5t19 11.5q17 0 17 -17v-142h-558q-16 0 -16 20z" />
    <glyph glyph-name="uni1EC2" unicode="&#x1ec2;" horiz-adv-x="696" 
d="M471 924q54 19 54 50q0 28 -32 28q-18 0 -49 -9l-7 37q13 6 31 10t34 4q39 0 62.5 -19.5t23.5 -50.5q0 -24 -16 -42.5t-44 -29.5l-6 -45h-46zM207 789l112 143h49l112 -143l-44 -37l-93 102l-92 -102zM55 20q0 31 46 40l27 5v565l-27 5q-24 4 -35 14t-11 26q0 20 16 20
h545v-140q0 -17 -17 -17q-12 0 -20 12t-14 38l-10 43h-327v-244h269l13 43q10 30 26 30t16 -15v-179q0 -15 -16 -15t-26 30l-13 43h-269v-260h341l10 46q6 26 14 37.5t19 11.5q17 0 17 -17v-142h-558q-16 0 -16 20z" />
    <glyph glyph-name="uni1EC4" unicode="&#x1ec4;" horiz-adv-x="696" 
d="M380 966.5q-13 4.5 -24 10.5q-28 15 -45 15q-14 0 -25 -5.5t-25 -15.5l-27 42q19 16 39.5 26.5t37.5 10.5q15 0 30.5 -7t18.5 -8q11 -5 22.5 -9.5t21.5 -4.5q25 0 49 19l27 -40q-38 -38 -75 -38q-12 0 -25 4.5zM219 789l112 143h49l112 -143l-44 -37l-93 102l-92 -102z
M55 20q0 31 46 40l27 5v565l-27 5q-24 4 -35 14t-11 26q0 20 16 20h545v-140q0 -17 -17 -17q-12 0 -20 12t-14 38l-10 43h-327v-244h269l13 43q10 30 26 30t16 -15v-179q0 -15 -16 -15t-26 30l-13 43h-269v-260h341l10 46q6 26 14 37.5t19 11.5q17 0 17 -17v-142h-558
q-16 0 -16 20z" />
    <glyph glyph-name="Edieresis" unicode="&#xcb;" horiz-adv-x="696" 
d="M223 778.5q-16 15.5 -16 39.5t16 39.5t39 15.5q22 0 38.5 -16t16.5 -39t-16.5 -39t-38.5 -16q-23 0 -39 15.5zM420 778.5q-16 15.5 -16 39.5t16 39.5t39 15.5q22 0 38.5 -16t16.5 -39t-16.5 -39t-38.5 -16q-23 0 -39 15.5zM55 20q0 31 46 40l27 5v565l-27 5q-24 4 -35 14
t-11 26q0 20 16 20h545v-140q0 -17 -17 -17q-12 0 -20 12t-14 38l-10 43h-327v-244h269l13 43q10 30 26 30t16 -15v-179q0 -15 -16 -15t-26 30l-13 43h-269v-260h341l10 46q6 26 14 37.5t19 11.5q17 0 17 -17v-142h-558q-16 0 -16 20z" />
    <glyph glyph-name="Edotaccent" unicode="&#x116;" horiz-adv-x="696" 
d="M317 785q-16 16 -16 39q0 24 16 40t39 16t39 -16t16 -40q0 -23 -16 -39t-39 -16t-39 16zM55 20q0 31 46 40l27 5v565l-27 5q-24 4 -35 14t-11 26q0 20 16 20h545v-140q0 -17 -17 -17q-12 0 -20 12t-14 38l-10 43h-327v-244h269l13 43q10 30 26 30t16 -15v-179
q0 -15 -16 -15t-26 30l-13 43h-269v-260h341l10 46q6 26 14 37.5t19 11.5q17 0 17 -17v-142h-558q-16 0 -16 20z" />
    <glyph glyph-name="uni1EB8" unicode="&#x1eb8;" horiz-adv-x="696" 
d="M55 20q0 31 46 40l27 5v565l-27 5q-24 4 -35 14t-11 26q0 20 16 20h545v-140q0 -17 -17 -17q-12 0 -20 12t-14 38l-10 43h-327v-244h269l13 43q10 30 26 30t16 -15v-179q0 -15 -16 -15t-26 30l-13 43h-269v-260h341l10 46q6 26 14 37.5t19 11.5q17 0 17 -17v-142h-558
q-16 0 -16 20zM326 -161q-16 16 -16 40t16 39.5t39 15.5t39 -15.5t16 -39.5t-16 -40t-39 -16t-39 16z" />
    <glyph glyph-name="Egrave" unicode="&#xc8;" horiz-adv-x="696" 
d="M248 899l73 47l94 -157l-55 -36zM55 20q0 31 46 40l27 5v565l-27 5q-24 4 -35 14t-11 26q0 20 16 20h545v-140q0 -17 -17 -17q-12 0 -20 12t-14 38l-10 43h-327v-244h269l13 43q10 30 26 30t16 -15v-179q0 -15 -16 -15t-26 30l-13 43h-269v-260h341l10 46q6 26 14 37.5
t19 11.5q17 0 17 -17v-142h-558q-16 0 -16 20z" />
    <glyph glyph-name="uni1EBA" unicode="&#x1eba;" horiz-adv-x="696" 
d="M324 819q56 19 56 51q0 29 -33 29q-20 0 -51 -9l-7 38q14 6 32.5 10.5t34.5 4.5q39 0 64 -20.5t25 -51.5q0 -25 -16.5 -44.5t-46.5 -30.5l-6 -46h-46zM55 20q0 31 46 40l27 5v565l-27 5q-24 4 -35 14t-11 26q0 20 16 20h545v-140q0 -17 -17 -17q-12 0 -20 12t-14 38
l-10 43h-327v-244h269l13 43q10 30 26 30t16 -15v-179q0 -15 -16 -15t-26 30l-13 43h-269v-260h341l10 46q6 26 14 37.5t19 11.5q17 0 17 -17v-142h-558q-16 0 -16 20z" />
    <glyph glyph-name="Emacron" unicode="&#x112;" horiz-adv-x="696" 
d="M211 847h287v-66h-287v66zM55 20q0 31 46 40l27 5v565l-27 5q-24 4 -35 14t-11 26q0 20 16 20h545v-140q0 -17 -17 -17q-12 0 -20 12t-14 38l-10 43h-327v-244h269l13 43q10 30 26 30t16 -15v-179q0 -15 -16 -15t-26 30l-13 43h-269v-260h341l10 46q6 26 14 37.5t19 11.5
q17 0 17 -17v-142h-558q-16 0 -16 20z" />
    <glyph glyph-name="Eogonek" unicode="&#x118;" horiz-adv-x="696" 
d="M482.5 -182q-32.5 27 -32.5 74q0 32 20 61t53 47h-452q-16 0 -16 20q0 16 11 25t35 14l27 6v565l-27 6q-25 5 -35.5 14t-10.5 25q0 20 16 20h545v-140q0 -17 -17 -17q-12 0 -20 12t-14 38l-10 43h-327v-244h269l13 43q9 30 26 30q16 0 16 -15v-179q0 -15 -16 -15
q-17 0 -26 30l-13 43h-269v-260h341l10 46q6 26 14 37.5t19 11.5q17 0 17 -17v-142h-38q-31 -14 -52.5 -43.5t-21.5 -61.5q0 -26 16.5 -41t45.5 -15q20 0 41 7l9 -41q-30 -14 -63 -14q-51 0 -83.5 27z" />
    <glyph glyph-name="uni1EBC" unicode="&#x1ebc;" horiz-adv-x="696" 
d="M395.5 767.5q-13.5 4.5 -33.5 14.5q-20 9 -32 13.5t-26 4.5q-17 0 -32 -6.5t-33 -19.5l-33 46q23 21 49.5 34.5t49.5 13.5q14 0 26.5 -4.5t35.5 -14.5q20 -9 31.5 -13.5t24.5 -4.5q30 0 63 25l34 -46q-22 -22 -47.5 -34.5t-48.5 -12.5q-15 0 -28.5 4.5zM55 20q0 31 46 40
l27 5v565l-27 5q-24 4 -35 14t-11 26q0 20 16 20h545v-140q0 -17 -17 -17q-12 0 -20 12t-14 38l-10 43h-327v-244h269l13 43q10 30 26 30t16 -15v-179q0 -15 -16 -15t-26 30l-13 43h-269v-260h341l10 46q6 26 14 37.5t19 11.5q17 0 17 -17v-142h-558q-16 0 -16 20z" />
    <glyph glyph-name="F" unicode="F" horiz-adv-x="658" 
d="M62 7q-5 7 -5 18q0 17 12 26t33 9h26v570l-27 6q-25 5 -35.5 14t-10.5 25q0 20 16 20h526v-143q0 -17 -17 -17q-22 0 -34 49l-11 45h-307v-260h250l12 43q8 31 27 31q15 0 15 -15v-183q0 -16 -15 -16q-19 0 -27 31l-12 44h-250v-245l46 -13q17 -5 24.5 -12.5t7.5 -18.5
q0 -15 -14 -15h-215q-10 0 -15 7z" />
    <glyph glyph-name="G" unicode="G" horiz-adv-x="725" 
d="M215.5 26.5q-78.5 39.5 -123.5 121t-45 200.5q0 116 43.5 197t118 122t167.5 41q71 0 131 -20.5t100 -54.5v-122q0 -18 -19 -18q-13 0 -21 10t-13 32l-16 69q-24 17 -62 27.5t-83 10.5q-112 0 -178 -76.5t-66 -217.5q0 -94 31 -160.5t86.5 -100.5t128.5 -34q67 0 116 23
v214h-96q-20 0 -20 25q0 16 12 25t33 9h232q14 0 14 -15q0 -11 -7 -18t-24 -12l-44 -14v-253q-44 -24 -103 -37t-115 -13q-99 0 -177.5 39.5z" />
    <glyph glyph-name="Gbreve" unicode="&#x11e;" horiz-adv-x="725" 
d="M275.5 778q-41.5 31 -59.5 96l54 19q12 -38 38 -59t62 -21q37 0 63 21.5t37 58.5l55 -19q-18 -65 -59.5 -96t-95.5 -31q-53 0 -94.5 31zM215.5 26.5q-78.5 39.5 -123.5 121t-45 200.5q0 116 43.5 197t118 122t167.5 41q71 0 131 -20.5t100 -54.5v-122q0 -18 -19 -18
q-13 0 -21 10t-13 32l-16 69q-24 17 -62 27.5t-83 10.5q-112 0 -178 -76.5t-66 -217.5q0 -94 31 -160.5t86.5 -100.5t128.5 -34q67 0 116 23v214h-96q-20 0 -20 25q0 16 12 25t33 9h232q14 0 14 -15q0 -11 -7 -18t-24 -12l-44 -14v-253q-44 -24 -103 -37t-115 -13
q-99 0 -177.5 39.5z" />
    <glyph glyph-name="Gcaron" unicode="&#x1e6;" horiz-adv-x="725" 
d="M239 895l44 37l92 -102l93 102l44 -37l-112 -143h-49zM215.5 26.5q-78.5 39.5 -123.5 121t-45 200.5q0 116 43.5 197t118 122t167.5 41q71 0 131 -20.5t100 -54.5v-122q0 -18 -19 -18q-13 0 -21 10t-13 32l-16 69q-24 17 -62 27.5t-83 10.5q-112 0 -178 -76.5t-66 -217.5
q0 -94 31 -160.5t86.5 -100.5t128.5 -34q67 0 116 23v214h-96q-20 0 -20 25q0 16 12 25t33 9h232q14 0 14 -15q0 -11 -7 -18t-24 -12l-44 -14v-253q-44 -24 -103 -37t-115 -13q-99 0 -177.5 39.5z" />
    <glyph glyph-name="Gcircumflex" unicode="&#x11c;" horiz-adv-x="725" 
d="M236 789l112 143h49l112 -143l-44 -37l-93 102l-92 -102zM215.5 26.5q-78.5 39.5 -123.5 121t-45 200.5q0 116 43.5 197t118 122t167.5 41q71 0 131 -20.5t100 -54.5v-122q0 -18 -19 -18q-13 0 -21 10t-13 32l-16 69q-24 17 -62 27.5t-83 10.5q-112 0 -178 -76.5
t-66 -217.5q0 -94 31 -160.5t86.5 -100.5t128.5 -34q67 0 116 23v214h-96q-20 0 -20 25q0 16 12 25t33 9h232q14 0 14 -15q0 -11 -7 -18t-24 -12l-44 -14v-253q-44 -24 -103 -37t-115 -13q-99 0 -177.5 39.5z" />
    <glyph glyph-name="Gcommaaccent" unicode="&#x122;" horiz-adv-x="725" 
d="M215.5 26.5q-78.5 39.5 -123.5 121t-45 200.5q0 116 43.5 197t118 122t167.5 41q71 0 131 -20.5t100 -54.5v-122q0 -18 -19 -18q-13 0 -21 10t-13 32l-16 69q-24 17 -62 27.5t-83 10.5q-112 0 -178 -76.5t-66 -217.5q0 -94 31 -160.5t86.5 -100.5t128.5 -34q67 0 116 23
v214h-96q-20 0 -20 25q0 16 12 25t33 9h232q14 0 14 -15q0 -11 -7 -18t-24 -12l-44 -14v-253q-44 -24 -103 -37t-115 -13q-99 0 -177.5 39.5zM299 -230q19 28 36 65.5t20 61.5l-28 9q-14 5 -14 18t8 20.5t21 7.5q3 0 13 -2l84 -19q-12 -47 -38.5 -98.5t-59.5 -88.5z" />
    <glyph glyph-name="Gdotaccent" unicode="&#x120;" horiz-adv-x="725" 
d="M334 785q-16 16 -16 39q0 24 16 40t39 16t39 -16t16 -40q0 -23 -16 -39t-39 -16t-39 16zM215.5 26.5q-78.5 39.5 -123.5 121t-45 200.5q0 116 43.5 197t118 122t167.5 41q71 0 131 -20.5t100 -54.5v-122q0 -18 -19 -18q-13 0 -21 10t-13 32l-16 69q-24 17 -62 27.5
t-83 10.5q-112 0 -178 -76.5t-66 -217.5q0 -94 31 -160.5t86.5 -100.5t128.5 -34q67 0 116 23v214h-96q-20 0 -20 25q0 16 12 25t33 9h232q14 0 14 -15q0 -11 -7 -18t-24 -12l-44 -14v-253q-44 -24 -103 -37t-115 -13q-99 0 -177.5 39.5z" />
    <glyph glyph-name="uni1E20" unicode="&#x1e20;" horiz-adv-x="725" 
d="M232 847h287v-66h-287v66zM215.5 26.5q-78.5 39.5 -123.5 121t-45 200.5q0 116 43.5 197t118 122t167.5 41q71 0 131 -20.5t100 -54.5v-122q0 -18 -19 -18q-13 0 -21 10t-13 32l-16 69q-24 17 -62 27.5t-83 10.5q-112 0 -178 -76.5t-66 -217.5q0 -94 31 -160.5
t86.5 -100.5t128.5 -34q67 0 116 23v214h-96q-20 0 -20 25q0 16 12 25t33 9h232q14 0 14 -15q0 -11 -7 -18t-24 -12l-44 -14v-253q-44 -24 -103 -37t-115 -13q-99 0 -177.5 39.5z" />
    <glyph glyph-name="H" unicode="H" horiz-adv-x="814" 
d="M60 7q-5 7 -5 18q0 17 12 26t33 9h25v575h-50q-10 0 -15 7t-5 19q0 16 12 25t33 9h190q14 0 14 -15q0 -22 -32 -31l-47 -13v-242h361v241h-55q-10 0 -15 7t-5 19q0 16 12 25t33 9h190q13 0 13 -15q0 -11 -6 -17.5t-20 -11.5l-47 -15v-577l47 -15q14 -5 20 -11.5t6 -17.5
q0 -15 -13 -15h-215q-10 0 -15 7t-5 18q0 17 12 26t33 9h30v268h-361v-269l47 -13q32 -8 32 -31q0 -15 -14 -15h-215q-10 0 -15 7z" />
    <glyph glyph-name="Hbar" unicode="&#x126;" horiz-adv-x="816" 
d="M61 7q-5 7 -5 18q0 17 12 26t33 9h25v425h-70v63h70v87h-50q-10 0 -15 7t-5 19q0 16 12 25t33 9h190q14 0 14 -15q0 -22 -32 -31l-47 -13v-88h361v87h-55q-10 0 -15 7t-5 19q0 16 12 25t33 9h190q13 0 13 -15q0 -11 -6 -17.5t-20 -11.5l-47 -15v-88h74v-63h-74v-426
l47 -15q14 -5 20 -11.5t6 -17.5q0 -15 -13 -15h-215q-10 0 -15 7t-5 18q0 17 12 26t33 9h30v268h-361v-269l47 -13q32 -8 32 -31q0 -15 -14 -15h-215q-10 0 -15 7zM587 394v91h-361v-91h361z" />
    <glyph glyph-name="uni1E2A" unicode="&#x1e2a;" horiz-adv-x="814" 
d="M60 7q-5 7 -5 18q0 17 12 26t33 9h25v575h-50q-10 0 -15 7t-5 19q0 16 12 25t33 9h190q14 0 14 -15q0 -22 -32 -31l-47 -13v-242h361v241h-55q-10 0 -15 7t-5 19q0 16 12 25t33 9h190q13 0 13 -15q0 -11 -6 -17.5t-20 -11.5l-47 -15v-577l47 -15q14 -5 20 -11.5t6 -17.5
q0 -15 -13 -15h-215q-10 0 -15 7t-5 18q0 17 12 26t33 9h30v268h-361v-269l47 -13q32 -8 32 -31q0 -15 -14 -15h-215q-10 0 -15 7zM313.5 -175q-41.5 31 -59.5 96l54 19q12 -38 38 -59t62 -21q37 0 63 21.5t37 58.5l55 -19q-18 -65 -59.5 -96t-95.5 -31q-53 0 -94.5 31z" />
    <glyph glyph-name="Hcircumflex" unicode="&#x124;" horiz-adv-x="814" 
d="M270 789l112 143h49l112 -143l-44 -37l-93 102l-92 -102zM60 7q-5 7 -5 18q0 17 12 26t33 9h25v575h-50q-10 0 -15 7t-5 19q0 16 12 25t33 9h190q14 0 14 -15q0 -22 -32 -31l-47 -13v-242h361v241h-55q-10 0 -15 7t-5 19q0 16 12 25t33 9h190q13 0 13 -15q0 -11 -6 -17.5
t-20 -11.5l-47 -15v-577l47 -15q14 -5 20 -11.5t6 -17.5q0 -15 -13 -15h-215q-10 0 -15 7t-5 18q0 17 12 26t33 9h30v268h-361v-269l47 -13q32 -8 32 -31q0 -15 -14 -15h-215q-10 0 -15 7z" />
    <glyph glyph-name="uni1E24" unicode="&#x1e24;" horiz-adv-x="814" 
d="M60 7q-5 7 -5 18q0 17 12 26t33 9h25v575h-50q-10 0 -15 7t-5 19q0 16 12 25t33 9h190q14 0 14 -15q0 -22 -32 -31l-47 -13v-242h361v241h-55q-10 0 -15 7t-5 19q0 16 12 25t33 9h190q13 0 13 -15q0 -11 -6 -17.5t-20 -11.5l-47 -15v-577l47 -15q14 -5 20 -11.5t6 -17.5
q0 -15 -13 -15h-215q-10 0 -15 7t-5 18q0 17 12 26t33 9h30v268h-361v-269l47 -13q32 -8 32 -31q0 -15 -14 -15h-215q-10 0 -15 7zM371 -161q-16 16 -16 40t16 39.5t39 15.5t39 -15.5t16 -39.5t-16 -40t-39 -16t-39 16z" />
    <glyph glyph-name="I" unicode="I" horiz-adv-x="368" 
d="M65 7q-5 7 -5 18q0 17 12 26t33 9h25v575h-50q-10 0 -15 7t-5 19q0 16 12 25t33 9h190q14 0 14 -15q0 -23 -32 -31l-47 -13v-577l47 -13q32 -8 32 -31q0 -15 -14 -15h-215q-10 0 -15 7z" />
    <glyph glyph-name="IJ" unicode="&#x132;" horiz-adv-x="740" 
d="M65 7q-5 7 -5 18q0 17 12 26t33 9h25v575h-50q-10 0 -15 7t-5 19q0 16 12 25t33 9h190q14 0 14 -15q0 -23 -32 -31l-47 -13v-577l47 -13q32 -8 32 -31q0 -15 -14 -15h-215q-10 0 -15 7zM386.5 3.5q-15.5 16.5 -16.5 51.5q82 29 116 70.5t34 119.5v390h-62q-10 0 -15 7
t-5 19q0 16 12 25t33 9h201q14 0 14 -15q0 -11 -7.5 -18.5t-24.5 -12.5l-46 -13v-397q0 -91 -35.5 -148t-94.5 -87q-36 -17 -65 -17q-23 0 -38.5 16.5z" />
    <glyph glyph-name="Iacute" unicode="&#xcd;" horiz-adv-x="368" 
d="M118 789l94 157l73 -47l-112 -146zM65 7q-5 7 -5 18q0 17 12 26t33 9h25v575h-50q-10 0 -15 7t-5 19q0 16 12 25t33 9h190q14 0 14 -15q0 -23 -32 -31l-47 -13v-577l47 -13q32 -8 32 -31q0 -15 -14 -15h-215q-10 0 -15 7z" />
    <glyph glyph-name="Ibreve" unicode="&#x12c;" horiz-adv-x="346" 
d="M78.5 778q-41.5 31 -59.5 96l54 19q12 -38 38 -59t62 -21q37 0 63 21.5t37 58.5l55 -19q-18 -65 -59.5 -96t-95.5 -31q-53 0 -94.5 31zM61 7q-5 7 -5 18q0 17 12 26t33 9h25v575h-50q-10 0 -15 7t-5 19q0 16 12 25t33 9h190q14 0 14 -15q0 -23 -32 -31l-47 -13v-577
l47 -13q32 -8 32 -31q0 -15 -14 -15h-215q-10 0 -15 7z" />
    <glyph glyph-name="uni01CF" unicode="&#x1cf;" horiz-adv-x="347" 
d="M36 895l44 37l92 -102l93 102l44 -37l-112 -143h-49zM59 7q-5 7 -5 18q0 17 12 26t33 9h25v575h-50q-10 0 -15 7t-5 19q0 16 12 25t33 9h190q14 0 14 -15q0 -23 -32 -31l-47 -13v-577l47 -13q32 -8 32 -31q0 -15 -14 -15h-215q-10 0 -15 7z" />
    <glyph glyph-name="Icircumflex" unicode="&#xce;" horiz-adv-x="346" 
d="M36 789l112 143h49l112 -143l-44 -37l-93 102l-92 -102zM58 7q-5 7 -5 18q0 17 12 26t33 9h25v575h-50q-10 0 -15 7t-5 19q0 16 12 25t33 9h190q14 0 14 -15q0 -23 -32 -31l-47 -13v-577l47 -13q32 -8 32 -31q0 -15 -14 -15h-215q-10 0 -15 7z" />
    <glyph glyph-name="Idieresis" unicode="&#xcf;" horiz-adv-x="348" 
d="M37 778.5q-16 15.5 -16 39.5t16 39.5t39 15.5q22 0 38.5 -16t16.5 -39t-16.5 -39t-38.5 -16q-23 0 -39 15.5zM234 778.5q-16 15.5 -16 39.5t16 39.5t39 15.5q22 0 38.5 -16t16.5 -39t-16.5 -39t-38.5 -16q-23 0 -39 15.5zM58 7q-5 7 -5 18q0 17 12 26t33 9h25v575h-50
q-10 0 -15 7t-5 19q0 16 12 25t33 9h190q14 0 14 -15q0 -23 -32 -31l-47 -13v-577l47 -13q32 -8 32 -31q0 -15 -14 -15h-215q-10 0 -15 7z" />
    <glyph glyph-name="Idotaccent" unicode="&#x130;" horiz-adv-x="372" 
d="M146 785q-16 16 -16 39q0 24 16 40t39 16t39 -16t16 -40q0 -23 -16 -39t-39 -16t-39 16zM67 7q-5 7 -5 18q0 17 12 26t33 9h25v575h-50q-10 0 -15 7t-5 19q0 16 12 25t33 9h190q14 0 14 -15q0 -23 -32 -31l-47 -13v-577l47 -13q32 -8 32 -31q0 -15 -14 -15h-215
q-10 0 -15 7z" />
    <glyph glyph-name="uni1ECA" unicode="&#x1eca;" horiz-adv-x="368" 
d="M65 7q-5 7 -5 18q0 17 12 26t33 9h25v575h-50q-10 0 -15 7t-5 19q0 16 12 25t33 9h190q14 0 14 -15q0 -23 -32 -31l-47 -13v-577l47 -13q32 -8 32 -31q0 -15 -14 -15h-215q-10 0 -15 7zM145 -161q-16 16 -16 40t16 39.5t39 15.5t39 -15.5t16 -39.5t-16 -40t-39 -16
t-39 16z" />
    <glyph glyph-name="Igrave" unicode="&#xcc;" horiz-adv-x="368" 
d="M76 899l73 47l94 -157l-55 -36zM65 7q-5 7 -5 18q0 17 12 26t33 9h25v575h-50q-10 0 -15 7t-5 19q0 16 12 25t33 9h190q14 0 14 -15q0 -23 -32 -31l-47 -13v-577l47 -13q32 -8 32 -31q0 -15 -14 -15h-215q-10 0 -15 7z" />
    <glyph glyph-name="uni1EC8" unicode="&#x1ec8;" horiz-adv-x="395" 
d="M149 819q56 19 56 51q0 29 -33 29q-20 0 -51 -9l-7 38q14 6 32.5 10.5t34.5 4.5q39 0 64 -20.5t25 -51.5q0 -25 -16.5 -44.5t-46.5 -30.5l-6 -46h-46zM67 7q-5 7 -5 18q0 17 12 26t33 9h25v575h-50q-10 0 -15 7t-5 19q0 16 12 25t33 9h190q14 0 14 -15q0 -11 -7 -17.5
t-25 -13.5l-47 -13v-577l47 -13q32 -8 32 -31q0 -15 -14 -15h-215q-10 0 -15 7z" />
    <glyph glyph-name="Imacron" unicode="&#x12a;" horiz-adv-x="315" 
d="M12 847h287v-66h-287v66zM38 7q-5 7 -5 18q0 17 12 26t33 9h25v575h-50q-10 0 -15 7t-5 19q0 16 12 25t33 9h190q14 0 14 -15q0 -23 -32 -31l-47 -13v-577l47 -13q32 -8 32 -31q0 -15 -14 -15h-215q-10 0 -15 7z" />
    <glyph glyph-name="Iogonek" unicode="&#x12e;" horiz-adv-x="371" 
d="M101.5 -182q-32.5 27 -32.5 74q0 32 20 61t53 47h-60q-10 0 -15 7t-5 18q0 17 12 26t33 9h25v575h-50q-10 0 -15 7t-5 19q0 16 12 25t33 9h190q14 0 14 -15q0 -22 -32 -31l-47 -13v-577l47 -13q32 -8 32 -31q0 -15 -14 -15h-87q-31 -14 -52.5 -43.5t-21.5 -61.5
q0 -26 16.5 -41t45.5 -15q20 0 41 7l9 -41q-30 -14 -63 -14q-51 0 -83.5 27z" />
    <glyph glyph-name="Itilde" unicode="&#x128;" horiz-adv-x="349" 
d="M207.5 767.5q-13.5 4.5 -33.5 14.5q-20 9 -32 13.5t-26 4.5q-17 0 -32 -6.5t-33 -19.5l-33 46q23 21 49.5 34.5t49.5 13.5q14 0 26.5 -4.5t35.5 -14.5q20 -9 31.5 -13.5t24.5 -4.5q30 0 63 25l34 -46q-22 -22 -47.5 -34.5t-48.5 -12.5q-15 0 -28.5 4.5zM61 7q-5 7 -5 18
q0 17 12 26t33 9h25v575h-50q-10 0 -15 7t-5 19q0 16 12 25t33 9h190q14 0 14 -15q0 -23 -32 -31l-47 -13v-577l47 -13q32 -8 32 -31q0 -15 -14 -15h-215q-10 0 -15 7z" />
    <glyph glyph-name="J" unicode="J" horiz-adv-x="405" 
d="M51.5 3.5q-15.5 16.5 -16.5 51.5q82 29 116 70.5t34 119.5v390h-62q-10 0 -15 7t-5 19q0 16 12 25t33 9h201q14 0 14 -15q0 -22 -32 -31l-46 -13v-397q0 -166 -130 -235q-33 -17 -65 -17q-23 0 -38.5 16.5z" />
    <glyph glyph-name="Jcircumflex" unicode="&#x134;" horiz-adv-x="410" 
d="M95 789l112 143h49l112 -143l-44 -37l-93 102l-92 -102zM51.5 3.5q-15.5 16.5 -16.5 51.5q82 29 116 70.5t34 119.5v390h-62q-10 0 -15 7t-5 19q0 16 12 25t33 9h201q14 0 14 -15q0 -22 -32 -31l-46 -13v-397q0 -166 -130 -235q-33 -17 -65 -17q-23 0 -38.5 16.5z" />
    <glyph glyph-name="K" unicode="K" horiz-adv-x="706" 
d="M60 7q-5 7 -5 18q0 17 12 26t33 9h25v575h-50q-10 0 -15 7t-5 19q0 16 12 25t33 9h189q14 0 14 -15q0 -12 -7 -19.5t-24 -11.5l-47 -13v-577l47 -13q32 -8 32 -31q0 -15 -14 -15h-215q-10 0 -15 7zM225 352l292 283h-64q-10 0 -15 7t-5 19q0 16 12 25t33 9h187
q16 0 16 -19q0 -11 -9 -19.5t-25 -12.5l-37 -8l-277 -270l283 -308l49 -13q34 -9 34 -30q0 -15 -14 -15h-153z" />
    <glyph glyph-name="Kcommaaccent" unicode="&#x136;" horiz-adv-x="706" 
d="M60 7q-5 7 -5 18q0 17 12 26t33 9h25v575h-50q-10 0 -15 7t-5 19q0 16 12 25t33 9h189q14 0 14 -15q0 -12 -7 -19.5t-24 -11.5l-47 -13v-577l47 -13q32 -8 32 -31q0 -15 -14 -15h-215q-10 0 -15 7zM225 352l292 283h-64q-10 0 -15 7t-5 19q0 16 12 25t33 9h187
q16 0 16 -19q0 -11 -9 -19.5t-25 -12.5l-37 -8l-277 -270l283 -308l49 -13q34 -9 34 -30q0 -15 -14 -15h-153zM283 -230q19 28 36 65.5t20 61.5l-28 9q-14 5 -14 18t8 20.5t21 7.5q3 0 13 -2l84 -19q-12 -47 -38.5 -98.5t-59.5 -88.5z" />
    <glyph glyph-name="L" unicode="L" horiz-adv-x="612" 
d="M55 20q0 16 11 26t35 14l27 5v570h-51q-10 0 -15 7t-5 19q0 16 12 25t33 9h196q14 0 14 -15q0 -23 -32 -31l-52 -13v-570h301l17 62q7 26 14.5 37.5t18.5 11.5q17 0 17 -17v-160h-525q-16 0 -16 20z" />
    <glyph glyph-name="Lacute" unicode="&#x139;" horiz-adv-x="612" 
d="M100 788l94 157l73 -47l-112 -146zM55 20q0 16 11 26t35 14l27 5v570h-51q-10 0 -15 7t-5 19q0 16 12 25t33 9h196q14 0 14 -15q0 -23 -32 -31l-52 -13v-570h301l17 62q7 26 14.5 37.5t18.5 11.5q17 0 17 -17v-160h-525q-16 0 -16 20z" />
    <glyph glyph-name="Lcaron" unicode="&#x13d;" horiz-adv-x="612" 
d="M380 521q19 28 36 65.5t20 61.5l-28 9q-14 5 -14 18t7.5 20.5t21.5 7.5q3 0 13 -2l84 -19q-12 -46 -38.5 -98t-59.5 -89zM55 20q0 16 11 26t35 14l27 5v570h-51q-10 0 -15 7t-5 19q0 16 12 25t33 9h196q14 0 14 -15q0 -23 -32 -31l-52 -13v-570h301l17 62q7 26 14.5 37.5
t18.5 11.5q17 0 17 -17v-160h-525q-16 0 -16 20z" />
    <glyph glyph-name="Lcommaaccent" unicode="&#x13b;" horiz-adv-x="612" 
d="M55 20q0 16 11 26t35 14l27 5v570h-51q-10 0 -15 7t-5 19q0 16 12 25t33 9h196q14 0 14 -15q0 -23 -32 -31l-52 -13v-570h301l17 62q7 26 14.5 37.5t18.5 11.5q17 0 17 -17v-160h-525q-16 0 -16 20zM280 -230q19 28 36 65.5t20 61.5l-28 9q-14 5 -14 18t8 20.5t21 7.5
q3 0 13 -2l84 -19q-12 -47 -38.5 -98.5t-59.5 -88.5z" />
    <glyph glyph-name="Ldot" unicode="&#x13f;" horiz-adv-x="612" 
d="M55 20q0 16 11 26t35 14l27 5v570h-51q-10 0 -15 7t-5 19q0 16 12 25t33 9h196q14 0 14 -15q0 -23 -32 -31l-52 -13v-570h301l17 62q7 26 14.5 37.5t18.5 11.5q17 0 17 -17v-160h-525q-16 0 -16 20zM402 339.5q-16 15.5 -16 39.5t16 40t39 16t39 -16t16 -40t-16 -39.5
t-39 -15.5t-39 15.5z" />
    <glyph glyph-name="uni1E36" unicode="&#x1e36;" horiz-adv-x="612" 
d="M55 20q0 16 11 26t35 14l27 5v570h-51q-10 0 -15 7t-5 19q0 16 12 25t33 9h196q14 0 14 -15q0 -23 -32 -31l-52 -13v-570h301l17 62q7 26 14.5 37.5t18.5 11.5q17 0 17 -17v-160h-525q-16 0 -16 20zM306 -161q-16 16 -16 40t16 39.5t39 15.5t39 -15.5t16 -39.5t-16 -40
t-39 -16t-39 16z" />
    <glyph glyph-name="uni1E38" unicode="&#x1e38;" horiz-adv-x="606" 
d="M34 847h287v-66h-287v66zM49 20q0 16 11 26t35 14l27 5v570h-51q-10 0 -15 7t-5 19q0 16 12 25t33 9h196q14 0 14 -15q0 -23 -32 -31l-52 -13v-570h301l17 62q7 26 14.5 37.5t18.5 11.5q17 0 17 -17v-160h-525q-16 0 -16 20zM300 -161q-16 16 -16 40t16 39.5t39 15.5
t39 -15.5t16 -39.5t-16 -40t-39 -16t-39 16z" />
    <glyph glyph-name="uni1E3A" unicode="&#x1e3a;" horiz-adv-x="612" 
d="M55 20q0 16 11 26t35 14l27 5v570h-51q-10 0 -15 7t-5 19q0 16 12 25t33 9h196q14 0 14 -15q0 -23 -32 -31l-52 -13v-570h301l17 62q7 26 14.5 37.5t18.5 11.5q17 0 17 -17v-160h-525q-16 0 -16 20zM126 -88h431v-65h-431v65z" />
    <glyph glyph-name="Lslash" unicode="&#x141;" horiz-adv-x="633" 
d="M76 20q0 31 46 40l27 5v206l-60 -37l-33 56l93 57v288h-50q-10 0 -15 7t-5 19q0 16 12 25t33 9h196q14 0 14 -15q0 -23 -32 -31l-53 -13v-227l130 80l32 -56l-162 -100v-267h301l17 62q8 27 15 38t18 11q17 0 17 -17v-160h-525q-16 0 -16 20z" />
    <glyph glyph-name="M" unicode="M" horiz-adv-x="1050" 
d="M29 7q-5 7 -5 18q0 17 12 26t33 9h26l113 570l-28 5q-23 5 -34 14t-11 25q0 21 16 21h202l149 -503q8 -29 14 -69t7 -52h5q1 12 6.5 52t13.5 69l139 503h202q7 0 12 -5t5 -16q0 -16 -11 -25.5t-35 -13.5l-27 -5l124 -570l41 -11q17 -4 24.5 -11.5t7.5 -19.5
q0 -18 -13 -18h-224q-10 0 -15 7t-5 18q0 17 12 26t33 9h41l-106 496q-4 18 -6.5 40.5t-2.5 29.5h-5q-1 -7 -5.5 -30t-9.5 -40l-153 -556h-113l-165 556q-6 18 -10 40.5t-5 29.5h-5q0 -7 -2 -29.5t-6 -40.5l-95 -497l56 -14q18 -4 26 -11t8 -18q0 -16 -13 -16h-203
q-10 0 -15 7z" />
    <glyph glyph-name="uni1E42" unicode="&#x1e42;" horiz-adv-x="1050" 
d="M29 7q-5 7 -5 18q0 17 12 26t33 9h26l113 570l-28 5q-23 5 -34 14t-11 25q0 21 16 21h202l149 -503q8 -29 14 -69t7 -52h5q1 12 6.5 52t13.5 69l139 503h202q7 0 12 -5t5 -16q0 -16 -11 -25.5t-35 -13.5l-27 -5l124 -570l41 -11q17 -4 24.5 -11.5t7.5 -19.5
q0 -18 -13 -18h-224q-10 0 -15 7t-5 18q0 17 12 26t33 9h41l-106 496q-4 18 -6.5 40.5t-2.5 29.5h-5q-1 -7 -5.5 -30t-9.5 -40l-153 -556h-113l-165 556q-6 18 -10 40.5t-5 29.5h-5q0 -7 -2 -29.5t-6 -40.5l-95 -497l56 -14q18 -4 26 -11t8 -18q0 -16 -13 -16h-203
q-10 0 -15 7zM476 -161q-16 16 -16 40t16 39.5t39 15.5t39 -15.5t16 -39.5t-16 -40t-39 -16t-39 16z" />
    <glyph glyph-name="N" unicode="N" horiz-adv-x="798" 
d="M60 7q-5 7 -5 18q0 17 12 26t33 9h26v570l-27 7q-24 6 -34 14t-10 23q0 11 5 16t12 5h146l319 -460q32 -46 57 -109v509h-59q-10 0 -15 7t-5 19q0 16 12 25t33 9h172q14 0 14 -15q0 -10 -9.5 -18t-25.5 -13l-40 -13v-636h-93l-328 473q-26 38 -48 95v-509l52 -14
q32 -9 32 -30q0 -15 -14 -15h-197q-10 0 -15 7z" />
    <glyph glyph-name="Nacute" unicode="&#x143;" horiz-adv-x="798" 
d="M324 788l94 157l73 -47l-112 -146zM60 7q-5 7 -5 18q0 17 12 26t33 9h26v570l-27 7q-24 6 -34 14t-10 23q0 11 5 16t12 5h146l319 -460q32 -46 57 -109v509h-59q-10 0 -15 7t-5 19q0 16 12 25t33 9h172q14 0 14 -15q0 -10 -9.5 -18t-25.5 -13l-40 -13v-636h-93l-328 473
q-26 38 -48 95v-509l52 -14q32 -9 32 -30q0 -15 -14 -15h-197q-10 0 -15 7z" />
    <glyph glyph-name="Ncaron" unicode="&#x147;" horiz-adv-x="798" 
d="M259 895l44 37l92 -102l93 102l44 -37l-112 -143h-49zM60 7q-5 7 -5 18q0 17 12 26t33 9h26v570l-27 7q-24 6 -34 14t-10 23q0 11 5 16t12 5h146l319 -460q32 -46 57 -109v509h-59q-10 0 -15 7t-5 19q0 16 12 25t33 9h172q14 0 14 -15q0 -10 -9.5 -18t-25.5 -13l-40 -13
v-636h-93l-328 473q-26 38 -48 95v-509l52 -14q32 -9 32 -30q0 -15 -14 -15h-197q-10 0 -15 7z" />
    <glyph glyph-name="Ncommaaccent" unicode="&#x145;" horiz-adv-x="798" 
d="M60 7q-5 7 -5 18q0 17 12 26t33 9h26v570l-27 7q-24 6 -34 14t-10 23q0 11 5 16t12 5h146l319 -460q32 -46 57 -109v509h-59q-10 0 -15 7t-5 19q0 16 12 25t33 9h172q14 0 14 -15q0 -10 -9.5 -18t-25.5 -13l-40 -13v-636h-93l-328 473q-26 38 -48 95v-509l52 -14
q32 -9 32 -30q0 -15 -14 -15h-197q-10 0 -15 7zM327 -230q19 28 36 65.5t20 61.5l-28 9q-14 5 -14 18t8 20.5t21 7.5q3 0 13 -2l84 -19q-12 -47 -38.5 -98.5t-59.5 -88.5z" />
    <glyph glyph-name="uni1E44" unicode="&#x1e44;" horiz-adv-x="798" 
d="M359 785q-16 16 -16 39q0 24 16 40t39 16t39 -16t16 -40q0 -23 -16 -39t-39 -16t-39 16zM60 7q-5 7 -5 18q0 17 12 26t33 9h26v570l-27 7q-24 6 -34 14t-10 23q0 11 5 16t12 5h146l319 -460q32 -46 57 -109v509h-59q-10 0 -15 7t-5 19q0 16 12 25t33 9h172q14 0 14 -15
q0 -10 -9.5 -18t-25.5 -13l-40 -13v-636h-93l-328 473q-26 38 -48 95v-509l52 -14q32 -9 32 -30q0 -15 -14 -15h-197q-10 0 -15 7z" />
    <glyph glyph-name="uni1E46" unicode="&#x1e46;" horiz-adv-x="798" 
d="M60 7q-5 7 -5 18q0 17 12 26t33 9h26v570l-27 7q-24 6 -34 14t-10 23q0 11 5 16t12 5h146l319 -460q32 -46 57 -109v509h-59q-10 0 -15 7t-5 19q0 16 12 25t33 9h172q14 0 14 -15q0 -10 -9.5 -18t-25.5 -13l-40 -13v-636h-93l-328 473q-26 38 -48 95v-509l52 -14
q32 -9 32 -30q0 -15 -14 -15h-197q-10 0 -15 7zM366 -161q-16 16 -16 40t16 39.5t39 15.5t39 -15.5t16 -39.5t-16 -40t-39 -16t-39 16z" />
    <glyph glyph-name="Eng" unicode="&#x14a;" horiz-adv-x="799" 
d="M452 -167q63 12 94.5 46t31.5 98v23l-328 473q-24 36 -48 89v-503l52 -14q17 -5 24.5 -12t7.5 -18q0 -8 -3 -11.5t-11 -3.5h-196q-10 0 -15.5 7t-5.5 18q0 17 12.5 26t33.5 9h25v570l-27 6q-24 5 -34 14t-10 24q0 11 5 16t12 5h146l319 -460q31 -44 57 -104v504h-58
q-10 0 -15 7t-5 19q0 16 12 25t33 9h172q14 0 14 -15q0 -10 -10 -18.5t-26 -13.5l-40 -12v-656q0 -93 -59 -143.5t-139 -61.5z" />
    <glyph glyph-name="uni1E48" unicode="&#x1e48;" horiz-adv-x="798" 
d="M60 7q-5 7 -5 18q0 17 12 26t33 9h26v570l-27 7q-24 6 -34 14t-10 23q0 11 5 16t12 5h146l319 -460q32 -46 57 -109v509h-59q-10 0 -15 7t-5 19q0 16 12 25t33 9h172q14 0 14 -15q0 -10 -9.5 -18t-25.5 -13l-40 -13v-636h-93l-328 473q-26 38 -48 95v-509l52 -14
q32 -9 32 -30q0 -15 -14 -15h-197q-10 0 -15 7zM208 -88h388v-65h-388v65z" />
    <glyph glyph-name="Ntilde" unicode="&#xd1;" horiz-adv-x="798" 
d="M423.5 767.5q-13.5 4.5 -33.5 14.5q-20 9 -32 13.5t-26 4.5q-17 0 -32 -6.5t-33 -19.5l-33 46q23 21 49.5 34.5t49.5 13.5q14 0 26.5 -4.5t35.5 -14.5q20 -9 31.5 -13.5t24.5 -4.5q30 0 63 25l34 -46q-22 -22 -47.5 -34.5t-48.5 -12.5q-15 0 -28.5 4.5zM60 7q-5 7 -5 18
q0 17 12 26t33 9h26v570l-27 7q-24 6 -34 14t-10 23q0 11 5 16t12 5h146l319 -460q32 -46 57 -109v509h-59q-10 0 -15 7t-5 19q0 16 12 25t33 9h172q14 0 14 -15q0 -10 -9.5 -18t-25.5 -13l-40 -13v-636h-93l-328 473q-26 38 -48 95v-509l52 -14q32 -9 32 -30q0 -15 -14 -15
h-197q-10 0 -15 7z" />
    <glyph glyph-name="O" unicode="O" horiz-adv-x="745" 
d="M203.5 26.5q-73.5 39.5 -115 120.5t-41.5 200t41.5 200t115 121t169.5 40t169.5 -40t115 -121t41.5 -200t-41.5 -200t-115 -120.5t-169.5 -39.5t-169.5 39.5zM539 129q58 76 58 218q0 141 -58 218t-167 77t-166.5 -77t-57.5 -218q0 -142 57.5 -218t166.5 -76t167 76z" />
    <glyph glyph-name="Oacute" unicode="&#xd3;" horiz-adv-x="745" 
d="M297 788l94 157l73 -47l-112 -146zM203.5 26.5q-73.5 39.5 -115 120.5t-41.5 200t41.5 200t115 121t169.5 40t169.5 -40t115 -121t41.5 -200t-41.5 -200t-115 -120.5t-169.5 -39.5t-169.5 39.5zM539 129q58 76 58 218q0 141 -58 218t-167 77t-166.5 -77t-57.5 -218
q0 -142 57.5 -218t166.5 -76t167 76z" />
    <glyph glyph-name="Obreve" unicode="&#x14e;" horiz-adv-x="745" 
d="M277.5 778q-41.5 31 -59.5 96l54 19q12 -38 38 -59t62 -21q37 0 63 21.5t37 58.5l55 -19q-18 -65 -59.5 -96t-95.5 -31q-53 0 -94.5 31zM203.5 26.5q-73.5 39.5 -115 120.5t-41.5 200t41.5 200t115 121t169.5 40t169.5 -40t115 -121t41.5 -200t-41.5 -200t-115 -120.5
t-169.5 -39.5t-169.5 39.5zM539 129q58 76 58 218q0 141 -58 218t-167 77t-166.5 -77t-57.5 -218q0 -142 57.5 -218t166.5 -76t167 76z" />
    <glyph glyph-name="uni01D1" unicode="&#x1d1;" horiz-adv-x="745" 
d="M237 895l44 37l92 -102l93 102l44 -37l-112 -143h-49zM203.5 26.5q-73.5 39.5 -115 120.5t-41.5 200t41.5 200t115 121t169.5 40t169.5 -40t115 -121t41.5 -200t-41.5 -200t-115 -120.5t-169.5 -39.5t-169.5 39.5zM539 129q58 76 58 218q0 141 -58 218t-167 77
t-166.5 -77t-57.5 -218q0 -142 57.5 -218t166.5 -76t167 76z" />
    <glyph glyph-name="Ocircumflex" unicode="&#xd4;" horiz-adv-x="745" 
d="M236 789l112 143h49l112 -143l-44 -37l-93 102l-92 -102zM203.5 26.5q-73.5 39.5 -115 120.5t-41.5 200t41.5 200t115 121t169.5 40t169.5 -40t115 -121t41.5 -200t-41.5 -200t-115 -120.5t-169.5 -39.5t-169.5 39.5zM539 129q58 76 58 218q0 141 -58 218t-167 77
t-166.5 -77t-57.5 -218q0 -142 57.5 -218t166.5 -76t167 76z" />
    <glyph glyph-name="uni1ED0" unicode="&#x1ed0;" horiz-adv-x="745" 
d="M471 890l65 115l65 -42l-86 -102zM236 789l112 143h49l112 -143l-44 -37l-93 102l-92 -102zM203.5 26.5q-73.5 39.5 -115 120.5t-41.5 200t41.5 200t115 121t169.5 40t169.5 -40t115 -121t41.5 -200t-41.5 -200t-115 -120.5t-169.5 -39.5t-169.5 39.5zM539 129
q58 76 58 218q0 141 -58 218t-167 77t-166.5 -77t-57.5 -218q0 -142 57.5 -218t166.5 -76t167 76z" />
    <glyph glyph-name="uni1ED8" unicode="&#x1ed8;" horiz-adv-x="745" 
d="M236 789l112 143h49l112 -143l-44 -37l-93 102l-92 -102zM203.5 26.5q-73.5 39.5 -115 120.5t-41.5 200t41.5 200t115 121t169.5 40t169.5 -40t115 -121t41.5 -200t-41.5 -200t-115 -120.5t-169.5 -39.5t-169.5 39.5zM539 129q58 76 58 218q0 141 -58 218t-167 77
t-166.5 -77t-57.5 -218q0 -142 57.5 -218t166.5 -76t167 76zM334 -161q-16 16 -16 40t16 39.5t39 15.5t39 -15.5t16 -39.5t-16 -40t-39 -16t-39 16z" />
    <glyph glyph-name="uni1ED2" unicode="&#x1ed2;" horiz-adv-x="745" 
d="M147 963l65 42l65 -115l-44 -29zM240 789l112 143h49l112 -143l-44 -37l-93 102l-92 -102zM203.5 26.5q-73.5 39.5 -115 120.5t-41.5 200t41.5 200t115 121t169.5 40t169.5 -40t115 -121t41.5 -200t-41.5 -200t-115 -120.5t-169.5 -39.5t-169.5 39.5zM539 129
q58 76 58 218q0 141 -58 218t-167 77t-166.5 -77t-57.5 -218q0 -142 57.5 -218t166.5 -76t167 76z" />
    <glyph glyph-name="uni1ED4" unicode="&#x1ed4;" horiz-adv-x="745" 
d="M505 924q54 19 54 50q0 28 -32 28q-18 0 -49 -9l-7 37q13 6 31 10t34 4q39 0 62.5 -19.5t23.5 -50.5q0 -24 -16 -42.5t-44 -29.5l-6 -45h-46zM241 789l112 143h49l112 -143l-44 -37l-93 102l-92 -102zM203.5 26.5q-73.5 39.5 -115 120.5t-41.5 200t41.5 200t115 121
t169.5 40t169.5 -40t115 -121t41.5 -200t-41.5 -200t-115 -120.5t-169.5 -39.5t-169.5 39.5zM539 129q58 76 58 218q0 141 -58 218t-167 77t-166.5 -77t-57.5 -218q0 -142 57.5 -218t166.5 -76t167 76z" />
    <glyph glyph-name="uni1ED6" unicode="&#x1ed6;" horiz-adv-x="745" 
d="M396 933.5q-13 4.5 -24 10.5q-28 15 -45 15q-24 0 -50 -21l-27 42q19 16 39.5 26.5t37.5 10.5q15 0 30.5 -7t18.5 -8q11 -5 22.5 -9.5t21.5 -4.5q24 0 49 20l27 -41q-38 -38 -75 -38q-12 0 -25 4.5zM277.5 778q-41.5 31 -59.5 96l54 19q12 -38 38 -59t62 -21
q37 0 63 21.5t37 58.5l55 -19q-18 -65 -59.5 -96t-95.5 -31q-53 0 -94.5 31zM203.5 26.5q-73.5 39.5 -115 120.5t-41.5 200t41.5 200t115 121t169.5 40t169.5 -40t115 -121t41.5 -200t-41.5 -200t-115 -120.5t-169.5 -39.5t-169.5 39.5zM539 129q58 76 58 218q0 141 -58 218
t-167 77t-166.5 -77t-57.5 -218q0 -142 57.5 -218t166.5 -76t167 76z" />
    <glyph glyph-name="Odieresis" unicode="&#xd6;" horiz-adv-x="745" 
d="M235 778.5q-16 15.5 -16 39.5t16 39.5t39 15.5q22 0 38.5 -16t16.5 -39t-16.5 -39t-38.5 -16q-23 0 -39 15.5zM433 778.5q-16 15.5 -16 39.5t16 39.5t39 15.5q22 0 38.5 -16t16.5 -39t-16.5 -39t-38.5 -16q-23 0 -39 15.5zM203.5 26.5q-73.5 39.5 -115 120.5t-41.5 200
t41.5 200t115 121t169.5 40t169.5 -40t115 -121t41.5 -200t-41.5 -200t-115 -120.5t-169.5 -39.5t-169.5 39.5zM539 129q58 76 58 218q0 141 -58 218t-167 77t-166.5 -77t-57.5 -218q0 -142 57.5 -218t166.5 -76t167 76z" />
    <glyph glyph-name="uni1ECC" unicode="&#x1ecc;" horiz-adv-x="745" 
d="M203.5 26.5q-73.5 39.5 -115 120.5t-41.5 200t41.5 200t115 121t169.5 40t169.5 -40t115 -121t41.5 -200t-41.5 -200t-115 -120.5t-169.5 -39.5t-169.5 39.5zM539 129q58 76 58 218q0 141 -58 218t-167 77t-166.5 -77t-57.5 -218q0 -142 57.5 -218t166.5 -76t167 76z
M334 -161q-16 16 -16 40t16 39.5t39 15.5t39 -15.5t16 -39.5t-16 -40t-39 -16t-39 16z" />
    <glyph glyph-name="Ograve" unicode="&#xd2;" horiz-adv-x="745" 
d="M265 899l73 47l94 -157l-55 -36zM203.5 26.5q-73.5 39.5 -115 120.5t-41.5 200t41.5 200t115 121t169.5 40t169.5 -40t115 -121t41.5 -200t-41.5 -200t-115 -120.5t-169.5 -39.5t-169.5 39.5zM539 129q58 76 58 218q0 141 -58 218t-167 77t-166.5 -77t-57.5 -218
q0 -142 57.5 -218t166.5 -76t167 76z" />
    <glyph glyph-name="uni1ECE" unicode="&#x1ece;" horiz-adv-x="745" 
d="M349 819q56 19 56 51q0 29 -33 29q-20 0 -51 -9l-7 38q14 6 32.5 10.5t34.5 4.5q39 0 64 -20.5t25 -51.5q0 -25 -16.5 -44.5t-46.5 -30.5l-6 -46h-46zM203.5 26.5q-73.5 39.5 -115 120.5t-41.5 200t41.5 200t115 121t169.5 40t169.5 -40t115 -121t41.5 -200t-41.5 -200
t-115 -120.5t-169.5 -39.5t-169.5 39.5zM539 129q58 76 58 218q0 141 -58 218t-167 77t-166.5 -77t-57.5 -218q0 -142 57.5 -218t166.5 -76t167 76z" />
    <glyph glyph-name="Ohorn" unicode="&#x1a0;" horiz-adv-x="778" 
d="M203.5 26.5q-73.5 39.5 -115 120.5t-41.5 200t41.5 200t115 121t169.5 40q125 0 209 -69q60 37 60 127h101q0 -110 -112 -175q68 -92 68 -244q0 -119 -41.5 -200t-115 -120.5t-169.5 -39.5t-169.5 39.5zM539 129q58 76 58 218q0 141 -58 218t-167 77t-166.5 -77
t-57.5 -218q0 -142 57.5 -218t166.5 -76t167 76z" />
    <glyph glyph-name="uni1EDA" unicode="&#x1eda;" horiz-adv-x="778" 
d="M289 788l94 157l73 -47l-112 -146zM203.5 26.5q-73.5 39.5 -115 120.5t-41.5 200t41.5 200t115 121t169.5 40q125 0 209 -69q60 37 60 127h101q0 -110 -112 -175q68 -92 68 -244q0 -119 -41.5 -200t-115 -120.5t-169.5 -39.5t-169.5 39.5zM539 129q58 76 58 218
q0 141 -58 218t-167 77t-166.5 -77t-57.5 -218q0 -142 57.5 -218t166.5 -76t167 76z" />
    <glyph glyph-name="uni1EE2" unicode="&#x1ee2;" horiz-adv-x="778" 
d="M203.5 26.5q-73.5 39.5 -115 120.5t-41.5 200t41.5 200t115 121t169.5 40q125 0 209 -69q60 37 60 127h101q0 -110 -112 -175q68 -92 68 -244q0 -119 -41.5 -200t-115 -120.5t-169.5 -39.5t-169.5 39.5zM539 129q58 76 58 218q0 141 -58 218t-167 77t-166.5 -77
t-57.5 -218q0 -142 57.5 -218t166.5 -76t167 76zM337 -161q-16 16 -16 40t16 39.5t39 15.5t39 -15.5t16 -39.5t-16 -40t-39 -16t-39 16z" />
    <glyph glyph-name="uni1EDC" unicode="&#x1edc;" horiz-adv-x="778" 
d="M276 899l73 47l94 -157l-55 -36zM203.5 26.5q-73.5 39.5 -115 120.5t-41.5 200t41.5 200t115 121t169.5 40q125 0 209 -69q60 37 60 127h101q0 -110 -112 -175q68 -92 68 -244q0 -119 -41.5 -200t-115 -120.5t-169.5 -39.5t-169.5 39.5zM539 129q58 76 58 218
q0 141 -58 218t-167 77t-166.5 -77t-57.5 -218q0 -142 57.5 -218t166.5 -76t167 76z" />
    <glyph glyph-name="uni1EDE" unicode="&#x1ede;" horiz-adv-x="778" 
d="M344 819q56 19 56 51q0 29 -33 29q-20 0 -51 -9l-7 38q14 6 32.5 10.5t34.5 4.5q39 0 64 -20.5t25 -51.5q0 -25 -16.5 -44.5t-46.5 -30.5l-6 -46h-46zM203.5 26.5q-73.5 39.5 -115 120.5t-41.5 200t41.5 200t115 121t169.5 40q125 0 209 -69q60 37 60 127h101
q0 -110 -112 -175q68 -92 68 -244q0 -119 -41.5 -200t-115 -120.5t-169.5 -39.5t-169.5 39.5zM539 129q58 76 58 218q0 141 -58 218t-167 77t-166.5 -77t-57.5 -218q0 -142 57.5 -218t166.5 -76t167 76z" />
    <glyph glyph-name="uni1EE0" unicode="&#x1ee0;" horiz-adv-x="778" 
d="M403.5 767.5q-13.5 4.5 -33.5 14.5q-20 9 -32 13.5t-26 4.5q-17 0 -32 -6.5t-33 -19.5l-33 46q23 21 49.5 34.5t49.5 13.5q14 0 26.5 -4.5t35.5 -14.5q20 -9 31.5 -13.5t24.5 -4.5q30 0 63 25l34 -46q-22 -22 -47.5 -34.5t-48.5 -12.5q-15 0 -28.5 4.5zM203.5 26.5
q-73.5 39.5 -115 120.5t-41.5 200t41.5 200t115 121t169.5 40q125 0 209 -69q60 37 60 127h101q0 -110 -112 -175q68 -92 68 -244q0 -119 -41.5 -200t-115 -120.5t-169.5 -39.5t-169.5 39.5zM539 129q58 76 58 218q0 141 -58 218t-167 77t-166.5 -77t-57.5 -218
q0 -142 57.5 -218t166.5 -76t167 76z" />
    <glyph glyph-name="Ohungarumlaut" unicode="&#x150;" horiz-adv-x="745" 
d="M245 793l118 186l62 -38l-138 -177zM428 793l118 186l62 -38l-138 -177zM203.5 26.5q-73.5 39.5 -115 120.5t-41.5 200t41.5 200t115 121t169.5 40t169.5 -40t115 -121t41.5 -200t-41.5 -200t-115 -120.5t-169.5 -39.5t-169.5 39.5zM539 129q58 76 58 218q0 141 -58 218
t-167 77t-166.5 -77t-57.5 -218q0 -142 57.5 -218t166.5 -76t167 76z" />
    <glyph glyph-name="Omacron" unicode="&#x14c;" horiz-adv-x="745" 
d="M229 847h287v-66h-287v66zM203.5 26.5q-73.5 39.5 -115 120.5t-41.5 200t41.5 200t115 121t169.5 40t169.5 -40t115 -121t41.5 -200t-41.5 -200t-115 -120.5t-169.5 -39.5t-169.5 39.5zM539 129q58 76 58 218q0 141 -58 218t-167 77t-166.5 -77t-57.5 -218
q0 -142 57.5 -218t166.5 -76t167 76z" />
    <glyph glyph-name="Oslash" unicode="&#xd8;" horiz-adv-x="756" 
d="M84 -56l75 117q-107 94 -107 286q0 119 41.5 200t115 121t169.5 40q99 0 171 -41l55 85l60 -33l-60 -93q48 -45 74 -115.5t26 -163.5q0 -119 -41.5 -200t-115 -120.5t-169.5 -39.5q-91 0 -162 36l-73 -113zM507 602q-52 40 -130 40q-109 0 -166.5 -77t-57.5 -218
q0 -138 54 -213zM544 129q58 76 58 218q0 128 -47 202l-299 -463q49 -33 121 -33q109 0 167 76z" />
    <glyph glyph-name="Oslashacute" unicode="&#x1fe;" horiz-adv-x="756" 
d="M305 788l94 157l73 -47l-112 -146zM84 -56l75 117q-107 94 -107 286q0 119 41.5 200t115 121t169.5 40q99 0 171 -41l55 85l60 -33l-60 -93q48 -45 74 -115.5t26 -163.5q0 -119 -41.5 -200t-115 -120.5t-169.5 -39.5q-91 0 -162 36l-73 -113zM507 602q-52 40 -130 40
q-109 0 -166.5 -77t-57.5 -218q0 -138 54 -213zM544 129q58 76 58 218q0 128 -47 202l-299 -463q49 -33 121 -33q109 0 167 76z" />
    <glyph glyph-name="Otilde" unicode="&#xd5;" horiz-adv-x="745" 
d="M405.5 767.5q-13.5 4.5 -33.5 14.5q-20 9 -32 13.5t-26 4.5q-17 0 -32 -6.5t-33 -19.5l-33 46q23 21 49.5 34.5t49.5 13.5q14 0 26.5 -4.5t35.5 -14.5q20 -9 31.5 -13.5t24.5 -4.5q30 0 63 25l34 -46q-22 -22 -47.5 -34.5t-48.5 -12.5q-15 0 -28.5 4.5zM203.5 26.5
q-73.5 39.5 -115 120.5t-41.5 200t41.5 200t115 121t169.5 40t169.5 -40t115 -121t41.5 -200t-41.5 -200t-115 -120.5t-169.5 -39.5t-169.5 39.5zM539 129q58 76 58 218q0 141 -58 218t-167 77t-166.5 -77t-57.5 -218q0 -142 57.5 -218t166.5 -76t167 76z" />
    <glyph glyph-name="OE" unicode="&#x152;" horiz-adv-x="1085" 
d="M226.5 25.5q-82.5 38.5 -131 119.5t-48.5 203q0 115 45 196.5t121.5 122.5t169.5 41q56 0 106 -13h515v-140q0 -17 -17 -17q-11 0 -19 12t-14 38l-10 43h-322v-244h264l13 43q10 30 26 30t16 -15v-179q0 -15 -16 -15q-17 0 -26 30l-13 43h-264v-260h336l9 46q10 49 34 49
q17 0 17 -17v-142h-471q-68 -13 -133 -13q-105 0 -187.5 38.5zM522 65v564q-51 13 -110 13q-120 0 -192 -74t-72 -220q0 -94 33 -160.5t91.5 -100.5t133.5 -34q64 0 116 12z" />
    <glyph glyph-name="P" unicode="P" horiz-adv-x="631" 
d="M62 7q-5 7 -5 18q0 17 12 26t33 9h26v570l-27 6q-24 5 -35 14t-11 25q0 20 16 20h302q105 0 168.5 -54.5t63.5 -152.5q0 -97 -63.5 -151.5t-168.5 -54.5h-145v-223l47 -13q20 -5 28.5 -12.5t8.5 -18.5q0 -15 -14 -15h-221q-10 0 -15 7zM366 348q66 0 102.5 38.5
t36.5 101.5q0 64 -36.5 102.5t-102.5 38.5h-138v-281h138z" />
    <glyph glyph-name="Thorn" unicode="&#xde;" horiz-adv-x="683" 
d="M60 7q-5 7 -5 18q0 17 12 26t33 9h25v575h-50q-10 0 -15 7t-5 19q0 16 12 25t33 9h190q14 0 14 -15q0 -22 -32 -31l-47 -13v-79q64 20 136 20q120 0 195 -57t75 -168t-75 -168t-195 -57q-72 0 -136 20v-88l47 -13q32 -8 32 -31q0 -15 -14 -15h-215q-10 0 -15 7z
M486.5 233q44.5 41 44.5 119t-44.5 119.5t-125.5 41.5q-66 0 -136 -22v-277q70 -22 136 -22q81 0 125.5 41z" />
    <glyph glyph-name="Q" unicode="Q" horiz-adv-x="745" 
d="M408 -90q-39 34 -75 79q-131 12 -208.5 102.5t-77.5 255.5q0 119 41.5 200t115 121t169.5 40t169.5 -40t115 -121t41.5 -200q0 -165 -77.5 -255.5t-208.5 -102.5q14 -11 44 -29q43 -24 91 -39q23 -7 33 -15t10 -24q0 -19 -12.5 -29.5t-34.5 -10.5q-59 0 -136 68zM539 129
q58 76 58 218q0 141 -58 218t-167 77t-166.5 -77t-57.5 -218q0 -142 57.5 -218t166.5 -76t167 76z" />
    <glyph glyph-name="R" unicode="R" horiz-adv-x="688" 
d="M62 7q-5 7 -5 18q0 17 12 26t33 9h26v573l-27 7q-25 7 -35.5 14t-10.5 21q0 20 16 20h300q107 0 169 -48t62 -143t-62 -141.5t-169 -46.5h-22l239 -258l50 -13q33 -9 33 -30q0 -15 -14 -15h-153l-276 315v-256l46 -13q17 -5 24.5 -12.5t7.5 -18.5q0 -15 -14 -15h-215
q-10 0 -15 7zM364 376q67 0 102 33t35 95t-35.5 95.5t-101.5 33.5h-136v-257h136z" />
    <glyph glyph-name="Racute" unicode="&#x154;" horiz-adv-x="688" 
d="M258 789l94 157l73 -47l-112 -146zM62 7q-5 7 -5 18q0 17 12 26t33 9h26v573l-27 7q-25 7 -35.5 14t-10.5 21q0 20 16 20h300q107 0 169 -48t62 -143t-62 -141.5t-169 -46.5h-22l239 -258l50 -13q33 -9 33 -30q0 -15 -14 -15h-153l-276 315v-256l46 -13q17 -5 24.5 -12.5
t7.5 -18.5q0 -15 -14 -15h-215q-10 0 -15 7zM364 376q67 0 102 33t35 95t-35.5 95.5t-101.5 33.5h-136v-257h136z" />
    <glyph glyph-name="Rcaron" unicode="&#x158;" horiz-adv-x="688" 
d="M178 895l44 37l92 -102l93 102l44 -37l-112 -143h-49zM62 7q-5 7 -5 18q0 17 12 26t33 9h26v573l-27 7q-25 7 -35.5 14t-10.5 21q0 20 16 20h300q107 0 169 -48t62 -143t-62 -141.5t-169 -46.5h-22l239 -258l50 -13q33 -9 33 -30q0 -15 -14 -15h-153l-276 315v-256
l46 -13q17 -5 24.5 -12.5t7.5 -18.5q0 -15 -14 -15h-215q-10 0 -15 7zM364 376q67 0 102 33t35 95t-35.5 95.5t-101.5 33.5h-136v-257h136z" />
    <glyph glyph-name="Rcommaaccent" unicode="&#x156;" horiz-adv-x="688" 
d="M62 7q-5 7 -5 18q0 17 12 26t33 9h26v573l-27 7q-25 7 -35.5 14t-10.5 21q0 20 16 20h300q107 0 169 -48t62 -143t-62 -141.5t-169 -46.5h-22l239 -258l50 -13q33 -9 33 -30q0 -15 -14 -15h-153l-276 315v-256l46 -13q17 -5 24.5 -12.5t7.5 -18.5q0 -15 -14 -15h-215
q-10 0 -15 7zM364 376q67 0 102 33t35 95t-35.5 95.5t-101.5 33.5h-136v-257h136zM279 -230q19 28 36 65.5t20 61.5l-28 9q-14 5 -14 18t8 20.5t21 7.5q3 0 13 -2l84 -19q-12 -47 -38.5 -98.5t-59.5 -88.5z" />
    <glyph glyph-name="uni1E5A" unicode="&#x1e5a;" horiz-adv-x="688" 
d="M62 7q-5 7 -5 18q0 17 12 26t33 9h26v573l-27 6q-24 6 -35 14t-11 22q0 20 16 20h300q107 0 169 -48t62 -143t-62 -141.5t-169 -46.5h-22l239 -258l50 -13q33 -9 33 -30q0 -15 -14 -15h-153l-276 315v-256l46 -13q17 -5 24.5 -12.5t7.5 -18.5q0 -15 -14 -15h-215
q-10 0 -15 7zM364 376q67 0 102 33t35 95t-35.5 95.5t-101.5 33.5h-136v-257h136zM310 -161q-16 16 -16 40t16 39.5t39 15.5t39 -15.5t16 -39.5t-16 -40t-39 -16t-39 16z" />
    <glyph glyph-name="uni1E5C" unicode="&#x1e5c;" horiz-adv-x="688" 
d="M188 847h287v-66h-287v66zM62 7q-5 7 -5 18q0 17 12 26t33 9h26v573l-27 6q-24 6 -35 14t-11 22q0 20 16 20h300q107 0 169 -48t62 -143t-62 -141.5t-169 -46.5h-22l239 -258l50 -13q33 -9 33 -30q0 -15 -14 -15h-153l-276 315v-256l46 -13q17 -5 24.5 -12.5t7.5 -18.5
q0 -15 -14 -15h-215q-10 0 -15 7zM364 376q67 0 102 33t35 95t-35.5 95.5t-101.5 33.5h-136v-257h136zM310 -161q-16 16 -16 40t16 39.5t39 15.5t39 -15.5t16 -39.5t-16 -40t-39 -16t-39 16z" />
    <glyph glyph-name="uni1E5E" unicode="&#x1e5e;" horiz-adv-x="688" 
d="M62 7q-5 7 -5 18q0 17 12 26t33 9h26v573l-27 6q-25 8 -35.5 15t-10.5 21q0 20 16 20h300q107 0 169 -48t62 -143t-62 -141.5t-169 -46.5h-22l239 -258l50 -13q33 -9 33 -30q0 -15 -14 -15h-153l-276 315v-256l46 -13q17 -5 24.5 -12.5t7.5 -18.5q0 -15 -14 -15h-215
q-10 0 -15 7zM364 376q67 0 102 33t35 95t-35.5 95.5t-101.5 33.5h-136v-257h136zM165 -88h388v-65h-388v65z" />
    <glyph glyph-name="S" unicode="S" horiz-adv-x="596" 
d="M160.5 5q-70.5 18 -111.5 47v136q0 17 18 17q14 0 22 -10.5t15 -38.5l15 -62q26 -19 72 -30t91 -11q70 0 117.5 25t47.5 81q0 37 -17.5 62t-55 46t-110.5 51q-103 43 -157.5 90.5t-54.5 122.5q0 88 68 132.5t166 44.5q63 0 124.5 -19.5t101.5 -51.5v-129q0 -7 -4.5 -12
t-12.5 -5q-14 0 -22.5 10.5t-15.5 39.5l-15 61q-27 19 -65.5 29.5t-83.5 10.5q-61 0 -100.5 -24.5t-39.5 -74.5q0 -33 19.5 -56.5t53.5 -42t102 -48.5l21 -9q68 -29 110 -57t65.5 -66.5t23.5 -94.5q0 -92 -72 -137t-185 -45q-60 0 -130.5 18z" />
    <glyph glyph-name="Sacute" unicode="&#x15a;" horiz-adv-x="596" 
d="M212 788l94 157l73 -47l-112 -146zM160.5 5q-70.5 18 -111.5 47v136q0 17 18 17q14 0 22 -10.5t15 -38.5l15 -62q26 -19 72 -30t91 -11q70 0 117.5 25t47.5 81q0 37 -17.5 62t-55 46t-110.5 51q-103 43 -157.5 90.5t-54.5 122.5q0 88 68 132.5t166 44.5q63 0 124.5 -19.5
t101.5 -51.5v-129q0 -7 -4.5 -12t-12.5 -5q-14 0 -22.5 10.5t-15.5 39.5l-15 61q-27 19 -65.5 29.5t-83.5 10.5q-61 0 -100.5 -24.5t-39.5 -74.5q0 -33 19.5 -56.5t53.5 -42t102 -48.5l21 -9q68 -29 110 -57t65.5 -66.5t23.5 -94.5q0 -92 -72 -137t-185 -45q-60 0 -130.5 18
z" />
    <glyph glyph-name="Scaron" unicode="&#x160;" horiz-adv-x="596" 
d="M151 895l44 37l92 -102l93 102l44 -37l-112 -143h-49zM160.5 5q-70.5 18 -111.5 47v136q0 17 18 17q14 0 22 -10.5t15 -38.5l15 -62q26 -19 72 -30t91 -11q70 0 117.5 25t47.5 81q0 37 -17.5 62t-55 46t-110.5 51q-103 43 -157.5 90.5t-54.5 122.5q0 88 68 132.5
t166 44.5q63 0 124.5 -19.5t101.5 -51.5v-129q0 -7 -4.5 -12t-12.5 -5q-14 0 -22.5 10.5t-15.5 39.5l-15 61q-27 19 -65.5 29.5t-83.5 10.5q-61 0 -100.5 -24.5t-39.5 -74.5q0 -33 19.5 -56.5t53.5 -42t102 -48.5l21 -9q68 -29 110 -57t65.5 -66.5t23.5 -94.5
q0 -92 -72 -137t-185 -45q-60 0 -130.5 18z" />
    <glyph glyph-name="Scedilla" unicode="&#x15e;" horiz-adv-x="596" 
d="M217 -184q34 11 51 28.5t17 39.5q0 38 -45 51l19 53q-58 5 -116.5 22t-93.5 42v136q0 17 18 17q14 0 22 -10.5t15 -38.5l15 -62q26 -19 72 -30t91 -11q70 0 117.5 25t47.5 81q0 37 -17.5 62t-55 46t-110.5 51q-103 43 -157.5 90.5t-54.5 122.5q0 88 68 132.5t166 44.5
q63 0 124.5 -19.5t101.5 -51.5v-129q0 -7 -4.5 -12t-12.5 -5q-14 0 -22.5 11t-15.5 39l-15 61q-27 19 -65.5 29.5t-83.5 10.5q-61 0 -100.5 -24.5t-39.5 -74.5q0 -33 19.5 -56.5t53.5 -42t102 -48.5l21 -9q68 -29 110 -57t65.5 -66.5t23.5 -94.5q0 -85 -62.5 -130
t-163.5 -51l-18 -41q49 -20 49 -66q0 -34 -36 -61.5t-86 -37.5z" />
    <glyph glyph-name="Scircumflex" unicode="&#x15c;" horiz-adv-x="596" 
d="M146 789l112 143h49l112 -143l-44 -37l-93 102l-92 -102zM160.5 5q-70.5 18 -111.5 47v136q0 17 18 17q14 0 22 -10.5t15 -38.5l15 -62q26 -19 72 -30t91 -11q70 0 117.5 25t47.5 81q0 37 -17.5 62t-55 46t-110.5 51q-103 43 -157.5 90.5t-54.5 122.5q0 88 68 132.5
t166 44.5q63 0 124.5 -19.5t101.5 -51.5v-129q0 -7 -4.5 -12t-12.5 -5q-14 0 -22.5 10.5t-15.5 39.5l-15 61q-27 19 -65.5 29.5t-83.5 10.5q-61 0 -100.5 -24.5t-39.5 -74.5q0 -33 19.5 -56.5t53.5 -42t102 -48.5l21 -9q68 -29 110 -57t65.5 -66.5t23.5 -94.5
q0 -92 -72 -137t-185 -45q-60 0 -130.5 18z" />
    <glyph glyph-name="Scommaaccent" unicode="&#x218;" horiz-adv-x="596" 
d="M160.5 5q-70.5 18 -111.5 47v136q0 17 18 17q14 0 22 -10.5t15 -38.5l15 -62q26 -19 72 -30t91 -11q70 0 117.5 25t47.5 81q0 37 -17.5 62t-55 46t-110.5 51q-103 43 -157.5 90.5t-54.5 122.5q0 88 68 132.5t166 44.5q63 0 124.5 -19.5t101.5 -51.5v-129q0 -7 -4.5 -12
t-12.5 -5q-14 0 -22.5 10.5t-15.5 39.5l-15 61q-27 19 -65.5 29.5t-83.5 10.5q-61 0 -100.5 -24.5t-39.5 -74.5q0 -33 19.5 -56.5t53.5 -42t102 -48.5l21 -9q68 -29 110 -57t65.5 -66.5t23.5 -94.5q0 -92 -72 -137t-185 -45q-60 0 -130.5 18zM225 -230q19 28 36 65.5
t20 61.5l-28 9q-14 5 -14 18t8 20.5t21 7.5q3 0 13 -2l84 -19q-12 -47 -38.5 -98.5t-59.5 -88.5z" />
    <glyph glyph-name="uni1E60" unicode="&#x1e60;" horiz-adv-x="596" 
d="M248 785q-16 16 -16 39q0 24 16 40t39 16t39 -16t16 -40q0 -23 -16 -39t-39 -16t-39 16zM160.5 5q-70.5 18 -111.5 47v136q0 17 18 17q14 0 22 -10.5t15 -38.5l15 -62q26 -19 72 -30t91 -11q70 0 117.5 25t47.5 81q0 37 -17.5 62t-55 46t-110.5 51q-103 43 -157.5 90.5
t-54.5 122.5q0 88 68 132.5t166 44.5q63 0 124.5 -19.5t101.5 -51.5v-129q0 -7 -4.5 -12t-12.5 -5q-14 0 -22.5 10.5t-15.5 39.5l-15 61q-27 19 -65.5 29.5t-83.5 10.5q-61 0 -100.5 -24.5t-39.5 -74.5q0 -33 19.5 -56.5t53.5 -42t102 -48.5l21 -9q68 -29 110 -57
t65.5 -66.5t23.5 -94.5q0 -92 -72 -137t-185 -45q-60 0 -130.5 18z" />
    <glyph glyph-name="uni1E62" unicode="&#x1e62;" horiz-adv-x="596" 
d="M160.5 5q-70.5 18 -111.5 47v136q0 17 18 17q14 0 22 -10.5t15 -38.5l15 -62q26 -19 72 -30t91 -11q70 0 117.5 25t47.5 81q0 37 -17.5 62t-55 46t-110.5 51q-103 43 -157.5 90.5t-54.5 122.5q0 88 68 132.5t166 44.5q63 0 124.5 -19.5t101.5 -51.5v-129q0 -7 -4.5 -12
t-12.5 -5q-14 0 -22.5 10.5t-15.5 39.5l-15 61q-27 19 -65.5 29.5t-83.5 10.5q-61 0 -100.5 -24.5t-39.5 -74.5q0 -33 19.5 -56.5t53.5 -42t102 -48.5l21 -9q68 -29 110 -57t65.5 -66.5t23.5 -94.5q0 -92 -72 -137t-185 -45q-60 0 -130.5 18zM258 -161q-16 16 -16 40
t16 39.5t39 15.5t39 -15.5t16 -39.5t-16 -40t-39 -16t-39 16z" />
    <glyph glyph-name="uni1E9E" unicode="&#x1e9e;" horiz-adv-x="683" 
d="M356.5 -3.5q-39.5 9.5 -66.5 27.5v104q0 7 4.5 12t13.5 5q13 0 19.5 -8.5t10.5 -25.5l9 -44q32 -15 73 -15q50 0 82 34t32 89q0 58 -29.5 92t-90.5 34h-68v77l114 153q0 34 -36 57.5t-84 23.5q-124 0 -124 -139v-473h-149q-9 0 -14 6.5t-5 17.5q0 16 12 24.5t31 8.5h29
v418q0 97 61 150t157 53q80 0 137.5 -40.5t70.5 -110.5l-122 -162h13q96 0 145 -52.5t49 -136.5q0 -52 -23 -95.5t-66.5 -68.5t-102.5 -25q-43 0 -82.5 9.5z" />
    <glyph glyph-name="uni018F" unicode="&#x18f;" horiz-adv-x="723" 
d="M191.5 22q-68.5 35 -106.5 98.5t-38 148.5q0 23 6.5 50.5t15.5 46.5h505q-4 133 -65.5 204.5t-159.5 71.5q-93 0 -186 -54q-24 -14 -38 -14q-13 0 -22.5 7.5t-9.5 24.5q0 15 11 25t38 24q96 53 211 53q93 0 166.5 -42.5t115 -123.5t41.5 -193q0 -115 -41 -196.5
t-114 -123.5t-170 -42q-91 0 -159.5 35zM506 118q57 65 66 183h-419q-6 -16 -6 -41q0 -98 57 -152.5t147 -54.5q98 0 155 65z" />
    <glyph glyph-name="T" unicode="T" horiz-adv-x="612" 
d="M191 7q-5 7 -5 18q0 17 12 26t33 9h25v569h-162l-12 -51q-6 -23 -12.5 -33t-19.5 -10q-20 0 -20 18v142h553v-142q0 -18 -20 -18q-13 0 -20.5 11t-12.5 32l-11 51h-163v-570l47 -13q32 -8 32 -31q0 -15 -14 -15h-215q-10 0 -15 7z" />
    <glyph glyph-name="Tbar" unicode="&#x166;" horiz-adv-x="618" 
d="M194 7q-5 7 -5 18q0 17 12 26t33 9h25v260h-147v67h147v242h-162l-12 -53q-5 -23 -12 -33.5t-20 -10.5q-9 0 -14.5 5t-5.5 14v144h553v-144q0 -9 -5.5 -14t-14.5 -5q-13 0 -20 10.5t-13 33.5l-11 53h-163v-242h149v-67h-149v-261l47 -13q32 -8 32 -31q0 -15 -14 -15h-215
q-10 0 -15 7z" />
    <glyph glyph-name="Tcaron" unicode="&#x164;" horiz-adv-x="612" 
d="M170 895l44 37l92 -102l93 102l44 -37l-112 -143h-49zM191 7q-5 7 -5 18q0 17 12 26t33 9h25v569h-162l-12 -51q-6 -23 -12.5 -33t-19.5 -10q-20 0 -20 18v142h553v-142q0 -18 -20 -18q-13 0 -20.5 11t-12.5 32l-11 51h-163v-570l47 -13q32 -8 32 -31q0 -15 -14 -15h-215
q-10 0 -15 7z" />
    <glyph glyph-name="uni0162" unicode="&#x162;" horiz-adv-x="612" 
d="M247 -177q68 22 68 67q0 38 -45 52l21 58h-85q-10 0 -15 7t-5 18q0 17 12 26t33 9h25v569h-162l-12 -53q-5 -23 -12 -33.5t-20 -10.5q-9 0 -14.5 5t-5.5 14v144h553v-144q0 -9 -5.5 -14t-14.5 -5q-13 0 -20 10.5t-13 33.5l-11 53h-163v-570l47 -13q32 -8 32 -31
q0 -15 -14 -15h-66l-21 -46q49 -20 49 -66q0 -34 -36 -61.5t-86 -38.5z" />
    <glyph glyph-name="uni021A" unicode="&#x21a;" horiz-adv-x="612" 
d="M191 7q-5 7 -5 18q0 17 12 26t33 9h25v569h-162l-12 -51q-6 -23 -12.5 -33t-19.5 -10q-20 0 -20 18v142h553v-142q0 -18 -20 -18q-13 0 -20.5 11t-12.5 32l-11 51h-163v-570l47 -13q32 -8 32 -31q0 -15 -14 -15h-215q-10 0 -15 7zM227 -230q19 28 36 65.5t20 61.5l-28 9
q-14 5 -14 18t8 20.5t21 7.5q3 0 13 -2l84 -19q-12 -47 -38.5 -98.5t-59.5 -88.5z" />
    <glyph glyph-name="uni1E6C" unicode="&#x1e6c;" horiz-adv-x="612" 
d="M191 7q-5 7 -5 18q0 17 12 26t33 9h25v569h-162l-12 -51q-6 -23 -12.5 -33t-19.5 -10q-20 0 -20 18v142h553v-142q0 -18 -20 -18q-13 0 -20.5 11t-12.5 32l-11 51h-163v-570l47 -13q32 -8 32 -31q0 -15 -14 -15h-215q-10 0 -15 7zM267 -161q-16 16 -16 40t16 39.5
t39 15.5t39 -15.5t16 -39.5t-16 -40t-39 -16t-39 16z" />
    <glyph glyph-name="uni1E6E" unicode="&#x1e6e;" horiz-adv-x="612" 
d="M191 7q-5 7 -5 18q0 17 12 26t33 9h25v569h-162l-12 -51q-6 -23 -12.5 -33t-19.5 -10q-20 0 -20 18v142h553v-142q0 -18 -20 -18q-13 0 -20.5 11t-12.5 32l-11 51h-163v-570l47 -13q32 -8 32 -31q0 -15 -14 -15h-215q-10 0 -15 7zM115 -88h388v-65h-388v65z" />
    <glyph glyph-name="U" unicode="U" horiz-adv-x="793" 
d="M248.5 19.5q-65.5 32.5 -102 95t-36.5 150.5v370h-50q-10 0 -15 7t-5 19q0 16 12 25t33 9h190q14 0 14 -15q0 -23 -32 -31l-47 -13v-379q0 -99 51 -151t143 -52q93 0 145 52t52 151v378h-58q-10 0 -15 7t-5 19q0 16 12 25t33 9h171q14 0 14 -14q0 -17 -30 -29l-43 -16
v-371q0 -133 -75.5 -205.5t-204.5 -72.5q-86 0 -151.5 32.5z" />
    <glyph glyph-name="Uacute" unicode="&#xda;" horiz-adv-x="793" 
d="M327 788l94 157l73 -47l-112 -146zM248.5 19.5q-65.5 32.5 -102 95t-36.5 150.5v370h-50q-10 0 -15 7t-5 19q0 16 12 25t33 9h190q14 0 14 -15q0 -23 -32 -31l-47 -13v-379q0 -99 51 -151t143 -52q93 0 145 52t52 151v378h-58q-10 0 -15 7t-5 19q0 16 12 25t33 9h171
q14 0 14 -14q0 -17 -30 -29l-43 -16v-371q0 -133 -75.5 -205.5t-204.5 -72.5q-86 0 -151.5 32.5z" />
    <glyph glyph-name="Ubreve" unicode="&#x16c;" horiz-adv-x="793" 
d="M309.5 778q-41.5 31 -59.5 96l54 19q12 -38 38 -59t62 -21q37 0 63 21.5t37 58.5l55 -19q-18 -65 -59.5 -96t-95.5 -31q-53 0 -94.5 31zM248.5 19.5q-65.5 32.5 -102 95t-36.5 150.5v370h-50q-10 0 -15 7t-5 19q0 16 12 25t33 9h190q14 0 14 -15q0 -23 -32 -31l-47 -13
v-379q0 -99 51 -151t143 -52q93 0 145 52t52 151v378h-58q-10 0 -15 7t-5 19q0 16 12 25t33 9h171q14 0 14 -14q0 -17 -30 -29l-43 -16v-371q0 -133 -75.5 -205.5t-204.5 -72.5q-86 0 -151.5 32.5z" />
    <glyph glyph-name="uni01D3" unicode="&#x1d3;" horiz-adv-x="793" 
d="M264 895l44 37l92 -102l93 102l44 -37l-112 -143h-49zM248.5 19.5q-65.5 32.5 -102 95t-36.5 150.5v370h-50q-10 0 -15 7t-5 19q0 16 12 25t33 9h190q14 0 14 -15q0 -23 -32 -31l-47 -13v-379q0 -99 51 -151t143 -52q93 0 145 52t52 151v378h-58q-10 0 -15 7t-5 19
q0 16 12 25t33 9h171q14 0 14 -14q0 -17 -30 -29l-43 -16v-371q0 -133 -75.5 -205.5t-204.5 -72.5q-86 0 -151.5 32.5z" />
    <glyph glyph-name="Ucircumflex" unicode="&#xdb;" horiz-adv-x="793" 
d="M265 789l112 143h49l112 -143l-44 -37l-93 102l-92 -102zM248.5 19.5q-65.5 32.5 -102 95t-36.5 150.5v370h-50q-10 0 -15 7t-5 19q0 16 12 25t33 9h190q14 0 14 -15q0 -23 -32 -31l-47 -13v-379q0 -99 51 -151t143 -52q93 0 145 52t52 151v378h-58q-10 0 -15 7t-5 19
q0 16 12 25t33 9h171q14 0 14 -14q0 -17 -30 -29l-43 -16v-371q0 -133 -75.5 -205.5t-204.5 -72.5q-86 0 -151.5 32.5z" />
    <glyph glyph-name="Udieresis" unicode="&#xdc;" horiz-adv-x="793" 
d="M263 778.5q-16 15.5 -16 39.5t16 39.5t39 15.5q22 0 38.5 -16t16.5 -39t-16.5 -39t-38.5 -16q-23 0 -39 15.5zM461 778.5q-16 15.5 -16 39.5t16 39.5t39 15.5q22 0 38.5 -16t16.5 -39t-16.5 -39t-38.5 -16q-23 0 -39 15.5zM248.5 19.5q-65.5 32.5 -102 95t-36.5 150.5
v370h-50q-10 0 -15 7t-5 19q0 16 12 25t33 9h190q14 0 14 -15q0 -23 -32 -31l-47 -13v-379q0 -99 51 -151t143 -52q93 0 145 52t52 151v378h-58q-10 0 -15 7t-5 19q0 16 12 25t33 9h171q14 0 14 -14q0 -17 -30 -29l-43 -16v-371q0 -133 -75.5 -205.5t-204.5 -72.5
q-86 0 -151.5 32.5z" />
    <glyph glyph-name="uni01D7" unicode="&#x1d7;" horiz-adv-x="793" 
d="M360 916l85 145l68 -43l-103 -134zM261 778.5q-16 15.5 -16 39.5t16 39.5t39 15.5q22 0 38.5 -16t16.5 -39t-16.5 -39t-38.5 -16q-23 0 -39 15.5zM458 778.5q-16 15.5 -16 39.5t16 39.5t39 15.5q22 0 38.5 -16t16.5 -39t-16.5 -39t-38.5 -16q-23 0 -39 15.5zM248.5 19.5
q-65.5 32.5 -102 95t-36.5 150.5v370h-50q-10 0 -15 7t-5 19q0 16 12 25t33 9h190q14 0 14 -15q0 -23 -32 -31l-47 -13v-379q0 -99 51 -151t143 -52q93 0 145 52t52 151v378h-58q-10 0 -15 7t-5 19q0 16 12 25t33 9h171q14 0 14 -14q0 -17 -30 -29l-43 -16v-371
q0 -133 -75.5 -205.5t-204.5 -72.5q-86 0 -151.5 32.5z" />
    <glyph glyph-name="uni01D9" unicode="&#x1d9;" horiz-adv-x="793" 
d="M266 1038l44 36l92 -102l93 102l44 -36l-112 -144h-49zM264 778.5q-16 15.5 -16 39.5t16 39.5t39 15.5q22 0 38.5 -16t16.5 -39t-16.5 -39t-38.5 -16q-23 0 -39 15.5zM462 778.5q-16 15.5 -16 39.5t16 39.5t39 15.5q22 0 38.5 -16t16.5 -39t-16.5 -39t-38.5 -16
q-23 0 -39 15.5zM248.5 19.5q-65.5 32.5 -102 95t-36.5 150.5v370h-50q-10 0 -15 7t-5 19q0 16 12 25t33 9h190q14 0 14 -15q0 -23 -32 -31l-47 -13v-379q0 -99 51 -151t143 -52q93 0 145 52t52 151v378h-58q-10 0 -15 7t-5 19q0 16 12 25t33 9h171q14 0 14 -14
q0 -17 -30 -29l-43 -16v-371q0 -133 -75.5 -205.5t-204.5 -72.5q-86 0 -151.5 32.5z" />
    <glyph glyph-name="uni01DB" unicode="&#x1db;" horiz-adv-x="793" 
d="M289 1018l68 43l85 -145l-50 -32zM266 778.5q-16 15.5 -16 39.5t16 39.5t38 15.5q23 0 39.5 -15.5t16.5 -39.5t-16.5 -39.5t-39.5 -15.5q-22 0 -38 15.5zM463 778.5q-16 15.5 -16 39.5t16 39.5t38 15.5q23 0 39.5 -15.5t16.5 -39.5t-16.5 -39.5t-39.5 -15.5
q-22 0 -38 15.5zM248.5 19.5q-65.5 32.5 -102 95t-36.5 150.5v370h-50q-10 0 -15 7t-5 19q0 16 12 25t33 9h190q14 0 14 -15q0 -23 -32 -31l-47 -13v-379q0 -99 51 -151t143 -52q93 0 145 52t52 151v378h-58q-10 0 -15 7t-5 19q0 16 12 25t33 9h171q14 0 14 -14
q0 -17 -30 -29l-43 -16v-371q0 -133 -75.5 -205.5t-204.5 -72.5q-86 0 -151.5 32.5z" />
    <glyph glyph-name="uni01D5" unicode="&#x1d5;" horiz-adv-x="793" 
d="M262 994h287v-65h-287v65zM267 778.5q-16 15.5 -16 39.5t16 39.5t39 15.5q22 0 38.5 -16t16.5 -39t-16.5 -39t-38.5 -16q-23 0 -39 15.5zM464 778.5q-16 15.5 -16 39.5t16 39.5t39 15.5q22 0 38.5 -16t16.5 -39t-16.5 -39t-38.5 -16q-23 0 -39 15.5zM248.5 19.5
q-65.5 32.5 -102 95t-36.5 150.5v370h-50q-10 0 -15 7t-5 19q0 16 12 25t33 9h190q14 0 14 -15q0 -23 -32 -31l-47 -13v-379q0 -99 51 -151t143 -52q93 0 145 52t52 151v378h-58q-10 0 -15 7t-5 19q0 16 12 25t33 9h171q14 0 14 -14q0 -17 -30 -29l-43 -16v-371
q0 -133 -75.5 -205.5t-204.5 -72.5q-86 0 -151.5 32.5z" />
    <glyph glyph-name="uni1EE4" unicode="&#x1ee4;" horiz-adv-x="793" 
d="M248.5 19.5q-65.5 32.5 -102 95t-36.5 150.5v370h-50q-10 0 -15 7t-5 19q0 16 12 25t33 9h190q14 0 14 -15q0 -23 -32 -31l-47 -13v-379q0 -99 51 -151t143 -52q93 0 145 52t52 151v378h-58q-10 0 -15 7t-5 19q0 16 12 25t33 9h171q14 0 14 -14q0 -17 -30 -29l-43 -16
v-371q0 -133 -75.5 -205.5t-204.5 -72.5q-86 0 -151.5 32.5zM361 -161q-16 16 -16 40t16 39.5t39 15.5t39 -15.5t16 -39.5t-16 -40t-39 -16t-39 16z" />
    <glyph glyph-name="Ugrave" unicode="&#xd9;" horiz-adv-x="793" 
d="M302 899l73 47l94 -157l-55 -36zM248.5 19.5q-65.5 32.5 -102 95t-36.5 150.5v370h-50q-10 0 -15 7t-5 19q0 16 12 25t33 9h190q14 0 14 -15q0 -23 -32 -31l-47 -13v-379q0 -99 51 -151t143 -52q93 0 145 52t52 151v378h-58q-10 0 -15 7t-5 19q0 16 12 25t33 9h171
q14 0 14 -14q0 -17 -30 -29l-43 -16v-371q0 -133 -75.5 -205.5t-204.5 -72.5q-86 0 -151.5 32.5z" />
    <glyph glyph-name="uni1EE6" unicode="&#x1ee6;" horiz-adv-x="793" 
d="M371 819q56 19 56 51q0 29 -33 29q-20 0 -51 -9l-7 38q14 6 32.5 10.5t34.5 4.5q39 0 64 -20.5t25 -51.5q0 -25 -16.5 -44.5t-46.5 -30.5l-6 -46h-46zM248.5 19.5q-65.5 32.5 -102 95t-36.5 150.5v370h-50q-10 0 -15 7t-5 19q0 16 12 25t33 9h190q14 0 14 -15
q0 -23 -32 -31l-47 -13v-379q0 -99 51 -151t143 -52q93 0 145 52t52 151v378h-58q-10 0 -15 7t-5 19q0 16 12 25t33 9h171q14 0 14 -14q0 -17 -30 -29l-43 -16v-371q0 -133 -75.5 -205.5t-204.5 -72.5q-86 0 -151.5 32.5z" />
    <glyph glyph-name="Uhorn" unicode="&#x1af;" horiz-adv-x="916" 
d="M248.5 19.5q-65.5 32.5 -102 95t-36.5 150.5v370h-50q-10 0 -15 7t-5 19q0 16 12 25t33 9h190q14 0 14 -15q0 -23 -32 -31l-47 -13v-379q0 -99 51 -151t143 -52q93 0 145 52t52 151v378h-58q-10 0 -15 7t-5 19q0 16 12 25t33 9h171q14 0 14 -15q0 -10 -10 -18.5
t-26 -13.5l-37 -11v-128q145 67 145 254h79q0 -122 -62 -201t-162 -123v-174q0 -133 -75.5 -205.5t-204.5 -72.5q-86 0 -151.5 32.5z" />
    <glyph glyph-name="uni1EE8" unicode="&#x1ee8;" horiz-adv-x="916" 
d="M331 788l94 157l73 -47l-112 -146zM248.5 19.5q-65.5 32.5 -102 95t-36.5 150.5v370h-50q-10 0 -15 7t-5 19q0 16 12 25t33 9h190q14 0 14 -15q0 -23 -32 -31l-47 -13v-379q0 -99 51 -151t143 -52q93 0 145 52t52 151v378h-58q-10 0 -15 7t-5 19q0 16 12 25t33 9h171
q14 0 14 -15q0 -10 -10 -18.5t-26 -13.5l-37 -11v-128q145 67 145 254h79q0 -122 -62 -201t-162 -123v-174q0 -133 -75.5 -205.5t-204.5 -72.5q-86 0 -151.5 32.5z" />
    <glyph glyph-name="uni1EF0" unicode="&#x1ef0;" horiz-adv-x="916" 
d="M248.5 19.5q-65.5 32.5 -102 95t-36.5 150.5v370h-50q-10 0 -15 7t-5 19q0 16 12 25t33 9h190q14 0 14 -15q0 -23 -32 -31l-47 -13v-379q0 -99 51 -151t143 -52q93 0 145 52t52 151v378h-58q-10 0 -15 7t-5 19q0 16 12 25t33 9h171q14 0 14 -15q0 -10 -10 -18.5
t-26 -13.5l-37 -11v-128q145 67 145 254h79q0 -122 -62 -201t-162 -123v-174q0 -133 -75.5 -205.5t-204.5 -72.5q-86 0 -151.5 32.5zM367 -161q-16 16 -16 40t16 39.5t39 15.5t39 -15.5t16 -39.5t-16 -40t-39 -16t-39 16z" />
    <glyph glyph-name="uni1EEA" unicode="&#x1eea;" horiz-adv-x="916" 
d="M285 899l73 47l94 -157l-55 -36zM248.5 19.5q-65.5 32.5 -102 95t-36.5 150.5v370h-50q-10 0 -15 7t-5 19q0 16 12 25t33 9h190q14 0 14 -15q0 -23 -32 -31l-47 -13v-379q0 -99 51 -151t143 -52q93 0 145 52t52 151v378h-58q-10 0 -15 7t-5 19q0 16 12 25t33 9h171
q14 0 14 -15q0 -10 -10 -18.5t-26 -13.5l-37 -11v-128q145 67 145 254h79q0 -122 -62 -201t-162 -123v-174q0 -133 -75.5 -205.5t-204.5 -72.5q-86 0 -151.5 32.5z" />
    <glyph glyph-name="uni1EEC" unicode="&#x1eec;" horiz-adv-x="916" 
d="M377 819q56 19 56 51q0 29 -33 29q-20 0 -51 -9l-7 38q14 6 32.5 10.5t34.5 4.5q39 0 64 -20.5t25 -51.5q0 -25 -16.5 -44.5t-46.5 -30.5l-6 -46h-46zM248.5 19.5q-65.5 32.5 -102 95t-36.5 150.5v370h-50q-10 0 -15 7t-5 19q0 16 12 25t33 9h190q14 0 14 -15
q0 -23 -32 -31l-47 -13v-379q0 -99 51 -151t143 -52q93 0 145 52t52 151v378h-58q-10 0 -15 7t-5 19q0 16 12 25t33 9h171q14 0 14 -15q0 -10 -10 -18.5t-26 -13.5l-37 -11v-128q145 67 145 254h79q0 -122 -62 -201t-162 -123v-174q0 -133 -75.5 -205.5t-204.5 -72.5
q-86 0 -151.5 32.5z" />
    <glyph glyph-name="uni1EEE" unicode="&#x1eee;" horiz-adv-x="916" 
d="M433.5 767.5q-13.5 4.5 -33.5 14.5q-20 9 -32 13.5t-26 4.5q-17 0 -32 -6.5t-33 -19.5l-33 46q23 21 49.5 34.5t49.5 13.5q14 0 26.5 -4.5t35.5 -14.5q20 -9 31.5 -13.5t24.5 -4.5q30 0 63 25l34 -46q-22 -22 -47.5 -34.5t-48.5 -12.5q-15 0 -28.5 4.5zM248.5 19.5
q-65.5 32.5 -102 95t-36.5 150.5v370h-50q-10 0 -15 7t-5 19q0 16 12 25t33 9h190q14 0 14 -15q0 -23 -32 -31l-47 -13v-379q0 -99 51 -151t143 -52q93 0 145 52t52 151v378h-58q-10 0 -15 7t-5 19q0 16 12 25t33 9h171q14 0 14 -15q0 -10 -10 -18.5t-26 -13.5l-37 -11v-128
q145 67 145 254h79q0 -122 -62 -201t-162 -123v-174q0 -133 -75.5 -205.5t-204.5 -72.5q-86 0 -151.5 32.5z" />
    <glyph glyph-name="Uhungarumlaut" unicode="&#x170;" horiz-adv-x="793" 
d="M251 793l118 186l62 -38l-138 -177zM434 793l118 186l62 -38l-138 -177zM248.5 19.5q-65.5 32.5 -102 95t-36.5 150.5v370h-50q-10 0 -15 7t-5 19q0 16 12 25t33 9h190q14 0 14 -15q0 -23 -32 -31l-47 -13v-379q0 -99 51 -151t143 -52q93 0 145 52t52 151v378h-58
q-10 0 -15 7t-5 19q0 16 12 25t33 9h171q14 0 14 -14q0 -17 -30 -29l-43 -16v-371q0 -133 -75.5 -205.5t-204.5 -72.5q-86 0 -151.5 32.5z" />
    <glyph glyph-name="Umacron" unicode="&#x16a;" horiz-adv-x="793" 
d="M261 847h287v-66h-287v66zM248.5 19.5q-65.5 32.5 -102 95t-36.5 150.5v370h-50q-10 0 -15 7t-5 19q0 16 12 25t33 9h190q14 0 14 -15q0 -23 -32 -31l-47 -13v-379q0 -99 51 -151t143 -52q93 0 145 52t52 151v378h-58q-10 0 -15 7t-5 19q0 16 12 25t33 9h171q14 0 14 -14
q0 -17 -30 -29l-43 -16v-371q0 -133 -75.5 -205.5t-204.5 -72.5q-86 0 -151.5 32.5z" />
    <glyph glyph-name="Uogonek" unicode="&#x172;" horiz-adv-x="793" 
d="M356.5 -188q-32.5 27 -32.5 74q0 29 16.5 56t45.5 45q-126 5 -201 77.5t-75 200.5v370h-50q-10 0 -15 7t-5 19q0 16 12 25t33 9h190q14 0 14 -15q0 -22 -32 -31l-47 -13v-379q0 -99 51 -151t143 -52q93 0 145 52t52 151v378h-58q-10 0 -15 7t-5 19q0 16 12 25t33 9h171
q14 0 14 -14q0 -17 -30 -29l-43 -16v-371q0 -116 -58.5 -186.5t-161.5 -86.5q-29 -17 -49 -45t-20 -58q0 -27 16.5 -41.5t45.5 -14.5q20 0 41 7l9 -41q-27 -14 -63 -14q-51 0 -83.5 27z" />
    <glyph glyph-name="Uring" unicode="&#x16e;" horiz-adv-x="793" 
d="M326 771q-27 27 -27 66q0 40 27.5 67t71.5 27q45 0 72.5 -27t27.5 -67q0 -39 -27.5 -66t-72.5 -27t-72 27zM430.5 804q12.5 12 12.5 33q0 22 -12.5 34t-31.5 12q-20 0 -32.5 -12t-12.5 -34q0 -21 13 -33t32 -12t31.5 12zM248.5 19.5q-65.5 32.5 -102 95t-36.5 150.5v370
h-50q-10 0 -15 7t-5 19q0 16 12 25t33 9h190q14 0 14 -15q0 -23 -32 -31l-47 -13v-379q0 -99 51 -151t143 -52q93 0 145 52t52 151v378h-58q-10 0 -15 7t-5 19q0 16 12 25t33 9h171q14 0 14 -14q0 -17 -30 -29l-43 -16v-371q0 -133 -75.5 -205.5t-204.5 -72.5
q-86 0 -151.5 32.5z" />
    <glyph glyph-name="Utilde" unicode="&#x168;" horiz-adv-x="793" 
d="M431.5 767.5q-13.5 4.5 -33.5 14.5q-20 9 -32 13.5t-26 4.5q-17 0 -32 -6.5t-33 -19.5l-33 46q23 21 49.5 34.5t49.5 13.5q14 0 26.5 -4.5t35.5 -14.5q20 -9 31.5 -13.5t24.5 -4.5q30 0 63 25l34 -46q-22 -22 -47.5 -34.5t-48.5 -12.5q-15 0 -28.5 4.5zM248.5 19.5
q-65.5 32.5 -102 95t-36.5 150.5v370h-50q-10 0 -15 7t-5 19q0 16 12 25t33 9h190q14 0 14 -15q0 -23 -32 -31l-47 -13v-379q0 -99 51 -151t143 -52q93 0 145 52t52 151v378h-58q-10 0 -15 7t-5 19q0 16 12 25t33 9h171q14 0 14 -14q0 -17 -30 -29l-43 -16v-371
q0 -133 -75.5 -205.5t-204.5 -72.5q-86 0 -151.5 32.5z" />
    <glyph glyph-name="V" unicode="V" horiz-adv-x="742" 
d="M77 635h-49q-10 0 -15 7t-5 19q0 16 12 25t33 9h204q14 0 14 -15q0 -25 -37 -33l-50 -11l176 -512q6 -18 10 -36.5t5 -23.5h5l4.5 23.5t10.5 36.5l182 511h-60q-10 0 -15.5 7t-5.5 19q0 16 12 25t33 9h179q14 0 14 -15q0 -19 -28 -29l-51 -16l-230 -635h-120z" />
    <glyph glyph-name="W" unicode="W" horiz-adv-x="1110" 
d="M79 635h-50q-10 0 -15 7t-5 19q0 16 12 25t33 9h199q14 0 14 -15q0 -25 -37 -33l-51 -11l149 -498q6 -19 9 -41.5t3 -29.5h5q1 7 4 29.5t9 41.5l155 557h98l167 -557q6 -19 9 -41.5t3 -29.5h5q1 7 4 29.5t9 41.5l138 497h-64q-10 0 -15 7t-5 19q0 16 12 25t33 9h181
q14 0 14 -15q0 -19 -29 -29l-50 -16l-183 -635h-121l-150 507q-7 23 -10.5 51t-4.5 37h-4q-1 -9 -5 -37t-10 -51l-141 -507h-121z" />
    <glyph glyph-name="Wacute" unicode="&#x1e82;" horiz-adv-x="1110" 
d="M501 788l94 157l73 -47l-112 -146zM79 635h-50q-10 0 -15 7t-5 19q0 16 12 25t33 9h199q14 0 14 -15q0 -25 -37 -33l-51 -11l149 -498q6 -19 9 -41.5t3 -29.5h5q1 7 4 29.5t9 41.5l155 557h98l167 -557q6 -19 9 -41.5t3 -29.5h5q1 7 4 29.5t9 41.5l138 497h-64
q-10 0 -15 7t-5 19q0 16 12 25t33 9h181q14 0 14 -15q0 -19 -29 -29l-50 -16l-183 -635h-121l-150 507q-7 23 -10.5 51t-4.5 37h-4q-1 -9 -5 -37t-10 -51l-141 -507h-121z" />
    <glyph glyph-name="Wcircumflex" unicode="&#x174;" horiz-adv-x="1110" 
d="M415 789l112 143h49l112 -143l-44 -37l-93 102l-92 -102zM79 635h-50q-10 0 -15 7t-5 19q0 16 12 25t33 9h199q14 0 14 -15q0 -25 -37 -33l-51 -11l149 -498q6 -19 9 -41.5t3 -29.5h5q1 7 4 29.5t9 41.5l155 557h98l167 -557q6 -19 9 -41.5t3 -29.5h5q1 7 4 29.5t9 41.5
l138 497h-64q-10 0 -15 7t-5 19q0 16 12 25t33 9h181q14 0 14 -15q0 -19 -29 -29l-50 -16l-183 -635h-121l-150 507q-7 23 -10.5 51t-4.5 37h-4q-1 -9 -5 -37t-10 -51l-141 -507h-121z" />
    <glyph glyph-name="Wdieresis" unicode="&#x1e84;" horiz-adv-x="1110" 
d="M425 778.5q-16 15.5 -16 39.5t16 39.5t39 15.5q22 0 38.5 -16t16.5 -39t-16.5 -39t-38.5 -16q-23 0 -39 15.5zM623 778.5q-16 15.5 -16 39.5t16 39.5t39 15.5q22 0 38.5 -16t16.5 -39t-16.5 -39t-38.5 -16q-23 0 -39 15.5zM79 635h-50q-10 0 -15 7t-5 19q0 16 12 25t33 9
h199q14 0 14 -15q0 -25 -37 -33l-51 -11l149 -498q6 -19 9 -41.5t3 -29.5h5q1 7 4 29.5t9 41.5l155 557h98l167 -557q6 -19 9 -41.5t3 -29.5h5q1 7 4 29.5t9 41.5l138 497h-64q-10 0 -15 7t-5 19q0 16 12 25t33 9h181q14 0 14 -15q0 -19 -29 -29l-50 -16l-183 -635h-121
l-150 507q-7 23 -10.5 51t-4.5 37h-4q-1 -9 -5 -37t-10 -51l-141 -507h-121z" />
    <glyph glyph-name="Wgrave" unicode="&#x1e80;" horiz-adv-x="1110" 
d="M446 899l73 47l94 -157l-55 -36zM79 635h-50q-10 0 -15 7t-5 19q0 16 12 25t33 9h199q14 0 14 -15q0 -25 -37 -33l-51 -11l149 -498q6 -19 9 -41.5t3 -29.5h5q1 7 4 29.5t9 41.5l155 557h98l167 -557q6 -19 9 -41.5t3 -29.5h5q1 7 4 29.5t9 41.5l138 497h-64q-10 0 -15 7
t-5 19q0 16 12 25t33 9h181q14 0 14 -15q0 -19 -29 -29l-50 -16l-183 -635h-121l-150 507q-7 23 -10.5 51t-4.5 37h-4q-1 -9 -5 -37t-10 -51l-141 -507h-121z" />
    <glyph glyph-name="X" unicode="X" horiz-adv-x="721" 
d="M17 7q-5 7 -5 18q0 17 12 26t33 9h31l204 294l-190 281h-47q-10 0 -15 7t-5 19q0 16 12 25t33 9h208q13 0 13 -15q0 -13 -9.5 -21.5t-27.5 -11.5l-44 -8l151 -223l156 219h-52q-10 0 -15 7t-5 19q0 16 12 25t33 9h172q14 0 14 -15q0 -19 -29 -29l-49 -16l-188 -265
l216 -314l37 -8q37 -8 37 -33q0 -15 -14 -15h-248q-10 0 -15 7t-5 18q0 17 12 26t33 9h38l-170 248l-173 -248l57 -16q28 -8 28 -29q0 -15 -14 -15h-207q-10 0 -15 7z" />
    <glyph glyph-name="Y" unicode="Y" horiz-adv-x="705" 
d="M231 7q-5 7 -5 18q0 17 12 26t33 9h25v231l-220 344h-47q-10 0 -15 7t-5 19q0 16 12 25t33 9h214q14 0 14 -16q0 -26 -33 -32l-53 -11l167 -263l176 262h-53q-10 0 -15 7t-5 19q0 16 11.5 25t32.5 9h172q14 0 14 -15q0 -19 -28 -29l-50 -16l-222 -331v-245l47 -13
q32 -8 32 -31q0 -15 -14 -15h-215q-10 0 -15 7z" />
    <glyph glyph-name="Yacute" unicode="&#xdd;" horiz-adv-x="705" 
d="M284 789l94 157l73 -47l-112 -146zM231 7q-5 7 -5 18q0 17 12 26t33 9h25v231l-220 344h-47q-10 0 -15 7t-5 19q0 16 12 25t33 9h214q14 0 14 -16q0 -26 -33 -32l-53 -11l167 -263l176 262h-53q-10 0 -15 7t-5 19q0 16 11.5 25t32.5 9h172q14 0 14 -15q0 -19 -28 -29
l-50 -16l-222 -331v-245l47 -13q32 -8 32 -31q0 -15 -14 -15h-215q-10 0 -15 7z" />
    <glyph glyph-name="Ycircumflex" unicode="&#x176;" horiz-adv-x="705" 
d="M215 789l112 143h49l112 -143l-44 -37l-93 102l-92 -102zM231 7q-5 7 -5 18q0 17 12 26t33 9h25v231l-220 344h-47q-10 0 -15 7t-5 19q0 16 12 25t33 9h214q14 0 14 -16q0 -26 -33 -32l-53 -11l167 -263l176 262h-53q-10 0 -15 7t-5 19q0 16 11.5 25t32.5 9h172
q14 0 14 -15q0 -19 -28 -29l-50 -16l-222 -331v-245l47 -13q32 -8 32 -31q0 -15 -14 -15h-215q-10 0 -15 7z" />
    <glyph glyph-name="Ydieresis" unicode="&#x178;" horiz-adv-x="705" 
d="M210 778.5q-16 15.5 -16 39.5t16 39.5t39 15.5q22 0 38.5 -16t16.5 -39t-16.5 -39t-38.5 -16q-23 0 -39 15.5zM407 778.5q-16 15.5 -16 39.5t16 39.5t39 15.5q22 0 38.5 -16t16.5 -39t-16.5 -39t-38.5 -16q-23 0 -39 15.5zM231 7q-5 7 -5 18q0 17 12 26t33 9h25v231
l-220 344h-47q-10 0 -15 7t-5 19q0 16 12 25t33 9h214q14 0 14 -16q0 -26 -33 -32l-53 -11l167 -263l176 262h-53q-10 0 -15 7t-5 19q0 16 11.5 25t32.5 9h172q14 0 14 -15q0 -19 -28 -29l-50 -16l-222 -331v-245l47 -13q32 -8 32 -31q0 -15 -14 -15h-215q-10 0 -15 7z" />
    <glyph glyph-name="uni1E8E" unicode="&#x1e8e;" horiz-adv-x="705" 
d="M323 785q-16 16 -16 39q0 24 16 40t39 16t39 -16t16 -40q0 -23 -16 -39t-39 -16t-39 16zM231 7q-5 7 -5 18q0 17 12 26t33 9h25v231l-220 344h-47q-10 0 -15 7t-5 19q0 16 12 25t33 9h214q14 0 14 -16q0 -26 -33 -32l-53 -11l167 -263l176 262h-53q-10 0 -15 7t-5 19
q0 16 11.5 25t32.5 9h172q14 0 14 -15q0 -19 -28 -29l-50 -16l-222 -331v-245l47 -13q32 -8 32 -31q0 -15 -14 -15h-215q-10 0 -15 7z" />
    <glyph glyph-name="uni1EF4" unicode="&#x1ef4;" horiz-adv-x="705" 
d="M231 7q-5 7 -5 18q0 17 12 26t33 9h25v231l-220 344h-47q-10 0 -15 7t-5 19q0 16 12 25t33 9h214q14 0 14 -16q0 -26 -33 -32l-53 -11l167 -263l176 262h-53q-10 0 -15 7t-5 19q0 16 11.5 25t32.5 9h172q14 0 14 -15q0 -19 -28 -29l-50 -16l-222 -331v-245l47 -13
q32 -8 32 -31q0 -15 -14 -15h-215q-10 0 -15 7zM307 -161q-16 16 -16 40t16 39.5t39 15.5t39 -15.5t16 -39.5t-16 -40t-39 -16t-39 16z" />
    <glyph glyph-name="Ygrave" unicode="&#x1ef2;" horiz-adv-x="705" 
d="M233 899l73 47l94 -157l-55 -36zM231 7q-5 7 -5 18q0 17 12 26t33 9h25v231l-220 344h-47q-10 0 -15 7t-5 19q0 16 12 25t33 9h214q14 0 14 -16q0 -26 -33 -32l-53 -11l167 -263l176 262h-53q-10 0 -15 7t-5 19q0 16 11.5 25t32.5 9h172q14 0 14 -15q0 -19 -28 -29
l-50 -16l-222 -331v-245l47 -13q32 -8 32 -31q0 -15 -14 -15h-215q-10 0 -15 7z" />
    <glyph glyph-name="uni1EF6" unicode="&#x1ef6;" horiz-adv-x="705" 
d="M326 819q56 19 56 51q0 29 -33 29q-20 0 -51 -9l-7 38q14 6 32.5 10.5t34.5 4.5q39 0 64 -20.5t25 -51.5q0 -25 -16.5 -44.5t-46.5 -30.5l-6 -46h-46zM231 7q-5 7 -5 18q0 17 12 26t33 9h25v231l-220 344h-47q-10 0 -15 7t-5 19q0 16 12 25t33 9h214q14 0 14 -16
q0 -26 -33 -32l-53 -11l167 -263l176 262h-53q-10 0 -15 7t-5 19q0 16 11.5 25t32.5 9h172q14 0 14 -15q0 -19 -28 -29l-50 -16l-222 -331v-245l47 -13q32 -8 32 -31q0 -15 -14 -15h-215q-10 0 -15 7z" />
    <glyph glyph-name="uni1EF8" unicode="&#x1ef8;" horiz-adv-x="705" 
d="M384.5 767.5q-13.5 4.5 -33.5 14.5q-20 9 -32 13.5t-26 4.5q-17 0 -32 -6.5t-33 -19.5l-33 46q23 21 49.5 34.5t49.5 13.5q14 0 26.5 -4.5t35.5 -14.5q20 -9 31.5 -13.5t24.5 -4.5q30 0 63 25l34 -46q-22 -22 -47.5 -34.5t-48.5 -12.5q-15 0 -28.5 4.5zM231 7q-5 7 -5 18
q0 17 12 26t33 9h25v231l-220 344h-47q-10 0 -15 7t-5 19q0 16 12 25t33 9h214q14 0 14 -16q0 -26 -33 -32l-53 -11l167 -263l176 262h-53q-10 0 -15 7t-5 19q0 16 11.5 25t32.5 9h172q14 0 14 -15q0 -19 -28 -29l-50 -16l-222 -331v-245l47 -13q32 -8 32 -31q0 -15 -14 -15
h-215q-10 0 -15 7z" />
    <glyph glyph-name="Z" unicode="Z" horiz-adv-x="632" 
d="M46 68l410 561h-330l-11 -54q-5 -22 -12.5 -33t-20.5 -11q-8 0 -14 4.5t-6 13.5v146h516v-68l-410 -561h351l12 54q5 22 12 33t20 11q20 0 20 -18v-146h-537v68z" />
    <glyph glyph-name="Zacute" unicode="&#x179;" horiz-adv-x="632" 
d="M250 788l94 157l73 -47l-112 -146zM46 68l410 561h-330l-11 -54q-5 -22 -12.5 -33t-20.5 -11q-8 0 -14 4.5t-6 13.5v146h516v-68l-410 -561h351l12 54q5 22 12 33t20 11q20 0 20 -18v-146h-537v68z" />
    <glyph glyph-name="Zcaron" unicode="&#x17d;" horiz-adv-x="632" 
d="M188 895l44 37l92 -102l93 102l44 -37l-112 -143h-49zM46 68l410 561h-330l-11 -54q-5 -22 -12.5 -33t-20.5 -11q-8 0 -14 4.5t-6 13.5v146h516v-68l-410 -561h351l12 54q5 22 12 33t20 11q20 0 20 -18v-146h-537v68z" />
    <glyph glyph-name="Zdotaccent" unicode="&#x17b;" horiz-adv-x="632" 
d="M284 785q-16 16 -16 39q0 24 16 40t39 16t39 -16t16 -40q0 -23 -16 -39t-39 -16t-39 16zM46 68l410 561h-330l-11 -54q-5 -22 -12.5 -33t-20.5 -11q-8 0 -14 4.5t-6 13.5v146h516v-68l-410 -561h351l12 54q5 22 12 33t20 11q20 0 20 -18v-146h-537v68z" />
    <glyph glyph-name="uni1E92" unicode="&#x1e92;" horiz-adv-x="632" 
d="M46 68l410 561h-330l-11 -54q-5 -22 -12.5 -33t-20.5 -11q-8 0 -14 4.5t-6 13.5v146h516v-68l-410 -561h351l12 54q5 22 12 33t20 11q20 0 20 -18v-146h-537v68zM282 -161q-16 16 -16 40t16 39.5t39 15.5t39 -15.5t16 -39.5t-16 -40t-39 -16t-39 16z" />
    <glyph glyph-name="a" unicode="a" horiz-adv-x="537" 
d="M86 23q-45 36 -45 102q0 73 52 107.5t135 47.5l131 20v40q0 46 -28.5 73t-78.5 27q-29 0 -65.5 -10t-58.5 -24l-10 -43q-8 -33 -31 -33q-9 0 -13.5 4.5t-4.5 11.5v98q41 24 94.5 40t103.5 16q82 0 134 -42t52 -120v-284l35 -11q17 -6 24 -12t7 -17q0 -14 -13 -14h-145v63
h-4q-27 -35 -69 -55.5t-93 -20.5q-64 0 -109 36zM289.5 65.5q31.5 16.5 50.5 44t19 59.5v74l-112 -18q-53 -9 -82.5 -31.5t-29.5 -63.5q0 -39 24.5 -60t64.5 -21q34 0 65.5 16.5z" />
    <glyph glyph-name="aacute" unicode="&#xe1;" horiz-adv-x="537" 
d="M194 596l94 157l73 -47l-112 -146zM86 23q-45 36 -45 102q0 73 52 107.5t135 47.5l131 20v40q0 46 -28.5 73t-78.5 27q-29 0 -65.5 -10t-58.5 -24l-10 -43q-8 -33 -31 -33q-9 0 -13.5 4.5t-4.5 11.5v98q41 24 94.5 40t103.5 16q82 0 134 -42t52 -120v-284l35 -11
q17 -6 24 -12t7 -17q0 -14 -13 -14h-145v63h-4q-27 -35 -69 -55.5t-93 -20.5q-64 0 -109 36zM289.5 65.5q31.5 16.5 50.5 44t19 59.5v74l-112 -18q-53 -9 -82.5 -31.5t-29.5 -63.5q0 -39 24.5 -60t64.5 -21q34 0 65.5 16.5z" />
    <glyph glyph-name="abreve" unicode="&#x103;" horiz-adv-x="537" 
d="M170.5 581q-41.5 31 -59.5 96l54 19q12 -38 38 -59t62 -21q37 0 63 21.5t37 58.5l55 -19q-18 -65 -59.5 -96t-95.5 -31q-53 0 -94.5 31zM86 23q-45 36 -45 102q0 73 52 107.5t135 47.5l131 20v40q0 46 -28.5 73t-78.5 27q-29 0 -65.5 -10t-58.5 -24l-10 -43
q-8 -33 -31 -33q-9 0 -13.5 4.5t-4.5 11.5v98q41 24 94.5 40t103.5 16q82 0 134 -42t52 -120v-284l35 -11q17 -6 24 -12t7 -17q0 -14 -13 -14h-145v63h-4q-27 -35 -69 -55.5t-93 -20.5q-64 0 -109 36zM289.5 65.5q31.5 16.5 50.5 44t19 59.5v74l-112 -18q-53 -9 -82.5 -31.5
t-29.5 -63.5q0 -39 24.5 -60t64.5 -21q34 0 65.5 16.5z" />
    <glyph glyph-name="uni1EAF" unicode="&#x1eaf;" horiz-adv-x="537" 
d="M224 715l82 142l68 -43l-100 -131zM168.5 581q-41.5 31 -59.5 96l54 19q12 -38 38 -59t62 -21q37 0 63 21.5t37 58.5l55 -19q-18 -65 -59.5 -96t-95.5 -31q-53 0 -94.5 31zM86 23q-45 36 -45 102q0 73 52 107.5t135 47.5l131 20v40q0 46 -28.5 73t-78.5 27
q-29 0 -65.5 -10t-58.5 -24l-10 -43q-8 -33 -31 -33q-9 0 -13.5 4.5t-4.5 11.5v98q41 24 94.5 40t103.5 16q82 0 134 -42t52 -120v-284l35 -11q17 -6 24 -12t7 -17q0 -14 -13 -14h-145v63h-4q-27 -35 -69 -55.5t-93 -20.5q-64 0 -109 36zM289.5 65.5q31.5 16.5 50.5 44
t19 59.5v74l-112 -18q-53 -9 -82.5 -31.5t-29.5 -63.5q0 -39 24.5 -60t64.5 -21q34 0 65.5 16.5z" />
    <glyph glyph-name="uni1EB7" unicode="&#x1eb7;" horiz-adv-x="537" 
d="M166.5 581q-41.5 31 -59.5 96l54 19q12 -38 38 -59t62 -21q37 0 63 21.5t37 58.5l55 -19q-18 -65 -59.5 -96t-95.5 -31q-53 0 -94.5 31zM86 23q-45 36 -45 102q0 73 52 107.5t135 47.5l131 20v40q0 46 -28.5 73t-78.5 27q-29 0 -65.5 -10t-58.5 -24l-10 -43
q-8 -33 -31 -33q-9 0 -13.5 4.5t-4.5 11.5v98q41 24 94.5 40t103.5 16q82 0 134 -42t52 -120v-284l35 -11q17 -6 24 -12t7 -17q0 -14 -13 -14h-145v63h-4q-27 -35 -69 -55.5t-93 -20.5q-64 0 -109 36zM289.5 65.5q31.5 16.5 50.5 44t19 59.5v74l-112 -18q-53 -9 -82.5 -31.5
t-29.5 -63.5q0 -39 24.5 -60t64.5 -21q34 0 65.5 16.5zM233 -161q-16 16 -16 40t16 39.5t39 15.5t39 -15.5t16 -39.5t-16 -40t-39 -16t-39 16z" />
    <glyph glyph-name="uni1EB1" unicode="&#x1eb1;" horiz-adv-x="537" 
d="M152 814l68 43l82 -142l-50 -32zM168.5 581q-41.5 31 -59.5 96l54 19q12 -38 38 -59t62 -21q37 0 63 21.5t37 58.5l55 -19q-18 -65 -59.5 -96t-95.5 -31q-53 0 -94.5 31zM86 23q-45 36 -45 102q0 73 52 107.5t135 47.5l131 20v40q0 46 -28.5 73t-78.5 27q-29 0 -65.5 -10
t-58.5 -24l-10 -43q-8 -33 -31 -33q-9 0 -13.5 4.5t-4.5 11.5v98q41 24 94.5 40t103.5 16q82 0 134 -42t52 -120v-284l35 -11q17 -6 24 -12t7 -17q0 -14 -13 -14h-145v63h-4q-27 -35 -69 -55.5t-93 -20.5q-64 0 -109 36zM289.5 65.5q31.5 16.5 50.5 44t19 59.5v74l-112 -18
q-53 -9 -82.5 -31.5t-29.5 -63.5q0 -39 24.5 -60t64.5 -21q34 0 65.5 16.5z" />
    <glyph glyph-name="uni1EB3" unicode="&#x1eb3;" horiz-adv-x="537" 
d="M234 750q54 19 54 50q0 28 -32 28q-18 0 -49 -9l-7 38q37 14 65 14q39 0 62.5 -20t23.5 -50q0 -25 -16 -43.5t-44 -29.5l-6 -45h-46zM168.5 581q-41.5 31 -59.5 96l54 19q12 -38 38 -59t62 -21q37 0 63 21.5t37 58.5l55 -19q-18 -65 -59.5 -96t-95.5 -31q-53 0 -94.5 31z
M86 23q-45 36 -45 102q0 73 52 107.5t135 47.5l131 20v40q0 46 -28.5 73t-78.5 27q-29 0 -65.5 -10t-58.5 -24l-10 -43q-8 -33 -31 -33q-9 0 -13.5 4.5t-4.5 11.5v98q41 24 94.5 40t103.5 16q82 0 134 -42t52 -120v-284l35 -11q17 -6 24 -12t7 -17q0 -14 -13 -14h-145v63h-4
q-27 -35 -69 -55.5t-93 -20.5q-64 0 -109 36zM289.5 65.5q31.5 16.5 50.5 44t19 59.5v74l-112 -18q-53 -9 -82.5 -31.5t-29.5 -63.5q0 -39 24.5 -60t64.5 -21q34 0 65.5 16.5z" />
    <glyph glyph-name="uni1EB5" unicode="&#x1eb5;" horiz-adv-x="537" 
d="M288 736.5q-13 4.5 -24 10.5q-28 15 -45 15q-24 0 -50 -21l-27 42q19 16 39.5 26.5t37.5 10.5q15 0 30.5 -7t18.5 -8q11 -5 22.5 -9.5t21.5 -4.5q24 0 49 20l27 -41q-38 -38 -75 -38q-12 0 -25 4.5zM169.5 581q-41.5 31 -59.5 96l54 19q12 -38 38 -59t62 -21
q37 0 63 21.5t37 58.5l55 -19q-18 -65 -59.5 -96t-95.5 -31q-53 0 -94.5 31zM86 23q-45 36 -45 102q0 73 52 107.5t135 47.5l131 20v40q0 46 -28.5 73t-78.5 27q-29 0 -65.5 -10t-58.5 -24l-10 -43q-8 -33 -31 -33q-9 0 -13.5 4.5t-4.5 11.5v98q41 24 94.5 40t103.5 16
q82 0 134 -42t52 -120v-284l35 -11q17 -6 24 -12t7 -17q0 -14 -13 -14h-145v63h-4q-27 -35 -69 -55.5t-93 -20.5q-64 0 -109 36zM289.5 65.5q31.5 16.5 50.5 44t19 59.5v74l-112 -18q-53 -9 -82.5 -31.5t-29.5 -63.5q0 -39 24.5 -60t64.5 -21q34 0 65.5 16.5z" />
    <glyph glyph-name="uni01CE" unicode="&#x1ce;" horiz-adv-x="537" 
d="M129 703l44 37l92 -102l93 102l44 -37l-112 -143h-49zM86 23q-45 36 -45 102q0 73 52 107.5t135 47.5l131 20v40q0 46 -28.5 73t-78.5 27q-29 0 -65.5 -10t-58.5 -24l-10 -43q-8 -33 -31 -33q-9 0 -13.5 4.5t-4.5 11.5v98q41 24 94.5 40t103.5 16q82 0 134 -42t52 -120
v-284l35 -11q17 -6 24 -12t7 -17q0 -14 -13 -14h-145v63h-4q-27 -35 -69 -55.5t-93 -20.5q-64 0 -109 36zM289.5 65.5q31.5 16.5 50.5 44t19 59.5v74l-112 -18q-53 -9 -82.5 -31.5t-29.5 -63.5q0 -39 24.5 -60t64.5 -21q34 0 65.5 16.5z" />
    <glyph glyph-name="acircumflex" unicode="&#xe2;" horiz-adv-x="537" 
d="M125 597l112 143h49l112 -143l-44 -37l-93 102l-92 -102zM86 23q-45 36 -45 102q0 73 52 107.5t135 47.5l131 20v40q0 46 -28.5 73t-78.5 27q-29 0 -65.5 -10t-58.5 -24l-10 -43q-8 -33 -31 -33q-9 0 -13.5 4.5t-4.5 11.5v98q41 24 94.5 40t103.5 16q82 0 134 -42
t52 -120v-284l35 -11q17 -6 24 -12t7 -17q0 -14 -13 -14h-145v63h-4q-27 -35 -69 -55.5t-93 -20.5q-64 0 -109 36zM289.5 65.5q31.5 16.5 50.5 44t19 59.5v74l-112 -18q-53 -9 -82.5 -31.5t-29.5 -63.5q0 -39 24.5 -60t64.5 -21q34 0 65.5 16.5z" />
    <glyph glyph-name="uni1EA5" unicode="&#x1ea5;" horiz-adv-x="537" 
d="M359 698l65 115l65 -42l-86 -102zM124 597l112 143h49l112 -143l-44 -37l-93 102l-92 -102zM86 23q-45 36 -45 102q0 73 52 107.5t135 47.5l131 20v40q0 46 -28.5 73t-78.5 27q-29 0 -65.5 -10t-58.5 -24l-10 -43q-8 -33 -31 -33q-9 0 -13.5 4.5t-4.5 11.5v98
q41 24 94.5 40t103.5 16q82 0 134 -42t52 -120v-284l35 -11q17 -6 24 -12t7 -17q0 -14 -13 -14h-145v63h-4q-27 -35 -69 -55.5t-93 -20.5q-64 0 -109 36zM289.5 65.5q31.5 16.5 50.5 44t19 59.5v74l-112 -18q-53 -9 -82.5 -31.5t-29.5 -63.5q0 -39 24.5 -60t64.5 -21
q34 0 65.5 16.5z" />
    <glyph glyph-name="uni1EAD" unicode="&#x1ead;" horiz-adv-x="537" 
d="M125 597l112 143h49l112 -143l-44 -37l-93 102l-92 -102zM86 23q-45 36 -45 102q0 73 52 107.5t135 47.5l131 20v40q0 46 -28.5 73t-78.5 27q-29 0 -65.5 -10t-58.5 -24l-10 -43q-8 -33 -31 -33q-9 0 -13.5 4.5t-4.5 11.5v98q41 24 94.5 40t103.5 16q82 0 134 -42
t52 -120v-284l35 -11q17 -6 24 -12t7 -17q0 -14 -13 -14h-145v63h-4q-27 -35 -69 -55.5t-93 -20.5q-64 0 -109 36zM289.5 65.5q31.5 16.5 50.5 44t19 59.5v74l-112 -18q-53 -9 -82.5 -31.5t-29.5 -63.5q0 -39 24.5 -60t64.5 -21q34 0 65.5 16.5zM228 -161q-16 16 -16 40
t16 39.5t39 15.5t39 -15.5t16 -39.5t-16 -40t-39 -16t-39 16z" />
    <glyph glyph-name="uni1EA7" unicode="&#x1ea7;" horiz-adv-x="557" 
d="M55 771l65 42l65 -115l-44 -29zM147 597l112 143h49l112 -143l-44 -37l-93 102l-92 -102zM106 23q-45 36 -45 102q0 73 52 107.5t135 47.5l131 20v40q0 46 -28.5 73t-78.5 27q-29 0 -65.5 -10t-58.5 -24l-10 -43q-8 -33 -31 -33q-9 0 -13.5 4.5t-4.5 11.5v98
q41 24 94.5 40t103.5 16q82 0 134 -42t52 -120v-284l35 -11q17 -6 24 -12t7 -17q0 -14 -13 -14h-145v63h-4q-27 -35 -69 -55.5t-93 -20.5q-64 0 -109 36zM309.5 65.5q31.5 16.5 50.5 44t19 59.5v74l-112 -18q-53 -9 -82.5 -31.5t-29.5 -63.5q0 -39 24.5 -60t64.5 -21
q34 0 65.5 16.5z" />
    <glyph glyph-name="uni1EA9" unicode="&#x1ea9;" horiz-adv-x="550" 
d="M393 732q54 19 54 50q0 28 -32 28q-18 0 -49 -9l-7 37q13 6 31 10t34 4q39 0 62.5 -19.5t23.5 -50.5q0 -24 -16 -42.5t-44 -29.5l-6 -45h-46zM130 597l112 143h49l112 -143l-44 -37l-93 102l-92 -102zM86 23q-45 36 -45 102q0 73 52 107.5t135 47.5l131 20v40
q0 46 -28.5 73t-78.5 27q-29 0 -65.5 -10t-58.5 -24l-10 -43q-8 -33 -31 -33q-9 0 -13.5 4.5t-4.5 11.5v98q41 24 94.5 40t103.5 16q82 0 134 -42t52 -120v-284l35 -11q17 -6 24 -12t7 -17q0 -14 -13 -14h-145v63h-4q-27 -35 -69 -55.5t-93 -20.5q-64 0 -109 36zM289.5 65.5
q31.5 16.5 50.5 44t19 59.5v74l-112 -18q-53 -9 -82.5 -31.5t-29.5 -63.5q0 -39 24.5 -60t64.5 -21q34 0 65.5 16.5z" />
    <glyph glyph-name="uni1EAB" unicode="&#x1eab;" horiz-adv-x="537" 
d="M291 774.5q-13 4.5 -24 10.5q-28 15 -45 15q-14 0 -25 -5.5t-25 -15.5l-27 42q19 16 39.5 26.5t37.5 10.5q15 0 30.5 -7t18.5 -8q11 -5 22.5 -9.5t21.5 -4.5q25 0 49 19l27 -40q-38 -38 -75 -38q-12 0 -25 4.5zM130 597l112 143h49l112 -143l-44 -37l-93 102l-92 -102z
M86 23q-45 36 -45 102q0 73 52 107.5t135 47.5l131 20v40q0 46 -28.5 73t-78.5 27q-29 0 -65.5 -10t-58.5 -24l-10 -43q-8 -33 -31 -33q-9 0 -13.5 4.5t-4.5 11.5v98q41 24 94.5 40t103.5 16q82 0 134 -42t52 -120v-284l35 -11q17 -6 24 -12t7 -17q0 -14 -13 -14h-145v63h-4
q-27 -35 -69 -55.5t-93 -20.5q-64 0 -109 36zM289.5 65.5q31.5 16.5 50.5 44t19 59.5v74l-112 -18q-53 -9 -82.5 -31.5t-29.5 -63.5q0 -39 24.5 -60t64.5 -21q34 0 65.5 16.5z" />
    <glyph glyph-name="adieresis" unicode="&#xe4;" horiz-adv-x="537" 
d="M132 580.5q-16 15.5 -16 39.5t16 39.5t39 15.5q22 0 38.5 -16t16.5 -39t-16.5 -39t-38.5 -16q-23 0 -39 15.5zM329 580.5q-16 15.5 -16 39.5t16 39.5t39 15.5q22 0 38.5 -16t16.5 -39t-16.5 -39t-38.5 -16q-23 0 -39 15.5zM86 23q-45 36 -45 102q0 73 52 107.5t135 47.5
l131 20v40q0 46 -28.5 73t-78.5 27q-29 0 -65.5 -10t-58.5 -24l-10 -43q-8 -33 -31 -33q-9 0 -13.5 4.5t-4.5 11.5v98q41 24 94.5 40t103.5 16q82 0 134 -42t52 -120v-284l35 -11q17 -6 24 -12t7 -17q0 -14 -13 -14h-145v63h-4q-27 -35 -69 -55.5t-93 -20.5q-64 0 -109 36z
M289.5 65.5q31.5 16.5 50.5 44t19 59.5v74l-112 -18q-53 -9 -82.5 -31.5t-29.5 -63.5q0 -39 24.5 -60t64.5 -21q34 0 65.5 16.5z" />
    <glyph glyph-name="uni1EA1" unicode="&#x1ea1;" horiz-adv-x="537" 
d="M86 23q-45 36 -45 102q0 73 52 107.5t135 47.5l131 20v40q0 46 -28.5 73t-78.5 27q-29 0 -65.5 -10t-58.5 -24l-10 -43q-8 -33 -31 -33q-9 0 -13.5 4.5t-4.5 11.5v98q41 24 94.5 40t103.5 16q82 0 134 -42t52 -120v-284l35 -11q17 -6 24 -12t7 -17q0 -14 -13 -14h-145v63
h-4q-27 -35 -69 -55.5t-93 -20.5q-64 0 -109 36zM289.5 65.5q31.5 16.5 50.5 44t19 59.5v74l-112 -18q-53 -9 -82.5 -31.5t-29.5 -63.5q0 -39 24.5 -60t64.5 -21q34 0 65.5 16.5zM228 -161q-16 16 -16 40t16 39.5t39 15.5t39 -15.5t16 -39.5t-16 -40t-39 -16t-39 16z" />
    <glyph glyph-name="agrave" unicode="&#xe0;" horiz-adv-x="537" 
d="M169 706l73 47l94 -157l-55 -36zM86 23q-45 36 -45 102q0 73 52 107.5t135 47.5l131 20v40q0 46 -28.5 73t-78.5 27q-29 0 -65.5 -10t-58.5 -24l-10 -43q-8 -33 -31 -33q-9 0 -13.5 4.5t-4.5 11.5v98q41 24 94.5 40t103.5 16q82 0 134 -42t52 -120v-284l35 -11
q17 -6 24 -12t7 -17q0 -14 -13 -14h-145v63h-4q-27 -35 -69 -55.5t-93 -20.5q-64 0 -109 36zM289.5 65.5q31.5 16.5 50.5 44t19 59.5v74l-112 -18q-53 -9 -82.5 -31.5t-29.5 -63.5q0 -39 24.5 -60t64.5 -21q34 0 65.5 16.5z" />
    <glyph glyph-name="uni1EA3" unicode="&#x1ea3;" horiz-adv-x="537" 
d="M240 626q56 19 56 51q0 29 -33 29q-20 0 -51 -9l-7 38q14 6 32.5 10.5t34.5 4.5q39 0 64 -20.5t25 -51.5q0 -25 -16.5 -44.5t-46.5 -30.5l-6 -46h-46zM86 23q-45 36 -45 102q0 73 52 107.5t135 47.5l131 20v40q0 46 -28.5 73t-78.5 27q-29 0 -65.5 -10t-58.5 -24l-10 -43
q-8 -33 -31 -33q-9 0 -13.5 4.5t-4.5 11.5v98q41 24 94.5 40t103.5 16q82 0 134 -42t52 -120v-284l35 -11q17 -6 24 -12t7 -17q0 -14 -13 -14h-145v63h-4q-27 -35 -69 -55.5t-93 -20.5q-64 0 -109 36zM289.5 65.5q31.5 16.5 50.5 44t19 59.5v74l-112 -18q-53 -9 -82.5 -31.5
t-29.5 -63.5q0 -39 24.5 -60t64.5 -21q34 0 65.5 16.5z" />
    <glyph glyph-name="amacron" unicode="&#x101;" horiz-adv-x="537" 
d="M122 650h287v-66h-287v66zM86 23q-45 36 -45 102q0 73 52 107.5t135 47.5l131 20v40q0 46 -28.5 73t-78.5 27q-29 0 -65.5 -10t-58.5 -24l-10 -43q-8 -33 -31 -33q-9 0 -13.5 4.5t-4.5 11.5v98q41 24 94.5 40t103.5 16q82 0 134 -42t52 -120v-284l35 -11q17 -6 24 -12
t7 -17q0 -14 -13 -14h-145v63h-4q-27 -35 -69 -55.5t-93 -20.5q-64 0 -109 36zM289.5 65.5q31.5 16.5 50.5 44t19 59.5v74l-112 -18q-53 -9 -82.5 -31.5t-29.5 -63.5q0 -39 24.5 -60t64.5 -21q34 0 65.5 16.5z" />
    <glyph glyph-name="aogonek" unicode="&#x105;" horiz-adv-x="537" 
d="M319.5 -182q-32.5 27 -32.5 74q0 32 20 61t53 47h1v63h-4q-27 -35 -69 -55.5t-93 -20.5q-64 0 -109 36t-45 102q0 73 52 107.5t135 47.5l131 20v40q0 46 -28.5 73t-78.5 27q-29 0 -65.5 -10t-58.5 -24l-10 -43q-8 -33 -31 -33q-9 0 -13.5 4.5t-4.5 11.5v98q41 24 94.5 40
t103.5 16q82 0 134 -42t52 -120v-284l35 -11q17 -5 24 -11.5t7 -17.5q0 -14 -13 -14h-78q-31 -14 -52.5 -43.5t-21.5 -61.5q0 -26 16.5 -41t45.5 -15q20 0 41 7l9 -41q-30 -14 -63 -14q-51 0 -83.5 27zM289.5 65.5q31.5 16.5 50.5 44t19 59.5v74l-112 -18
q-53 -9 -82.5 -31.5t-29.5 -63.5q0 -39 24.5 -60t64.5 -21q34 0 65.5 16.5z" />
    <glyph glyph-name="aring" unicode="&#xe5;" horiz-adv-x="537" 
d="M201 579q-27 27 -27 66q0 40 27.5 67t71.5 27q45 0 72.5 -27t27.5 -67q0 -39 -27.5 -66t-72.5 -27t-72 27zM304.5 612q12.5 12 12.5 33q0 22 -12.5 34t-31.5 12q-20 0 -32.5 -12t-12.5 -34q0 -21 13 -33t32 -12t31.5 12zM86 23q-45 36 -45 102q0 73 52 107.5t135 47.5
l131 20v40q0 46 -28.5 73t-78.5 27q-29 0 -65.5 -10t-58.5 -24l-10 -43q-8 -33 -31 -33q-9 0 -13.5 4.5t-4.5 11.5v98q41 24 94.5 40t103.5 16q82 0 134 -42t52 -120v-284l35 -11q17 -6 24 -12t7 -17q0 -14 -13 -14h-145v63h-4q-27 -35 -69 -55.5t-93 -20.5q-64 0 -109 36z
M289.5 65.5q31.5 16.5 50.5 44t19 59.5v74l-112 -18q-53 -9 -82.5 -31.5t-29.5 -63.5q0 -39 24.5 -60t64.5 -21q34 0 65.5 16.5z" />
    <glyph glyph-name="aringacute" unicode="&#x1fb;" horiz-adv-x="537" 
d="M257 805l94 147l73 -47l-112 -136zM193.5 579.5q-27.5 27.5 -27.5 66.5q0 40 27.5 67t71.5 27q45 0 72.5 -27t27.5 -67t-27.5 -67t-72.5 -27q-44 0 -71.5 27.5zM297.5 612q12.5 12 12.5 34t-12.5 34t-31.5 12q-20 0 -32.5 -12t-12.5 -34t12.5 -34t32.5 -12q19 0 31.5 12z
M86 23q-45 36 -45 102q0 73 52 107.5t135 47.5l131 20v40q0 46 -28.5 73t-78.5 27q-29 0 -65.5 -10t-58.5 -24l-10 -43q-8 -33 -31 -33q-9 0 -13.5 4.5t-4.5 11.5v98q41 24 94.5 40t103.5 16q82 0 134 -42t52 -120v-284l35 -11q17 -6 24 -12t7 -17q0 -14 -13 -14h-145v63h-4
q-27 -35 -69 -55.5t-93 -20.5q-64 0 -109 36zM289.5 65.5q31.5 16.5 50.5 44t19 59.5v74l-112 -18q-53 -9 -82.5 -31.5t-29.5 -63.5q0 -39 24.5 -60t64.5 -21q34 0 65.5 16.5z" />
    <glyph glyph-name="uni0251" unicode="&#x251;" horiz-adv-x="594" 
d="M146 14.5q-50 27.5 -80 84.5t-30 141q0 79 30.5 138t84 90.5t118.5 31.5q74 0 140 -42q4 32 31 32h61v-434l38 -13q17 -7 24 -12.5t7 -16.5q0 -14 -13 -14h-145v60h-4q-52 -73 -151 -73q-61 0 -111 27.5zM370 82.5q37 35.5 37 90.5v223q-25 21 -56 32.5t-65 11.5
q-68 0 -112 -52t-44 -148q0 -93 39 -143t110 -50q54 0 91 35.5z" />
    <glyph glyph-name="atilde" unicode="&#xe3;" horiz-adv-x="537" 
d="M294.5 573.5q-13.5 4.5 -33.5 14.5q-20 9 -32 13.5t-26 4.5q-17 0 -32 -6.5t-33 -19.5l-33 46q23 21 49.5 34.5t49.5 13.5q14 0 26.5 -4.5t35.5 -14.5q20 -9 31.5 -13.5t24.5 -4.5q30 0 63 25l34 -46q-22 -22 -47.5 -34.5t-48.5 -12.5q-15 0 -28.5 4.5zM86 23
q-45 36 -45 102q0 73 52 107.5t135 47.5l131 20v40q0 46 -28.5 73t-78.5 27q-29 0 -65.5 -10t-58.5 -24l-10 -43q-8 -33 -31 -33q-9 0 -13.5 4.5t-4.5 11.5v98q41 24 94.5 40t103.5 16q82 0 134 -42t52 -120v-284l35 -11q17 -6 24 -12t7 -17q0 -14 -13 -14h-145v63h-4
q-27 -35 -69 -55.5t-93 -20.5q-64 0 -109 36zM289.5 65.5q31.5 16.5 50.5 44t19 59.5v74l-112 -18q-53 -9 -82.5 -31.5t-29.5 -63.5q0 -39 24.5 -60t64.5 -21q34 0 65.5 16.5z" />
    <glyph glyph-name="ae" unicode="&#xe6;" horiz-adv-x="842" 
d="M86 22.5q-45 35.5 -45 100.5q0 71 50.5 105t130.5 46l137 21v45q0 48 -29 74t-78 26q-29 0 -65.5 -10t-58.5 -24l-10 -43q-8 -33 -31 -33q-9 0 -13.5 4.5t-4.5 11.5v98q41 24 94.5 40t103.5 16q52 0 93 -23t62 -65q29 42 72.5 65t97.5 23q65 0 113.5 -26t75 -73
t26.5 -106q0 -35 -16 -69h-342q1 -85 44 -132t113 -47q36 0 64 9t61 29q17 10 25 10q11 0 18 -7.5t7 -20.5q0 -12 -8.5 -21.5t-25.5 -20.5q-63 -38 -145 -38q-69 0 -123.5 28.5t-85.5 81.5q-29 -52 -81 -81t-117 -29q-64 0 -109 35.5zM708 285q5 13 5 29q0 57 -33.5 91.5
t-89.5 34.5q-59 0 -97.5 -40t-43.5 -115h259zM289.5 67q31.5 18 51 47t19.5 61q-1 8 -2.5 17t-2.5 22q0 4 -0.5 10t0.5 14l-114 -18q-106 -18 -106 -93q0 -37 24.5 -57.5t64.5 -20.5q34 0 65.5 18z" />
    <glyph glyph-name="aeacute" unicode="&#x1fd;" horiz-adv-x="842" 
d="M362 596l94 157l73 -47l-112 -146zM86 22.5q-45 35.5 -45 100.5q0 71 50.5 105t130.5 46l137 21v45q0 48 -29 74t-78 26q-29 0 -65.5 -10t-58.5 -24l-10 -43q-8 -33 -31 -33q-9 0 -13.5 4.5t-4.5 11.5v98q41 24 94.5 40t103.5 16q52 0 93 -23t62 -65q29 42 72.5 65
t97.5 23q65 0 113.5 -26t75 -73t26.5 -106q0 -35 -16 -69h-342q1 -85 44 -132t113 -47q38 0 66.5 8.5t58.5 29.5q13 10 25 10q11 0 18 -7.5t7 -20.5q0 -12 -8.5 -21.5t-25.5 -20.5q-63 -38 -145 -38q-69 0 -123.5 28.5t-85.5 81.5q-29 -52 -81 -81t-117 -29q-64 0 -109 35.5
zM708 285q5 13 5 29q0 57 -33.5 91.5t-89.5 34.5q-59 0 -97.5 -40t-43.5 -115h259zM289.5 67q31.5 18 51 47t19.5 61q-1 8 -2.5 17t-2.5 22q0 4 -0.5 10t0.5 14l-114 -18q-106 -18 -106 -93q0 -37 24.5 -57.5t64.5 -20.5q34 0 65.5 18z" />
    <glyph glyph-name="b" unicode="b" horiz-adv-x="590" 
d="M189 3q-58 16 -103 43v608h-49q-19 0 -19 23q0 17 11.5 25t31.5 8h115v-277l3 -2q30 33 70.5 51t87.5 18q95 0 155 -65.5t60 -194.5q0 -125 -70 -189t-181 -64q-54 0 -112 16zM457 239q0 105 -39 153t-107 48q-34 0 -64.5 -15t-49.5 -42t-19 -59v-246q25 -14 57.5 -22.5
t60.5 -8.5q161 0 161 192z" />
    <glyph glyph-name="c" unicode="c" horiz-adv-x="490" 
d="M154 18q-56 31 -87 89.5t-31 137.5q0 80 30.5 137.5t84.5 87.5t123 30q51 0 99.5 -18t74.5 -42v-96q0 -7 -4.5 -11.5t-13.5 -4.5q-23 0 -31 33l-10 48q-17 14 -45.5 22.5t-58.5 8.5q-69 0 -112 -51t-43 -145q0 -95 44.5 -146t116.5 -51q63 0 118 37l10 6.5t12 4.5
q11 0 18 -8t7 -21q0 -20 -36 -44q-56 -35 -135 -35q-75 0 -131 31z" />
    <glyph glyph-name="cacute" unicode="&#x107;" horiz-adv-x="490" 
d="M195 596l94 157l73 -47l-112 -146zM154 18q-56 31 -87 89.5t-31 137.5q0 80 30.5 137.5t84.5 87.5t123 30q51 0 99.5 -18t74.5 -42v-96q0 -7 -4.5 -11.5t-13.5 -4.5q-23 0 -31 33l-10 48q-17 14 -45.5 22.5t-58.5 8.5q-69 0 -112 -51t-43 -145q0 -95 44.5 -146t116.5 -51
q63 0 118 37l10 6.5t12 4.5q11 0 18 -8t7 -21q0 -20 -36 -44q-56 -35 -135 -35q-75 0 -131 31z" />
    <glyph glyph-name="ccaron" unicode="&#x10d;" horiz-adv-x="490" 
d="M129 703l44 37l92 -102l93 102l44 -37l-112 -143h-49zM154 18q-56 31 -87 89.5t-31 137.5q0 80 30.5 137.5t84.5 87.5t123 30q51 0 99.5 -18t74.5 -42v-96q0 -7 -4.5 -11.5t-13.5 -4.5q-23 0 -31 33l-10 48q-17 14 -45.5 22.5t-58.5 8.5q-69 0 -112 -51t-43 -145
q0 -95 44.5 -146t116.5 -51q63 0 118 37l10 6.5t12 4.5q11 0 18 -8t7 -21q0 -20 -36 -44q-56 -35 -135 -35q-75 0 -131 31z" />
    <glyph glyph-name="ccedilla" unicode="&#xe7;" horiz-adv-x="490" 
d="M201 -182q34 11 51 28.5t17 38.5q0 38 -45 52l19 53q-95 12 -151 79.5t-56 175.5q0 80 30.5 137.5t84.5 87.5t123 30q51 0 99.5 -18t74.5 -42v-96q0 -7 -4.5 -11.5t-13.5 -4.5q-23 0 -31 33l-10 48q-17 14 -45.5 22.5t-58.5 8.5q-69 0 -112 -51t-43 -145q0 -95 44.5 -146
t116.5 -51q63 0 118 37l10 6.5t12 4.5q11 0 18 -8t7 -21q0 -20 -36 -44q-50 -31 -114 -34l-18 -39q49 -20 49 -66q0 -34 -36 -61.5t-86 -37.5z" />
    <glyph glyph-name="ccircumflex" unicode="&#x109;" horiz-adv-x="490" 
d="M128 597l112 143h49l112 -143l-44 -37l-93 102l-92 -102zM154 18q-56 31 -87 89.5t-31 137.5q0 80 30.5 137.5t84.5 87.5t123 30q51 0 99.5 -18t74.5 -42v-96q0 -7 -4.5 -11.5t-13.5 -4.5q-23 0 -31 33l-10 48q-17 14 -45.5 22.5t-58.5 8.5q-69 0 -112 -51t-43 -145
q0 -95 44.5 -146t116.5 -51q63 0 118 37l10 6.5t12 4.5q11 0 18 -8t7 -21q0 -20 -36 -44q-56 -35 -135 -35q-75 0 -131 31z" />
    <glyph glyph-name="cdotaccent" unicode="&#x10b;" horiz-adv-x="490" 
d="M226 569q-16 16 -16 39q0 24 16 40t39 16t39 -16t16 -40q0 -23 -16 -39t-39 -16t-39 16zM154 18q-56 31 -87 89.5t-31 137.5q0 80 30.5 137.5t84.5 87.5t123 30q51 0 99.5 -18t74.5 -42v-96q0 -7 -4.5 -11.5t-13.5 -4.5q-23 0 -31 33l-10 48q-17 14 -45.5 22.5t-58.5 8.5
q-69 0 -112 -51t-43 -145q0 -95 44.5 -146t116.5 -51q63 0 118 37l10 6.5t12 4.5q11 0 18 -8t7 -21q0 -20 -36 -44q-56 -35 -135 -35q-75 0 -131 31z" />
    <glyph glyph-name="d" unicode="d" horiz-adv-x="598" 
d="M147.5 14.5q-50.5 27.5 -81 84.5t-30.5 141q0 79 30.5 138t84.5 90.5t121 31.5q76 0 140 -41v195h-48q-19 0 -19 23q0 33 43 33h116v-654l39 -13q17 -5 24 -11.5t7 -17.5q0 -14 -14 -14h-144v62h-4q-25 -34 -63 -54.5t-89 -20.5q-62 0 -112.5 27.5zM374 81.5
q37 34.5 37 89.5v225q-24 21 -56 32.5t-66 11.5q-45 0 -81 -23t-57 -68t-21 -109q0 -93 40 -143t112 -50q55 0 92 34.5z" />
    <glyph glyph-name="eth" unicode="&#xf0;" horiz-adv-x="613" 
d="M164.5 16.5q-52.5 26.5 -83.5 77t-31 121.5q0 92 57 146.5t158 54.5q86 0 171 -55q0 118 -55 189l-114 -51l-22 49l95 42q-55 40 -136 40q-42 0 -77 -9v64q43 10 79 10q128 0 212 -70l123 55l22 -48l-106 -48q39 -49 58.5 -115t19.5 -144q0 -158 -64 -246.5t-189 -88.5
q-65 0 -117.5 26.5zM396.5 119.5q38.5 64.5 38.5 173.5q-31 24 -72 40.5t-77 16.5q-65 0 -100.5 -34.5t-35.5 -103.5q0 -68 36.5 -112.5t98.5 -44.5q73 0 111.5 64.5z" />
    <glyph glyph-name="dcaron" unicode="&#x10f;" horiz-adv-x="684" 
d="M147.5 14.5q-50.5 27.5 -81 84.5t-30.5 141q0 79 30.5 138t84.5 90.5t121 31.5q76 0 140 -41v195h-48q-19 0 -19 23q0 33 43 33h116v-654l39 -13q17 -5 24 -11.5t7 -17.5q0 -14 -14 -14h-144v62h-4q-25 -34 -63 -54.5t-89 -20.5q-62 0 -112.5 27.5zM554 526
q19 28 36 65.5t20 61.5l-28 9q-14 5 -14 18t7.5 20.5t21.5 7.5q3 0 13 -2l84 -19q-12 -46 -38.5 -98t-59.5 -89zM374 81.5q37 34.5 37 89.5v225q-24 21 -56 32.5t-66 11.5q-45 0 -81 -23t-57 -68t-21 -109q0 -93 40 -143t112 -50q55 0 92 34.5z" />
    <glyph glyph-name="dcroat" unicode="&#x111;" horiz-adv-x="580" 
d="M148.5 14.5q-50.5 27.5 -81 84.5t-30.5 141q0 79 30.5 138t84.5 90.5t121 31.5q76 0 140 -41v96h-119v42h119v57h-48q-19 0 -19 23q0 33 43 33h116v-113h85v-42h-85v-499l39 -13q17 -6 24 -12t7 -17q0 -14 -14 -14h-144v62h-4q-25 -34 -63 -54.5t-89 -20.5
q-62 0 -112.5 27.5zM375 81.5q37 34.5 37 89.5v225q-24 21 -56 32.5t-66 11.5q-45 0 -81 -23t-57 -68t-21 -109q0 -93 40 -143t112 -50q55 0 92 34.5z" />
    <glyph glyph-name="uni1E0D" unicode="&#x1e0d;" horiz-adv-x="598" 
d="M147.5 14.5q-50.5 27.5 -81 84.5t-30.5 141q0 79 30.5 138t84.5 90.5t121 31.5q76 0 140 -41v195h-48q-19 0 -19 23q0 33 43 33h116v-654l39 -13q17 -5 24 -11.5t7 -17.5q0 -14 -14 -14h-144v62h-4q-25 -34 -63 -54.5t-89 -20.5q-62 0 -112.5 27.5zM374 81.5
q37 34.5 37 89.5v225q-24 21 -56 32.5t-66 11.5q-45 0 -81 -23t-57 -68t-21 -109q0 -93 40 -143t112 -50q55 0 92 34.5zM259 -161q-16 16 -16 40t16 39.5t39 15.5t39 -15.5t16 -39.5t-16 -40t-39 -16t-39 16z" />
    <glyph glyph-name="uni1E0F" unicode="&#x1e0f;" horiz-adv-x="600" 
d="M147.5 14.5q-50.5 27.5 -81 84.5t-30.5 141q0 79 30.5 138t84.5 90.5t121 31.5q76 0 140 -41v195h-48q-19 0 -19 23q0 33 43 33h116v-654l39 -13q17 -5 24 -11.5t7 -17.5q0 -14 -14 -14h-144v62h-4q-25 -34 -63 -54.5t-89 -20.5q-62 0 -112.5 27.5zM374 81.5
q37 34.5 37 89.5v225q-24 21 -56 32.5t-66 11.5q-45 0 -81 -23t-57 -68t-21 -109q0 -93 40 -143t112 -50q55 0 92 34.5zM110 -88h388v-65h-388v65z" />
    <glyph glyph-name="e" unicode="e" horiz-adv-x="526" 
d="M157 17q-56 30 -87.5 87t-31.5 136q0 80 29.5 138.5t83 90t124.5 31.5q98 0 157 -57.5t59 -152.5q0 -36 -16 -70h-343q0 -84 45.5 -128.5t111.5 -44.5q36 0 66 9.5t60 28.5q15 10 24 10q11 0 18.5 -8t7.5 -20t-8.5 -21.5t-26.5 -20.5q-61 -38 -145 -38q-72 0 -128 30z
M393 280q4 11 4 29q0 62 -33.5 96.5t-89.5 34.5q-59 0 -97.5 -42.5t-43.5 -117.5h260z" />
    <glyph glyph-name="eacute" unicode="&#xe9;" horiz-adv-x="526" 
d="M194 596l94 157l73 -47l-112 -146zM157 17q-56 30 -87.5 87t-31.5 136q0 80 29.5 138.5t83 90t124.5 31.5q98 0 157 -57.5t59 -152.5q0 -36 -16 -70h-343q0 -84 45.5 -128.5t111.5 -44.5q36 0 66 9.5t60 28.5q15 10 24 10q11 0 18.5 -8t7.5 -20t-8.5 -21.5t-26.5 -20.5
q-61 -38 -145 -38q-72 0 -128 30zM393 280q4 11 4 29q0 62 -33.5 96.5t-89.5 34.5q-59 0 -97.5 -42.5t-43.5 -117.5h260z" />
    <glyph glyph-name="ebreve" unicode="&#x115;" horiz-adv-x="526" 
d="M167.5 581q-41.5 31 -59.5 96l54 19q12 -38 38 -59t62 -21q37 0 63 21.5t37 58.5l55 -19q-18 -65 -59.5 -96t-95.5 -31q-53 0 -94.5 31zM157 17q-56 30 -87.5 87t-31.5 136q0 80 29.5 138.5t83 90t124.5 31.5q98 0 157 -57.5t59 -152.5q0 -36 -16 -70h-343
q0 -84 45.5 -128.5t111.5 -44.5q36 0 66 9.5t60 28.5q15 10 24 10q11 0 18.5 -8t7.5 -20t-8.5 -21.5t-26.5 -20.5q-61 -38 -145 -38q-72 0 -128 30zM393 280q4 11 4 29q0 62 -33.5 96.5t-89.5 34.5q-59 0 -97.5 -42.5t-43.5 -117.5h260z" />
    <glyph glyph-name="ecaron" unicode="&#x11b;" horiz-adv-x="526" 
d="M124 703l44 37l92 -102l93 102l44 -37l-112 -143h-49zM157 17q-56 30 -87.5 87t-31.5 136q0 80 29.5 138.5t83 90t124.5 31.5q98 0 157 -57.5t59 -152.5q0 -36 -16 -70h-343q0 -84 45.5 -128.5t111.5 -44.5q36 0 66 9.5t60 28.5q15 10 24 10q11 0 18.5 -8t7.5 -20
t-8.5 -21.5t-26.5 -20.5q-61 -38 -145 -38q-72 0 -128 30zM393 280q4 11 4 29q0 62 -33.5 96.5t-89.5 34.5q-59 0 -97.5 -42.5t-43.5 -117.5h260z" />
    <glyph glyph-name="ecircumflex" unicode="&#xea;" horiz-adv-x="526" 
d="M132 597l112 143h49l112 -143l-44 -37l-93 102l-92 -102zM157 17q-56 30 -87.5 87t-31.5 136q0 80 29.5 138.5t83 90t124.5 31.5q98 0 157 -57.5t59 -152.5q0 -36 -16 -70h-343q0 -84 45.5 -128.5t111.5 -44.5q36 0 66 9.5t60 28.5q15 10 24 10q11 0 18.5 -8t7.5 -20
t-8.5 -21.5t-26.5 -20.5q-61 -38 -145 -38q-72 0 -128 30zM393 280q4 11 4 29q0 62 -33.5 96.5t-89.5 34.5q-59 0 -97.5 -42.5t-43.5 -117.5h260z" />
    <glyph glyph-name="uni1EBF" unicode="&#x1ebf;" horiz-adv-x="546" 
d="M367 698l65 115l65 -42l-86 -102zM132 597l112 143h49l112 -143l-44 -37l-93 102l-92 -102zM157 17q-56 30 -87.5 87t-31.5 136q0 80 29.5 138.5t83 90t124.5 31.5q98 0 157 -57.5t59 -152.5q0 -36 -16 -70h-343q0 -84 45.5 -128.5t111.5 -44.5q36 0 66 9.5t60 28.5
q15 10 24 10q11 0 18.5 -8t7.5 -20t-8.5 -21.5t-26.5 -20.5q-61 -38 -145 -38q-72 0 -128 30zM393 280q4 11 4 29q0 62 -33.5 96.5t-89.5 34.5q-59 0 -97.5 -42.5t-43.5 -117.5h260z" />
    <glyph glyph-name="uni1EC7" unicode="&#x1ec7;" horiz-adv-x="526" 
d="M130 597l112 143h49l112 -143l-44 -37l-93 102l-92 -102zM157 17q-56 30 -87.5 87t-31.5 136q0 80 29.5 138.5t83 90t124.5 31.5q98 0 157 -57.5t59 -152.5q0 -36 -16 -70h-343q0 -84 45.5 -128.5t111.5 -44.5q36 0 66 9.5t60 28.5q15 10 24 10q11 0 18.5 -8t7.5 -20
t-8.5 -21.5t-26.5 -20.5q-61 -38 -145 -38q-72 0 -128 30zM393 280q4 11 4 29q0 62 -33.5 96.5t-89.5 34.5q-59 0 -97.5 -42.5t-43.5 -117.5h260zM238 -161q-16 16 -16 40t16 39.5t39 15.5t39 -15.5t16 -39.5t-16 -40t-39 -16t-39 16z" />
    <glyph glyph-name="uni1EC1" unicode="&#x1ec1;" horiz-adv-x="536" 
d="M55 771l65 42l65 -115l-44 -29zM148 597l112 143h49l112 -143l-44 -37l-93 102l-92 -102zM168 17q-56 30 -87.5 87t-31.5 136q0 80 29.5 138.5t83 90t124.5 31.5q98 0 157 -57.5t59 -152.5q0 -36 -16 -70h-343q0 -84 45.5 -128.5t111.5 -44.5q36 0 66 9.5t60 28.5
q15 10 24 10q11 0 18.5 -8t7.5 -20t-8.5 -21.5t-26.5 -20.5q-61 -38 -145 -38q-72 0 -128 30zM404 280q4 11 4 29q0 62 -33.5 96.5t-89.5 34.5q-59 0 -97.5 -42.5t-43.5 -117.5h260z" />
    <glyph glyph-name="uni1EC3" unicode="&#x1ec3;" horiz-adv-x="530" 
d="M407 732q54 19 54 50q0 28 -32 28q-18 0 -49 -9l-7 37q13 6 31 10t34 4q39 0 62.5 -19.5t23.5 -50.5q0 -24 -16 -42.5t-44 -29.5l-6 -45h-46zM143 597l112 143h49l112 -143l-44 -37l-93 102l-92 -102zM157 17q-56 30 -87.5 87t-31.5 136q0 80 29.5 138.5t83 90
t124.5 31.5q98 0 157 -57.5t59 -152.5q0 -36 -16 -70h-343q0 -84 45.5 -128.5t111.5 -44.5q36 0 66 9.5t60 28.5q15 10 24 10q11 0 18.5 -8t7.5 -20t-8.5 -21.5t-26.5 -20.5q-61 -38 -145 -38q-72 0 -128 30zM393 280q4 11 4 29q0 62 -33.5 96.5t-89.5 34.5
q-59 0 -97.5 -42.5t-43.5 -117.5h260z" />
    <glyph glyph-name="uni1EC5" unicode="&#x1ec5;" horiz-adv-x="527" 
d="M292 774.5q-13 4.5 -24 10.5q-28 15 -45 15q-14 0 -25 -5.5t-25 -15.5l-27 42q19 16 39.5 26.5t37.5 10.5q15 0 30.5 -7t18.5 -8q11 -5 22.5 -9.5t21.5 -4.5q25 0 49 19l27 -40q-38 -38 -75 -38q-12 0 -25 4.5zM131 597l112 143h49l112 -143l-44 -37l-93 102l-92 -102z
M157 17q-56 30 -87.5 87t-31.5 136q0 80 29.5 138.5t83 90t124.5 31.5q98 0 157 -57.5t59 -152.5q0 -36 -16 -70h-343q0 -84 45.5 -128.5t111.5 -44.5q36 0 66 9.5t60 28.5q15 10 24 10q11 0 18.5 -8t7.5 -20t-8.5 -21.5t-26.5 -20.5q-61 -38 -145 -38q-72 0 -128 30z
M393 280q4 11 4 29q0 62 -33.5 96.5t-89.5 34.5q-59 0 -97.5 -42.5t-43.5 -117.5h260z" />
    <glyph glyph-name="edieresis" unicode="&#xeb;" horiz-adv-x="526" 
d="M130 580.5q-16 15.5 -16 39.5t16 39.5t39 15.5q22 0 38.5 -16t16.5 -39t-16.5 -39t-38.5 -16q-23 0 -39 15.5zM328 580.5q-16 15.5 -16 39.5t16 39.5t39 15.5q22 0 38.5 -16t16.5 -39t-16.5 -39t-38.5 -16q-23 0 -39 15.5zM157 17q-56 30 -87.5 87t-31.5 136
q0 80 29.5 138.5t83 90t124.5 31.5q98 0 157 -57.5t59 -152.5q0 -36 -16 -70h-343q0 -84 45.5 -128.5t111.5 -44.5q36 0 66 9.5t60 28.5q15 10 24 10q11 0 18.5 -8t7.5 -20t-8.5 -21.5t-26.5 -20.5q-61 -38 -145 -38q-72 0 -128 30zM393 280q4 11 4 29q0 62 -33.5 96.5
t-89.5 34.5q-59 0 -97.5 -42.5t-43.5 -117.5h260z" />
    <glyph glyph-name="edotaccent" unicode="&#x117;" horiz-adv-x="526" 
d="M227 569q-16 16 -16 39q0 24 16 40t39 16t39 -16t16 -40q0 -23 -16 -39t-39 -16t-39 16zM157 17q-56 30 -87.5 87t-31.5 136q0 80 29.5 138.5t83 90t124.5 31.5q98 0 157 -57.5t59 -152.5q0 -36 -16 -70h-343q0 -84 45.5 -128.5t111.5 -44.5q36 0 66 9.5t60 28.5
q15 10 24 10q11 0 18.5 -8t7.5 -20t-8.5 -21.5t-26.5 -20.5q-61 -38 -145 -38q-72 0 -128 30zM393 280q4 11 4 29q0 62 -33.5 96.5t-89.5 34.5q-59 0 -97.5 -42.5t-43.5 -117.5h260z" />
    <glyph glyph-name="uni1EB9" unicode="&#x1eb9;" horiz-adv-x="526" 
d="M157 17q-56 30 -87.5 87t-31.5 136q0 80 29.5 138.5t83 90t124.5 31.5q98 0 157 -57.5t59 -152.5q0 -36 -16 -70h-343q0 -84 45.5 -128.5t111.5 -44.5q36 0 66 9.5t60 28.5q15 10 24 10q11 0 18.5 -8t7.5 -20t-8.5 -21.5t-26.5 -20.5q-61 -38 -145 -38q-72 0 -128 30z
M393 280q4 11 4 29q0 62 -33.5 96.5t-89.5 34.5q-59 0 -97.5 -42.5t-43.5 -117.5h260zM238 -161q-16 16 -16 40t16 39.5t39 15.5t39 -15.5t16 -39.5t-16 -40t-39 -16t-39 16z" />
    <glyph glyph-name="egrave" unicode="&#xe8;" horiz-adv-x="526" 
d="M166 706l73 47l94 -157l-55 -36zM157 17q-56 30 -87.5 87t-31.5 136q0 80 29.5 138.5t83 90t124.5 31.5q98 0 157 -57.5t59 -152.5q0 -36 -16 -70h-343q0 -84 45.5 -128.5t111.5 -44.5q36 0 66 9.5t60 28.5q15 10 24 10q11 0 18.5 -8t7.5 -20t-8.5 -21.5t-26.5 -20.5
q-61 -38 -145 -38q-72 0 -128 30zM393 280q4 11 4 29q0 62 -33.5 96.5t-89.5 34.5q-59 0 -97.5 -42.5t-43.5 -117.5h260z" />
    <glyph glyph-name="uni1EBB" unicode="&#x1ebb;" horiz-adv-x="526" 
d="M247 626q56 19 56 51q0 29 -33 29q-20 0 -51 -9l-7 38q14 6 32.5 10.5t34.5 4.5q39 0 64 -20.5t25 -51.5q0 -25 -16.5 -44.5t-46.5 -30.5l-6 -46h-46zM157 17q-56 30 -87.5 87t-31.5 136q0 80 29.5 138.5t83 90t124.5 31.5q98 0 157 -57.5t59 -152.5q0 -36 -16 -70h-343
q0 -84 45.5 -128.5t111.5 -44.5q36 0 66 9.5t60 28.5q15 10 24 10q11 0 18.5 -8t7.5 -20t-8.5 -21.5t-26.5 -20.5q-61 -38 -145 -38q-72 0 -128 30zM393 280q4 11 4 29q0 62 -33.5 96.5t-89.5 34.5q-59 0 -97.5 -42.5t-43.5 -117.5h260z" />
    <glyph glyph-name="emacron" unicode="&#x113;" horiz-adv-x="526" 
d="M122 650h287v-66h-287v66zM157 17q-56 30 -87.5 87t-31.5 136q0 80 29.5 138.5t83 90t124.5 31.5q98 0 157 -57.5t59 -152.5q0 -36 -16 -70h-343q0 -84 45.5 -128.5t111.5 -44.5q36 0 66 9.5t60 28.5q15 10 24 10q11 0 18.5 -8t7.5 -20t-8.5 -21.5t-26.5 -20.5
q-61 -38 -145 -38q-72 0 -128 30zM393 280q4 11 4 29q0 62 -33.5 96.5t-89.5 34.5q-59 0 -97.5 -42.5t-43.5 -117.5h260z" />
    <glyph glyph-name="eogonek" unicode="&#x119;" horiz-adv-x="526" 
d="M231.5 -182q-32.5 27 -32.5 74q0 27 14.5 52.5t40.5 44.5q-98 9 -157 75.5t-59 175.5q0 80 29.5 138.5t83 90t124.5 31.5q98 0 157 -57.5t59 -152.5q0 -36 -16 -70h-343q0 -84 45.5 -128.5t111.5 -44.5q37 0 66.5 9t59.5 29q15 10 24 10q11 0 18.5 -8t7.5 -20t-8.5 -21.5
t-26.5 -20.5q-50 -30 -109 -36q-24 -17 -39.5 -42t-15.5 -52q0 -26 16.5 -41t45.5 -15q20 0 41 7l9 -41q-30 -14 -63 -14q-51 0 -83.5 27zM393 280q4 11 4 29q0 62 -33.5 96.5t-89.5 34.5q-59 0 -97.5 -42.5t-43.5 -117.5h260z" />
    <glyph glyph-name="uni1EBD" unicode="&#x1ebd;" horiz-adv-x="526" 
d="M308.5 573.5q-13.5 4.5 -33.5 14.5q-20 9 -32 13.5t-26 4.5q-17 0 -32 -6.5t-33 -19.5l-33 46q23 21 49.5 34.5t49.5 13.5q14 0 26.5 -4.5t35.5 -14.5q20 -9 31.5 -13.5t24.5 -4.5q30 0 63 25l34 -46q-22 -22 -47.5 -34.5t-48.5 -12.5q-15 0 -28.5 4.5zM157 17
q-56 30 -87.5 87t-31.5 136q0 80 29.5 138.5t83 90t124.5 31.5q98 0 157 -57.5t59 -152.5q0 -36 -16 -70h-343q0 -84 45.5 -128.5t111.5 -44.5q36 0 66 9.5t60 28.5q15 10 24 10q11 0 18.5 -8t7.5 -20t-8.5 -21.5t-26.5 -20.5q-61 -38 -145 -38q-72 0 -128 30zM393 280
q4 11 4 29q0 62 -33.5 96.5t-89.5 34.5q-59 0 -97.5 -42.5t-43.5 -117.5h260z" />
    <glyph glyph-name="f" unicode="f" horiz-adv-x="431" 
d="M55 6.5q-5 6.5 -5 17.5q0 16 11.5 24t31.5 8h25v371h-56q-9 0 -14.5 7t-5.5 18q0 16 11.5 25.5t31.5 9.5h33v78q0 76 44 115.5t114 39.5q45 0 85 -14.5t66 -36.5v-92q0 -6 -5 -10.5t-14 -4.5q-12 0 -19 8t-11 24l-10 46q-31 20 -73 20q-38 0 -61 -23.5t-23 -67.5v-82h130
q15 0 15 -16q0 -30 -52 -36l-93 -8v-371l45 -13q16 -5 23 -11.5t7 -17.5q0 -14 -13 -14h-204q-9 0 -14 6.5z" />
    <glyph glyph-name="g" unicode="g" horiz-adv-x="562" 
d="M188 -222q-44 11 -74 29q-36 21 -36 43q0 12 7.5 19.5t17.5 7.5q6 0 13.5 -4t10.5 -6q65 -40 145 -40q71 0 107 34.5t36 100.5v97h-4q-24 -33 -62 -52.5t-90 -19.5q-61 0 -111.5 27.5t-81 84.5t-30.5 141q0 85 34 143.5t92 87.5t128 29q57 0 115.5 -21t99.5 -55v-448
q0 -99 -59 -154t-170 -55q-44 0 -88 11zM374 81.5q38 34.5 38 89.5v233q-25 17 -57 26.5t-64 9.5q-70 0 -115.5 -51.5t-45.5 -148.5q0 -93 40 -143t111 -50q55 0 93 34.5z" />
    <glyph glyph-name="gbreve" unicode="&#x11f;" horiz-adv-x="562" 
d="M190.5 581q-41.5 31 -59.5 96l54 19q12 -38 38 -59t62 -21q37 0 63 21.5t37 58.5l55 -19q-18 -65 -59.5 -96t-95.5 -31q-53 0 -94.5 31zM188 -222q-44 11 -74 29q-36 21 -36 43q0 12 7.5 19.5t17.5 7.5q6 0 13.5 -4t10.5 -6q65 -40 145 -40q71 0 107 34.5t36 100.5v97h-4
q-24 -33 -62 -52.5t-90 -19.5q-61 0 -111.5 27.5t-81 84.5t-30.5 141q0 85 34 143.5t92 87.5t128 29q57 0 115.5 -21t99.5 -55v-448q0 -99 -59 -154t-170 -55q-44 0 -88 11zM374 81.5q38 34.5 38 89.5v233q-25 17 -57 26.5t-64 9.5q-70 0 -115.5 -51.5t-45.5 -148.5
q0 -93 40 -143t111 -50q55 0 93 34.5z" />
    <glyph glyph-name="gcaron" unicode="&#x1e7;" horiz-adv-x="562" 
d="M143 703l44 37l92 -102l93 102l44 -37l-112 -143h-49zM188 -222q-44 11 -74 29q-36 21 -36 43q0 12 7.5 19.5t17.5 7.5q6 0 13.5 -4t10.5 -6q65 -40 145 -40q71 0 107 34.5t36 100.5v97h-4q-24 -33 -62 -52.5t-90 -19.5q-61 0 -111.5 27.5t-81 84.5t-30.5 141
q0 85 34 143.5t92 87.5t128 29q57 0 115.5 -21t99.5 -55v-448q0 -99 -59 -154t-170 -55q-44 0 -88 11zM374 81.5q38 34.5 38 89.5v233q-25 17 -57 26.5t-64 9.5q-70 0 -115.5 -51.5t-45.5 -148.5q0 -93 40 -143t111 -50q55 0 93 34.5z" />
    <glyph glyph-name="gcircumflex" unicode="&#x11d;" horiz-adv-x="562" 
d="M149 597l112 143h49l112 -143l-44 -37l-93 102l-92 -102zM188 -222q-44 11 -74 29q-36 21 -36 43q0 12 7.5 19.5t17.5 7.5q6 0 13.5 -4t10.5 -6q65 -40 145 -40q71 0 107 34.5t36 100.5v97h-4q-24 -33 -62 -52.5t-90 -19.5q-61 0 -111.5 27.5t-81 84.5t-30.5 141
q0 85 34 143.5t92 87.5t128 29q57 0 115.5 -21t99.5 -55v-448q0 -99 -59 -154t-170 -55q-44 0 -88 11zM374 81.5q38 34.5 38 89.5v233q-25 17 -57 26.5t-64 9.5q-70 0 -115.5 -51.5t-45.5 -148.5q0 -93 40 -143t111 -50q55 0 93 34.5z" />
    <glyph glyph-name="gcommaaccent" unicode="&#x123;" horiz-adv-x="562" 
d="M230 573q12 46 38 98t59 89l43 -26q-19 -28 -36 -65.5t-20 -61.5l28 -9q14 -5 14 -18t-7.5 -20.5t-21.5 -7.5q-3 0 -13 2zM188 -222q-44 11 -74 29q-36 21 -36 43q0 12 7.5 19.5t17.5 7.5q6 0 13.5 -4t10.5 -6q65 -40 145 -40q71 0 107 34.5t36 100.5v97h-4
q-24 -33 -62 -52.5t-90 -19.5q-61 0 -111.5 27.5t-81 84.5t-30.5 141q0 85 34 143.5t92 87.5t128 29q57 0 115.5 -21t99.5 -55v-448q0 -99 -59 -154t-170 -55q-44 0 -88 11zM374 81.5q38 34.5 38 89.5v233q-25 17 -57 26.5t-64 9.5q-70 0 -115.5 -51.5t-45.5 -148.5
q0 -93 40 -143t111 -50q55 0 93 34.5z" />
    <glyph glyph-name="gdotaccent" unicode="&#x121;" horiz-adv-x="562" 
d="M245 569q-16 16 -16 39q0 24 16 40t39 16t39 -16t16 -40q0 -23 -16 -39t-39 -16t-39 16zM188 -222q-44 11 -74 29q-36 21 -36 43q0 12 7.5 19.5t17.5 7.5q6 0 13.5 -4t10.5 -6q65 -40 145 -40q71 0 107 34.5t36 100.5v97h-4q-24 -33 -62 -52.5t-90 -19.5
q-61 0 -111.5 27.5t-81 84.5t-30.5 141q0 85 34 143.5t92 87.5t128 29q57 0 115.5 -21t99.5 -55v-448q0 -99 -59 -154t-170 -55q-44 0 -88 11zM374 81.5q38 34.5 38 89.5v233q-25 17 -57 26.5t-64 9.5q-70 0 -115.5 -51.5t-45.5 -148.5q0 -93 40 -143t111 -50q55 0 93 34.5z
" />
    <glyph glyph-name="uni1E21" unicode="&#x1e21;" horiz-adv-x="562" 
d="M146 650h287v-66h-287v66zM188 -222q-44 11 -74 29q-36 21 -36 43q0 12 7.5 19.5t17.5 7.5q6 0 13.5 -4t10.5 -6q65 -40 145 -40q71 0 107 34.5t36 100.5v97h-4q-24 -33 -62 -52.5t-90 -19.5q-61 0 -111.5 27.5t-81 84.5t-30.5 141q0 85 34 143.5t92 87.5t128 29
q57 0 115.5 -21t99.5 -55v-448q0 -99 -59 -154t-170 -55q-44 0 -88 11zM374 81.5q38 34.5 38 89.5v233q-25 17 -57 26.5t-64 9.5q-70 0 -115.5 -51.5t-45.5 -148.5q0 -93 40 -143t111 -50q55 0 93 34.5z" />
    <glyph glyph-name="h" unicode="h" horiz-adv-x="639" 
d="M53 6.5q-5 6.5 -5 17.5q0 16 11.5 24t31.5 8h25v598h-49q-19 0 -19 23q0 17 11.5 25t31.5 8h115v-285l3 -1q83 76 171 76q71 0 117.5 -41.5t46.5 -112.5v-290l45 -13q16 -5 23 -11.5t7 -17.5q0 -14 -13 -14h-204q-9 0 -14 6.5t-5 17.5q0 16 11.5 24t31.5 8h25v283
q0 45 -26 72t-74 27q-37 0 -74.5 -20.5t-67.5 -53.5v-308l45 -13q16 -5 23 -11.5t7 -17.5q0 -14 -13 -14h-204q-9 0 -14 6.5z" />
    <glyph glyph-name="hbar" unicode="&#x127;" horiz-adv-x="640" 
d="M54 6.5q-5 6.5 -5 17.5q0 16 11.5 24t31.5 8h25v499h-68v42h68v57h-49q-19 0 -19 23q0 17 11.5 25t31.5 8h115v-113h172v-42h-172v-130l3 -1q83 76 171 76q71 0 117.5 -41.5t46.5 -112.5v-290l45 -13q16 -5 23 -11.5t7 -17.5q0 -14 -13 -14h-204q-9 0 -14 6.5t-5 17.5
q0 16 11.5 24t31.5 8h25v283q0 45 -26 72t-74 27q-37 0 -74.5 -20.5t-67.5 -53.5v-308l45 -13q16 -5 23 -11.5t7 -17.5q0 -14 -13 -14h-204q-9 0 -14 6.5z" />
    <glyph glyph-name="uni1E2B" unicode="&#x1e2b;" horiz-adv-x="639" 
d="M53 6.5q-5 6.5 -5 17.5q0 16 11.5 24t31.5 8h25v598h-49q-19 0 -19 23q0 17 11.5 25t31.5 8h115v-285l3 -1q83 76 171 76q71 0 117.5 -41.5t46.5 -112.5v-290l45 -13q16 -5 23 -11.5t7 -17.5q0 -14 -13 -14h-204q-9 0 -14 6.5t-5 17.5q0 16 11.5 24t31.5 8h25v283
q0 45 -26 72t-74 27q-37 0 -74.5 -20.5t-67.5 -53.5v-308l45 -13q16 -5 23 -11.5t7 -17.5q0 -14 -13 -14h-204q-9 0 -14 6.5zM242.5 -175q-41.5 31 -59.5 96l54 19q12 -38 38 -59t62 -21q37 0 63 21.5t37 58.5l55 -19q-18 -65 -59.5 -96t-95.5 -31q-53 0 -94.5 31z" />
    <glyph glyph-name="hcircumflex" unicode="&#x125;" horiz-adv-x="639" 
d="M223 790l112 143h49l112 -143l-44 -37l-93 102l-92 -102zM53 6.5q-5 6.5 -5 17.5q0 16 11.5 24t31.5 8h25v598h-49q-19 0 -19 23q0 17 11.5 25t31.5 8h115v-285l3 -1q83 76 171 76q71 0 117.5 -41.5t46.5 -112.5v-290l45 -13q16 -5 23 -11.5t7 -17.5q0 -14 -13 -14h-204
q-9 0 -14 6.5t-5 17.5q0 16 11.5 24t31.5 8h25v283q0 45 -26 72t-74 27q-37 0 -74.5 -20.5t-67.5 -53.5v-308l45 -13q16 -5 23 -11.5t7 -17.5q0 -14 -13 -14h-204q-9 0 -14 6.5z" />
    <glyph glyph-name="uni1E25" unicode="&#x1e25;" horiz-adv-x="639" 
d="M53 6.5q-5 6.5 -5 17.5q0 16 11.5 24t31.5 8h25v598h-49q-19 0 -19 23q0 17 11.5 25t31.5 8h115v-285l3 -1q83 76 171 76q71 0 117.5 -41.5t46.5 -112.5v-290l45 -13q16 -5 23 -11.5t7 -17.5q0 -14 -13 -14h-204q-9 0 -14 6.5t-5 17.5q0 16 11.5 24t31.5 8h25v283
q0 45 -26 72t-74 27q-37 0 -74.5 -20.5t-67.5 -53.5v-308l45 -13q16 -5 23 -11.5t7 -17.5q0 -14 -13 -14h-204q-9 0 -14 6.5zM294 -161q-16 16 -16 40t16 39.5t39 15.5t39 -15.5t16 -39.5t-16 -40t-39 -16t-39 16z" />
    <glyph glyph-name="i" unicode="i" horiz-adv-x="293" 
d="M106.5 584q-18.5 18 -18.5 47t18.5 46.5t46.5 17.5q27 0 45.5 -17.5t18.5 -46.5t-18.5 -47t-45.5 -18q-28 0 -46.5 18zM45 6.5q-5 6.5 -5 17.5q0 16 11.5 24t31.5 8h25v378h-49q-19 0 -19 23q0 17 11.5 25t31.5 8h118v-434l45 -13q16 -5 23 -11.5t7 -17.5q0 -14 -13 -14
h-204q-9 0 -14 6.5z" />
    <glyph glyph-name="dotlessi" unicode="&#x131;" horiz-adv-x="358" 
d="M66 6.5q-5 6.5 -5 17.5q0 16 11.5 24t31.5 8h25v378h-49q-19 0 -19 23q0 17 11.5 25t31.5 8h118v-434l45 -13q16 -5 23 -11.5t7 -17.5q0 -14 -13 -14h-204q-9 0 -14 6.5z" />
    <glyph glyph-name="iacute" unicode="&#xed;" horiz-adv-x="300" 
d="M75 596l94 157l73 -47l-112 -146zM51 6.5q-5 6.5 -5 17.5q0 16 11.5 24t31.5 8h25v378h-49q-19 0 -19 23q0 17 11.5 25t31.5 8h118v-434l45 -13q16 -5 23 -11.5t7 -17.5q0 -14 -13 -14h-204q-9 0 -14 6.5z" />
    <glyph glyph-name="ibreve" unicode="&#x12d;" horiz-adv-x="320" 
d="M61.5 581q-41.5 31 -59.5 96l54 19q12 -38 38 -59t62 -21q37 0 63 21.5t37 58.5l55 -19q-18 -65 -59.5 -96t-95.5 -31q-53 0 -94.5 31zM59 6.5q-5 6.5 -5 17.5q0 16 11.5 24t31.5 8h25v378h-49q-19 0 -19 23q0 17 11.5 25t31.5 8h118v-434l45 -13q16 -5 23 -11.5t7 -17.5
q0 -14 -13 -14h-204q-9 0 -14 6.5z" />
    <glyph glyph-name="uni01D0" unicode="&#x1d0;" horiz-adv-x="298" 
d="M10 703l44 37l92 -102l93 102l44 -37l-112 -143h-49zM47 6.5q-5 6.5 -5 17.5q0 16 11.5 24t31.5 8h25v378h-49q-19 0 -19 23q0 17 11.5 25t31.5 8h118v-434l45 -13q16 -5 23 -11.5t7 -17.5q0 -14 -13 -14h-204q-9 0 -14 6.5z" />
    <glyph glyph-name="icircumflex" unicode="&#xee;" horiz-adv-x="303" 
d="M10 597l112 143h49l112 -143l-44 -37l-93 102l-92 -102zM57 6.5q-5 6.5 -5 17.5q0 16 11.5 24t31.5 8h25v378h-49q-19 0 -19 23q0 17 11.5 25t31.5 8h118v-434l45 -13q16 -5 23 -11.5t7 -17.5q0 -14 -13 -14h-204q-9 0 -14 6.5z" />
    <glyph glyph-name="idieresis" unicode="&#xef;" horiz-adv-x="325" 
d="M23 580.5q-16 15.5 -16 39.5t16 39.5t39 15.5q22 0 38.5 -16t16.5 -39t-16.5 -39t-38.5 -16q-23 0 -39 15.5zM220 580.5q-16 15.5 -16 39.5t16 39.5t39 15.5q22 0 38.5 -16t16.5 -39t-16.5 -39t-38.5 -16q-23 0 -39 15.5zM66 6.5q-5 6.5 -5 17.5q0 16 11.5 24t31.5 8h25
v378h-49q-19 0 -19 23q0 17 11.5 25t31.5 8h118v-434l45 -13q16 -5 23 -11.5t7 -17.5q0 -14 -13 -14h-204q-9 0 -14 6.5z" />
    <glyph glyph-name="uni1ECB" unicode="&#x1ecb;" horiz-adv-x="313" 
d="M116.5 584q-18.5 18 -18.5 47t18.5 46.5t46.5 17.5q27 0 45.5 -17.5t18.5 -46.5t-18.5 -47t-45.5 -18q-28 0 -46.5 18zM55 6.5q-5 6.5 -5 17.5q0 16 11.5 24t31.5 8h25v378h-49q-19 0 -19 23q0 17 11.5 25t31.5 8h118v-434l45 -13q16 -5 23 -11.5t7 -17.5q0 -14 -13 -14
h-204q-9 0 -14 6.5zM126 -161q-16 16 -16 40t16 39.5t39 15.5t39 -15.5t16 -39.5t-16 -40t-39 -16t-39 16z" />
    <glyph glyph-name="igrave" unicode="&#xec;" horiz-adv-x="308" 
d="M43 706l73 47l94 -157l-55 -36zM58 6.5q-5 6.5 -5 17.5q0 16 11.5 24t31.5 8h25v378h-49q-19 0 -19 23q0 17 11.5 25t31.5 8h118v-434l45 -13q16 -5 23 -11.5t7 -17.5q0 -14 -13 -14h-204q-9 0 -14 6.5z" />
    <glyph glyph-name="uni1EC9" unicode="&#x1ec9;" horiz-adv-x="324" 
d="M123 626q56 19 56 51q0 29 -33 29q-20 0 -51 -9l-7 38q14 6 32.5 10.5t34.5 4.5q39 0 64 -20.5t25 -51.5q0 -25 -16.5 -44.5t-46.5 -30.5l-6 -46h-46zM60 6.5q-5 6.5 -5 17.5q0 16 11.5 24t31.5 8h25v378h-49q-19 0 -19 23q0 17 11.5 25t31.5 8h118v-434l45 -13
q16 -5 23 -11.5t7 -17.5q0 -14 -13 -14h-204q-9 0 -14 6.5z" />
    <glyph glyph-name="ij" unicode="&#x133;" horiz-adv-x="544" 
d="M106.5 584q-18.5 18 -18.5 47t18.5 46.5t46.5 17.5q27 0 45.5 -17.5t18.5 -46.5t-18.5 -47t-45.5 -18q-28 0 -46.5 18zM378.5 584q-18.5 18 -18.5 47t18.5 46.5t46.5 17.5q27 0 45.5 -17.5t18.5 -46.5t-18.5 -47t-45.5 -18q-28 0 -46.5 18zM45 6.5q-5 6.5 -5 17.5
q0 16 11.5 24t31.5 8h25v378h-49q-19 0 -19 23q0 17 11.5 25t31.5 8h118v-434l45 -13q16 -4 23 -11t7 -18q0 -14 -13 -14h-204q-9 0 -14 6.5zM247.5 -216.5q-15.5 16.5 -16.5 51.5q82 29 116 70.5t34 119.5v409h-49q-19 0 -19 23q0 33 43 33h118v-471q0 -171 -130 -235
q-19 -9 -31.5 -13t-26.5 -4q-23 0 -38.5 16.5z" />
    <glyph glyph-name="imacron" unicode="&#x12b;" horiz-adv-x="303" 
d="M0 650h287v-66h-287v66zM49 6.5q-5 6.5 -5 17.5q0 16 11.5 24t31.5 8h25v378h-49q-19 0 -19 23q0 17 11.5 25t31.5 8h118v-434l45 -13q16 -5 23 -11.5t7 -17.5q0 -14 -13 -14h-204q-9 0 -14 6.5z" />
    <glyph glyph-name="iogonek" unicode="&#x12f;" horiz-adv-x="344" 
d="M126.5 584q-18.5 18 -18.5 47t18.5 46.5t46.5 17.5q27 0 45.5 -17.5t18.5 -46.5t-18.5 -47t-45.5 -18q-28 0 -46.5 18zM95.5 -182q-32.5 27 -32.5 74q0 32 20 61t53 47h-57q-9 0 -14 6.5t-5 17.5q0 16 11.5 24t31.5 8h25v378h-49q-19 0 -19 23q0 17 11.5 25t31.5 8h118
v-434l45 -13q16 -5 23 -11.5t7 -17.5q0 -14 -13 -14h-79q-31 -14 -52.5 -43.5t-21.5 -61.5q0 -26 16.5 -41t45.5 -15q20 0 41 7l9 -41q-30 -14 -63 -14q-51 0 -83.5 27z" />
    <glyph glyph-name="itilde" unicode="&#x129;" horiz-adv-x="318" 
d="M189.5 573.5q-13.5 4.5 -33.5 14.5q-20 9 -32 13.5t-26 4.5q-18 0 -33 -6.5t-32 -19.5l-33 46q22 21 48.5 34.5t49.5 13.5q14 0 27 -4.5t35 -14.5q19 -9 31.5 -13.5t25.5 -4.5q28 0 63 25l33 -46q-22 -22 -47 -34.5t-48 -12.5q-15 0 -28.5 4.5zM65 6.5q-5 6.5 -5 17.5
q0 16 11.5 24t31.5 8h25v378h-49q-19 0 -19 23q0 17 11.5 25t31.5 8h118v-434l45 -13q16 -5 23 -11.5t7 -17.5q0 -14 -13 -14h-204q-9 0 -14 6.5z" />
    <glyph glyph-name="j" unicode="j" horiz-adv-x="320" 
d="M154.5 584q-18.5 18 -18.5 47t18.5 46.5t46.5 17.5q27 0 45.5 -17.5t18.5 -46.5t-18.5 -47t-45.5 -18q-28 0 -46.5 18zM23.5 -216.5q-15.5 16.5 -16.5 51.5q82 29 116 70.5t34 119.5v409h-49q-19 0 -19 23q0 33 43 33h118v-471q0 -171 -130 -235q-19 -9 -31.5 -13
t-26.5 -4q-23 0 -38.5 16.5z" />
    <glyph glyph-name="uni0237" unicode="&#x237;" horiz-adv-x="303" 
d="M22.5 -216.5q-15.5 16.5 -16.5 51.5q82 29 116 70.5t34 119.5v409h-49q-19 0 -19 23q0 33 43 33h118v-471q0 -169 -130 -235q-18 -9 -30.5 -13t-27.5 -4q-23 0 -38.5 16.5z" />
    <glyph glyph-name="jcircumflex" unicode="&#x135;" horiz-adv-x="333" 
d="M42 597l112 143h49l112 -143l-44 -37l-93 102l-92 -102zM23.5 -216.5q-15.5 16.5 -16.5 51.5q82 29 116 70.5t34 119.5v409h-49q-19 0 -19 23q0 33 43 33h118v-471q0 -90 -36 -148.5t-94 -86.5q-19 -9 -31.5 -13t-26.5 -4q-23 0 -38.5 16.5z" />
    <glyph glyph-name="k" unicode="k" horiz-adv-x="606" 
d="M53 6.5q-5 6.5 -5 17.5q0 16 11.5 24t31.5 8h25v598h-49q-19 0 -19 23q0 17 11.5 25t31.5 8h118v-654l43 -13q31 -9 31 -29q0 -14 -13 -14h-203q-9 0 -14 6.5zM209 257l189 174h-60q-10 0 -15.5 6.5t-5.5 17.5q0 17 12.5 26t33.5 9h174q16 0 16 -20q0 -21 -34 -30l-38 -9
l-170 -159l193 -216l45 -11q34 -8 34 -30q0 -15 -14 -15h-139z" />
    <glyph glyph-name="kcommaaccent" unicode="&#x137;" horiz-adv-x="606" 
d="M53 6.5q-5 6.5 -5 17.5q0 16 11.5 24t31.5 8h25v598h-49q-19 0 -19 23q0 17 11.5 25t31.5 8h118v-654l43 -13q31 -9 31 -29q0 -14 -13 -14h-203q-9 0 -14 6.5zM209 257l189 174h-60q-10 0 -15.5 6.5t-5.5 17.5q0 17 12.5 26t33.5 9h174q16 0 16 -20q0 -21 -34 -30l-38 -9
l-170 -159l193 -216l45 -11q34 -8 34 -30q0 -15 -14 -15h-139zM243 -230q19 28 36 65.5t20 61.5l-28 9q-14 5 -14 18t8 20.5t21 7.5q3 0 13 -2l84 -19q-12 -47 -38.5 -98.5t-59.5 -88.5z" />
    <glyph glyph-name="kgreenlandic" unicode="&#x138;" horiz-adv-x="619" 
d="M66 6.5q-5 6.5 -5 17.5q0 16 11.5 24t31.5 8h25v378h-49q-19 0 -19 23q0 17 11.5 25t31.5 8h118v-434l43 -13q17 -5 24 -11.5t7 -17.5q0 -14 -13 -14h-203q-9 0 -14 6.5zM222 257l189 174h-60q-10 0 -15.5 6.5t-5.5 17.5q0 17 12.5 26t33.5 9h174q16 0 16 -20
q0 -21 -34 -30l-38 -9l-170 -159l193 -216l45 -11q34 -8 34 -30q0 -15 -14 -15h-139z" />
    <glyph glyph-name="l" unicode="l" horiz-adv-x="311" 
d="M55 6.5q-5 6.5 -5 17.5q0 16 11.5 24t31.5 8h25v598h-49q-19 0 -19 23q0 17 11.5 25t31.5 8h118v-654l45 -13q16 -5 23 -11.5t7 -17.5q0 -14 -13 -14h-204q-9 0 -14 6.5z" />
    <glyph glyph-name="lacute" unicode="&#x13a;" horiz-adv-x="306" 
d="M68 799l94 157l73 -47l-112 -146zM46 6.5q-5 6.5 -5 17.5q0 16 11.5 24t31.5 8h25v598h-49q-19 0 -19 23q0 17 11.5 25t31.5 8h118v-654l45 -13q16 -5 23 -11.5t7 -17.5q0 -14 -13 -14h-204q-9 0 -14 6.5z" />
    <glyph glyph-name="lcaron" unicode="&#x13e;" horiz-adv-x="411" 
d="M260 529q19 28 36 65.5t20 61.5l-28 9q-14 5 -14 18t8 20.5t21 7.5q3 0 13 -2l84 -19q-12 -47 -38.5 -98.5t-59.5 -88.5zM55 6.5q-5 6.5 -5 17.5q0 16 11.5 24t31.5 8h25v598h-49q-19 0 -19 23q0 17 11.5 25t31.5 8h118v-654l45 -13q16 -5 23 -11.5t7 -17.5
q0 -14 -13 -14h-204q-9 0 -14 6.5z" />
    <glyph glyph-name="lcommaaccent" unicode="&#x13c;" horiz-adv-x="305" 
d="M49 6.5q-5 6.5 -5 17.5q0 16 11.5 24t31.5 8h25v598h-49q-19 0 -19 23q0 17 11.5 25t31.5 8h118v-654l45 -13q16 -5 23 -11.5t7 -17.5q0 -14 -13 -14h-204q-9 0 -14 6.5zM72 -230q19 28 36 65.5t20 61.5l-28 9q-14 5 -14 18t8 20.5t21 7.5q3 0 13 -2l84 -19
q-12 -47 -38.5 -98.5t-59.5 -88.5z" />
    <glyph glyph-name="ldot" unicode="&#x140;" horiz-adv-x="412" 
d="M55 6.5q-5 6.5 -5 17.5q0 16 11.5 24t31.5 8h25v598h-49q-19 0 -19 23q0 17 11.5 25t31.5 8h118v-654l45 -13q16 -5 23 -11.5t7 -17.5q0 -14 -13 -14h-204q-9 0 -14 6.5zM305 320q-16 16 -16 39q0 24 16 40t39 16t39 -16t16 -40q0 -23 -16 -39t-39 -16t-39 16z" />
    <glyph glyph-name="uni1E37" unicode="&#x1e37;" horiz-adv-x="311" 
d="M55 6.5q-5 6.5 -5 17.5q0 16 11.5 24t31.5 8h25v598h-49q-19 0 -19 23q0 17 11.5 25t31.5 8h118v-654l45 -13q16 -5 23 -11.5t7 -17.5q0 -14 -13 -14h-204q-9 0 -14 6.5zM126 -161q-16 16 -16 40t16 39.5t39 15.5t39 -15.5t16 -39.5t-16 -40t-39 -16t-39 16z" />
    <glyph glyph-name="uni1E39" unicode="&#x1e39;" horiz-adv-x="288" 
d="M-4 866h287v-66h-287v66zM44 6.5q-5 6.5 -5 17.5q0 16 11.5 24t31.5 8h25v598h-49q-19 0 -19 23q0 17 11.5 25t31.5 8h118v-654l45 -13q16 -5 23 -11.5t7 -17.5q0 -14 -13 -14h-204q-9 0 -14 6.5zM116 -161q-16 16 -16 40t16 39.5t39 15.5t39 -15.5t16 -39.5t-16 -40
t-39 -16t-39 16z" />
    <glyph glyph-name="uni1E3B" unicode="&#x1e3b;" horiz-adv-x="340" 
d="M63 6.5q-5 6.5 -5 17.5q0 16 11.5 24t31.5 8h25v598h-49q-19 0 -19 23q0 17 11.5 25t31.5 8h118v-654l45 -13q16 -5 23 -11.5t7 -17.5q0 -14 -13 -14h-204q-9 0 -14 6.5zM-1 -88h345v-65h-345v65z" />
    <glyph glyph-name="lslash" unicode="&#x142;" horiz-adv-x="334" 
d="M65 6.5q-5 6.5 -5 17.5q0 16 11.5 24t31.5 8h25v223l-52 -32l-32 55l84 52v300h-49q-19 0 -19 23q0 17 11.5 25t31.5 8h118v-299l70 43l32 -54l-102 -63v-281l45 -13q16 -5 23 -11.5t7 -17.5q0 -14 -13 -14h-204q-9 0 -14 6.5z" />
    <glyph glyph-name="m" unicode="m" horiz-adv-x="925" 
d="M50 6.5q-5 6.5 -5 17.5q0 16 11.5 24t31.5 8h25v378h-49q-19 0 -19 23q0 17 11.5 25t31.5 8h113v-66h4q84 76 166 76q47 0 83 -21t53 -61q88 82 175 82q66 0 108.5 -39.5t42.5 -111.5v-293l43 -13q16 -5 22.5 -11.5t6.5 -17.5q0 -14 -13 -14h-200q-9 0 -14 6.5t-5 17.5
q0 16 11.5 24t31.5 8h24v285q0 47 -22.5 71.5t-65.5 24.5q-35 0 -69.5 -19.5t-62.5 -49.5v-312l44 -13q16 -4 22.5 -11t6.5 -18q0 -14 -13 -14h-200q-9 0 -14 6.5t-5 17.5q0 16 11.5 24t31.5 8h22v285q0 47 -22.5 71.5t-64.5 24.5q-34 0 -68.5 -19t-64.5 -50v-312l45 -13
q16 -6 22.5 -12.5t6.5 -16.5q0 -14 -14 -14h-202q-9 0 -14 6.5z" />
    <glyph glyph-name="uni1E43" unicode="&#x1e43;" horiz-adv-x="925" 
d="M50 6.5q-5 6.5 -5 17.5q0 16 11.5 24t31.5 8h25v378h-49q-19 0 -19 23q0 17 11.5 25t31.5 8h113v-66h4q84 76 166 76q47 0 83 -21t53 -61q88 82 175 82q66 0 108.5 -39.5t42.5 -111.5v-293l43 -13q16 -5 22.5 -11.5t6.5 -17.5q0 -14 -13 -14h-200q-9 0 -14 6.5t-5 17.5
q0 16 11.5 24t31.5 8h24v285q0 47 -22.5 71.5t-65.5 24.5q-35 0 -69.5 -19.5t-62.5 -49.5v-312l44 -13q16 -4 22.5 -11t6.5 -18q0 -14 -13 -14h-200q-9 0 -14 6.5t-5 17.5q0 16 11.5 24t31.5 8h22v285q0 47 -22.5 71.5t-64.5 24.5q-34 0 -68.5 -19t-64.5 -50v-312l45 -13
q16 -6 22.5 -12.5t6.5 -16.5q0 -14 -14 -14h-202q-9 0 -14 6.5zM432 -161q-16 16 -16 40t16 39.5t39 15.5t39 -15.5t16 -39.5t-16 -40t-39 -16t-39 16z" />
    <glyph glyph-name="n" unicode="n" horiz-adv-x="636" 
d="M50 6.5q-5 6.5 -5 17.5q0 16 11.5 24t31.5 8h25v378h-49q-19 0 -19 23q0 17 11.5 25t31.5 8h113v-67h4q84 77 172 77q71 0 117.5 -41.5t46.5 -112.5v-290l45 -13q16 -5 23 -11.5t7 -17.5q0 -14 -13 -14h-204q-9 0 -14 6.5t-5 17.5q0 16 11.5 24t31.5 8h25v282
q0 45 -26 72t-74 27q-37 0 -74 -20t-68 -54v-307l45 -13q16 -4 23 -11t7 -18q0 -14 -13 -14h-204q-9 0 -14 6.5z" />
    <glyph glyph-name="nacute" unicode="&#x144;" horiz-adv-x="636" 
d="M237 596l94 157l73 -47l-112 -146zM50 6.5q-5 6.5 -5 17.5q0 16 11.5 24t31.5 8h25v378h-49q-19 0 -19 23q0 17 11.5 25t31.5 8h113v-67h4q84 77 172 77q71 0 117.5 -41.5t46.5 -112.5v-290l45 -13q16 -5 23 -11.5t7 -17.5q0 -14 -13 -14h-204q-9 0 -14 6.5t-5 17.5
q0 16 11.5 24t31.5 8h25v282q0 45 -26 72t-74 27q-37 0 -74 -20t-68 -54v-307l45 -13q16 -4 23 -11t7 -18q0 -14 -13 -14h-204q-9 0 -14 6.5z" />
    <glyph glyph-name="napostrophe" unicode="&#x149;" horiz-adv-x="780" 
d="M45 432q19 28 36 65.5t20 61.5l-28 9q-14 5 -14 18t7.5 20.5t21.5 7.5q3 0 13 -2l84 -19q-12 -46 -38.5 -98t-59.5 -89zM194 6.5q-5 6.5 -5 17.5q0 16 11.5 24t31.5 8h25v378h-49q-19 0 -19 23q0 17 11.5 25t31.5 8h113v-67h4q84 77 172 77q71 0 117.5 -41.5t46.5 -112.5
v-290l45 -13q16 -5 23 -11.5t7 -17.5q0 -14 -13 -14h-204q-9 0 -14 6.5t-5 17.5q0 16 11.5 24t31.5 8h25v282q0 45 -26 72t-74 27q-37 0 -74 -20t-68 -54v-307l45 -13q16 -4 23 -11t7 -18q0 -14 -13 -14h-204q-9 0 -14 6.5z" />
    <glyph glyph-name="ncaron" unicode="&#x148;" horiz-adv-x="636" 
d="M190 703l44 37l92 -102l93 102l44 -37l-112 -143h-49zM50 6.5q-5 6.5 -5 17.5q0 16 11.5 24t31.5 8h25v378h-49q-19 0 -19 23q0 17 11.5 25t31.5 8h113v-67h4q84 77 172 77q71 0 117.5 -41.5t46.5 -112.5v-290l45 -13q16 -5 23 -11.5t7 -17.5q0 -14 -13 -14h-204
q-9 0 -14 6.5t-5 17.5q0 16 11.5 24t31.5 8h25v282q0 45 -26 72t-74 27q-37 0 -74 -20t-68 -54v-307l45 -13q16 -4 23 -11t7 -18q0 -14 -13 -14h-204q-9 0 -14 6.5z" />
    <glyph glyph-name="ncommaaccent" unicode="&#x146;" horiz-adv-x="636" 
d="M50 6.5q-5 6.5 -5 17.5q0 16 11.5 24t31.5 8h25v378h-49q-19 0 -19 23q0 17 11.5 25t31.5 8h113v-67h4q84 77 172 77q71 0 117.5 -41.5t46.5 -112.5v-290l45 -13q16 -5 23 -11.5t7 -17.5q0 -14 -13 -14h-204q-9 0 -14 6.5t-5 17.5q0 16 11.5 24t31.5 8h25v282
q0 45 -26 72t-74 27q-37 0 -74 -20t-68 -54v-307l45 -13q16 -4 23 -11t7 -18q0 -14 -13 -14h-204q-9 0 -14 6.5zM255 -230q19 28 36 65.5t20 61.5l-28 9q-14 5 -14 18t8 20.5t21 7.5q3 0 13 -2l84 -19q-12 -47 -38.5 -98.5t-59.5 -88.5z" />
    <glyph glyph-name="uni1E45" unicode="&#x1e45;" horiz-adv-x="636" 
d="M270 569q-16 16 -16 39q0 24 16 40t39 16t39 -16t16 -40q0 -23 -16 -39t-39 -16t-39 16zM50 6.5q-5 6.5 -5 17.5q0 16 11.5 24t31.5 8h25v378h-49q-19 0 -19 23q0 17 11.5 25t31.5 8h113v-67h4q84 77 172 77q71 0 117.5 -41.5t46.5 -112.5v-290l45 -13q16 -5 23 -11.5
t7 -17.5q0 -14 -13 -14h-204q-9 0 -14 6.5t-5 17.5q0 16 11.5 24t31.5 8h25v282q0 45 -26 72t-74 27q-37 0 -74 -20t-68 -54v-307l45 -13q16 -4 23 -11t7 -18q0 -14 -13 -14h-204q-9 0 -14 6.5z" />
    <glyph glyph-name="uni1E47" unicode="&#x1e47;" horiz-adv-x="636" 
d="M50 6.5q-5 6.5 -5 17.5q0 16 11.5 24t31.5 8h25v378h-49q-19 0 -19 23q0 17 11.5 25t31.5 8h113v-67h4q84 77 172 77q71 0 117.5 -41.5t46.5 -112.5v-290l45 -13q16 -5 23 -11.5t7 -17.5q0 -14 -13 -14h-204q-9 0 -14 6.5t-5 17.5q0 16 11.5 24t31.5 8h25v282
q0 45 -26 72t-74 27q-37 0 -74 -20t-68 -54v-307l45 -13q16 -4 23 -11t7 -18q0 -14 -13 -14h-204q-9 0 -14 6.5zM291 -161q-16 16 -16 40t16 39.5t39 15.5t39 -15.5t16 -39.5t-16 -40t-39 -16t-39 16z" />
    <glyph glyph-name="eng" unicode="&#x14b;" horiz-adv-x="616" 
d="M322 -167q62 12 94 46.5t32 97.5v361q0 45 -26 72t-74 27q-37 0 -74.5 -20.5t-67.5 -53.5v-307l45 -13q16 -5 23 -11.5t7 -17.5q0 -14 -13 -14h-204q-9 0 -14 6.5t-5 17.5q0 16 11.5 24t31.5 8h25v378h-49q-19 0 -19 23q0 17 11.5 25t31.5 8h113v-67h4q84 77 172 77
q71 0 117.5 -41.5t46.5 -112.5v-366q0 -93 -59.5 -143.5t-139.5 -61.5z" />
    <glyph glyph-name="uni1E49" unicode="&#x1e49;" horiz-adv-x="636" 
d="M50 6.5q-5 6.5 -5 17.5q0 16 11.5 24t31.5 8h25v378h-49q-19 0 -19 23q0 17 11.5 25t31.5 8h113v-67h4q84 77 172 77q71 0 117.5 -41.5t46.5 -112.5v-290l45 -13q16 -5 23 -11.5t7 -17.5q0 -14 -13 -14h-204q-9 0 -14 6.5t-5 17.5q0 16 11.5 24t31.5 8h25v282
q0 45 -26 72t-74 27q-37 0 -74 -20t-68 -54v-307l45 -13q16 -4 23 -11t7 -18q0 -14 -13 -14h-204q-9 0 -14 6.5zM128 -88h388v-65h-388v65z" />
    <glyph glyph-name="ntilde" unicode="&#xf1;" horiz-adv-x="636" 
d="M357.5 573.5q-13.5 4.5 -33.5 14.5q-20 9 -32 13.5t-26 4.5q-17 0 -32 -6.5t-33 -19.5l-33 46q23 21 49.5 34.5t49.5 13.5q14 0 26.5 -4.5t35.5 -14.5q20 -9 31.5 -13.5t24.5 -4.5q30 0 63 25l34 -46q-22 -22 -47.5 -34.5t-48.5 -12.5q-15 0 -28.5 4.5zM50 6.5
q-5 6.5 -5 17.5q0 16 11.5 24t31.5 8h25v378h-49q-19 0 -19 23q0 17 11.5 25t31.5 8h113v-67h4q84 77 172 77q71 0 117.5 -41.5t46.5 -112.5v-290l45 -13q16 -5 23 -11.5t7 -17.5q0 -14 -13 -14h-204q-9 0 -14 6.5t-5 17.5q0 16 11.5 24t31.5 8h25v282q0 45 -26 72t-74 27
q-37 0 -74 -20t-68 -54v-307l45 -13q16 -4 23 -11t7 -18q0 -14 -13 -14h-204q-9 0 -14 6.5z" />
    <glyph glyph-name="o" unicode="o" horiz-adv-x="550" 
d="M151 17q-54 30 -84 88t-30 139t30 138.5t84 87.5t124 30t124 -30t84 -87.5t30 -138.5t-30 -139t-84 -88t-124 -30t-124 30zM380.5 98.5q37.5 51.5 37.5 145.5t-37.5 145t-105.5 51q-69 0 -106.5 -51t-37.5 -145t38 -145.5t106 -51.5t105.5 51.5z" />
    <glyph glyph-name="oacute" unicode="&#xf3;" horiz-adv-x="550" 
d="M208 596l94 157l73 -47l-112 -146zM151 17q-54 30 -84 88t-30 139t30 138.5t84 87.5t124 30t124 -30t84 -87.5t30 -138.5t-30 -139t-84 -88t-124 -30t-124 30zM380.5 98.5q37.5 51.5 37.5 145.5t-37.5 145t-105.5 51q-69 0 -106.5 -51t-37.5 -145t38 -145.5t106 -51.5
t105.5 51.5z" />
    <glyph glyph-name="obreve" unicode="&#x14f;" horiz-adv-x="550" 
d="M180.5 581q-41.5 31 -59.5 96l54 19q12 -38 38 -59t62 -21q37 0 63 21.5t37 58.5l55 -19q-18 -65 -59.5 -96t-95.5 -31q-53 0 -94.5 31zM151 17q-54 30 -84 88t-30 139t30 138.5t84 87.5t124 30t124 -30t84 -87.5t30 -138.5t-30 -139t-84 -88t-124 -30t-124 30z
M380.5 98.5q37.5 51.5 37.5 145.5t-37.5 145t-105.5 51q-69 0 -106.5 -51t-37.5 -145t38 -145.5t106 -51.5t105.5 51.5z" />
    <glyph glyph-name="uni01D2" unicode="&#x1d2;" horiz-adv-x="550" 
d="M138 703l44 37l92 -102l93 102l44 -37l-112 -143h-49zM151 17q-54 30 -84 88t-30 139t30 138.5t84 87.5t124 30t124 -30t84 -87.5t30 -138.5t-30 -139t-84 -88t-124 -30t-124 30zM380.5 98.5q37.5 51.5 37.5 145.5t-37.5 145t-105.5 51q-69 0 -106.5 -51t-37.5 -145
t38 -145.5t106 -51.5t105.5 51.5z" />
    <glyph glyph-name="ocircumflex" unicode="&#xf4;" horiz-adv-x="550" 
d="M138 597l112 143h49l112 -143l-44 -37l-93 102l-92 -102zM151 17q-54 30 -84 88t-30 139t30 138.5t84 87.5t124 30t124 -30t84 -87.5t30 -138.5t-30 -139t-84 -88t-124 -30t-124 30zM380.5 98.5q37.5 51.5 37.5 145.5t-37.5 145t-105.5 51q-69 0 -106.5 -51t-37.5 -145
t38 -145.5t106 -51.5t105.5 51.5z" />
    <glyph glyph-name="uni1ED1" unicode="&#x1ed1;" horiz-adv-x="562" 
d="M376 698l65 115l65 -42l-86 -102zM140 597l112 143h49l112 -143l-44 -37l-93 102l-92 -102zM151 17q-54 30 -84 88t-30 139t30 138.5t84 87.5t124 30t124 -30t84 -87.5t30 -138.5t-30 -139t-84 -88t-124 -30t-124 30zM380.5 98.5q37.5 51.5 37.5 145.5t-37.5 145
t-105.5 51q-69 0 -106.5 -51t-37.5 -145t38 -145.5t106 -51.5t105.5 51.5z" />
    <glyph glyph-name="uni1ED9" unicode="&#x1ed9;" horiz-adv-x="550" 
d="M138 597l112 143h49l112 -143l-44 -37l-93 102l-92 -102zM151 17q-54 30 -84 88t-30 139t30 138.5t84 87.5t124 30t124 -30t84 -87.5t30 -138.5t-30 -139t-84 -88t-124 -30t-124 30zM380.5 98.5q37.5 51.5 37.5 145.5t-37.5 145t-105.5 51q-69 0 -106.5 -51t-37.5 -145
t38 -145.5t106 -51.5t105.5 51.5zM236 -161q-16 16 -16 40t16 39.5t39 15.5t39 -15.5t16 -39.5t-16 -40t-39 -16t-39 16z" />
    <glyph glyph-name="uni1ED3" unicode="&#x1ed3;" horiz-adv-x="558" 
d="M57 771l65 42l65 -115l-44 -29zM149 597l112 143h49l112 -143l-44 -37l-93 102l-92 -102zM159 17q-54 30 -84 88t-30 139t30 138.5t84 87.5t124 30t124 -30t84 -87.5t30 -138.5t-30 -139t-84 -88t-124 -30t-124 30zM388.5 98.5q37.5 51.5 37.5 145.5t-37.5 145t-105.5 51
q-69 0 -106.5 -51t-37.5 -145t38 -145.5t106 -51.5t105.5 51.5z" />
    <glyph glyph-name="uni1ED5" unicode="&#x1ed5;" horiz-adv-x="576" 
d="M404 732q54 19 54 50q0 28 -32 28q-18 0 -49 -9l-7 37q13 6 31 10t34 4q39 0 62.5 -19.5t23.5 -50.5q0 -24 -16 -42.5t-44 -29.5l-6 -45h-46zM140 597l112 143h49l112 -143l-44 -37l-93 102l-92 -102zM151 17q-54 30 -84 88t-30 139t30 138.5t84 87.5t124 30t124 -30
t84 -87.5t30 -138.5t-30 -139t-84 -88t-124 -30t-124 30zM380.5 98.5q37.5 51.5 37.5 145.5t-37.5 145t-105.5 51q-69 0 -106.5 -51t-37.5 -145t38 -145.5t106 -51.5t105.5 51.5z" />
    <glyph glyph-name="uni1ED7" unicode="&#x1ed7;" horiz-adv-x="550" 
d="M298 736.5q-13 4.5 -24 10.5q-28 15 -45 15q-24 0 -50 -21l-27 42q19 16 39.5 26.5t37.5 10.5q15 0 30.5 -7t18.5 -8q11 -5 22.5 -9.5t21.5 -4.5q24 0 49 20l27 -41q-38 -38 -75 -38q-12 0 -25 4.5zM180.5 581q-41.5 31 -59.5 96l54 19q12 -38 38 -59t62 -21
q37 0 63 21.5t37 58.5l55 -19q-18 -65 -59.5 -96t-95.5 -31q-53 0 -94.5 31zM151 17q-54 30 -84 88t-30 139t30 138.5t84 87.5t124 30t124 -30t84 -87.5t30 -138.5t-30 -139t-84 -88t-124 -30t-124 30zM380.5 98.5q37.5 51.5 37.5 145.5t-37.5 145t-105.5 51
q-69 0 -106.5 -51t-37.5 -145t38 -145.5t106 -51.5t105.5 51.5z" />
    <glyph glyph-name="odieresis" unicode="&#xf6;" horiz-adv-x="550" 
d="M138 580.5q-16 15.5 -16 39.5t16 39.5t39 15.5q22 0 38.5 -16t16.5 -39t-16.5 -39t-38.5 -16q-23 0 -39 15.5zM335 580.5q-16 15.5 -16 39.5t16 39.5t39 15.5q22 0 38.5 -16t16.5 -39t-16.5 -39t-38.5 -16q-23 0 -39 15.5zM151 17q-54 30 -84 88t-30 139t30 138.5
t84 87.5t124 30t124 -30t84 -87.5t30 -138.5t-30 -139t-84 -88t-124 -30t-124 30zM380.5 98.5q37.5 51.5 37.5 145.5t-37.5 145t-105.5 51q-69 0 -106.5 -51t-37.5 -145t38 -145.5t106 -51.5t105.5 51.5z" />
    <glyph glyph-name="uni1ECD" unicode="&#x1ecd;" horiz-adv-x="550" 
d="M151 17q-54 30 -84 88t-30 139t30 138.5t84 87.5t124 30t124 -30t84 -87.5t30 -138.5t-30 -139t-84 -88t-124 -30t-124 30zM380.5 98.5q37.5 51.5 37.5 145.5t-37.5 145t-105.5 51q-69 0 -106.5 -51t-37.5 -145t38 -145.5t106 -51.5t105.5 51.5zM236 -161q-16 16 -16 40
t16 39.5t39 15.5t39 -15.5t16 -39.5t-16 -40t-39 -16t-39 16z" />
    <glyph glyph-name="ograve" unicode="&#xf2;" horiz-adv-x="550" 
d="M175 706l73 47l94 -157l-55 -36zM151 17q-54 30 -84 88t-30 139t30 138.5t84 87.5t124 30t124 -30t84 -87.5t30 -138.5t-30 -139t-84 -88t-124 -30t-124 30zM380.5 98.5q37.5 51.5 37.5 145.5t-37.5 145t-105.5 51q-69 0 -106.5 -51t-37.5 -145t38 -145.5t106 -51.5
t105.5 51.5z" />
    <glyph glyph-name="uni1ECF" unicode="&#x1ecf;" horiz-adv-x="550" 
d="M248 626q56 19 56 51q0 29 -33 29q-20 0 -51 -9l-7 38q14 6 32.5 10.5t34.5 4.5q39 0 64 -20.5t25 -51.5q0 -25 -16.5 -44.5t-46.5 -30.5l-6 -46h-46zM151 17q-54 30 -84 88t-30 139t30 138.5t84 87.5t124 30t124 -30t84 -87.5t30 -138.5t-30 -139t-84 -88t-124 -30
t-124 30zM380.5 98.5q37.5 51.5 37.5 145.5t-37.5 145t-105.5 51q-69 0 -106.5 -51t-37.5 -145t38 -145.5t106 -51.5t105.5 51.5z" />
    <glyph glyph-name="ohorn" unicode="&#x1a1;" horiz-adv-x="581" 
d="M151 17q-54 30 -84 88t-30 139t30 138.5t84 87.5t124 30q95 0 158 -58q32 33 32 98h94q0 -90 -78 -151q32 -59 32 -145q0 -81 -30 -139t-84 -88t-124 -30t-124 30zM380.5 98.5q37.5 51.5 37.5 145.5t-37.5 145t-105.5 51q-69 0 -106.5 -51t-37.5 -145t38 -145.5
t106 -51.5t105.5 51.5z" />
    <glyph glyph-name="uni1EDB" unicode="&#x1edb;" horiz-adv-x="581" 
d="M202 596l94 157l73 -47l-112 -146zM151 17q-54 30 -84 88t-30 139t30 138.5t84 87.5t124 30q95 0 158 -58q32 33 32 98h94q0 -90 -78 -151q32 -59 32 -145q0 -81 -30 -139t-84 -88t-124 -30t-124 30zM380.5 98.5q37.5 51.5 37.5 145.5t-37.5 145t-105.5 51
q-69 0 -106.5 -51t-37.5 -145t38 -145.5t106 -51.5t105.5 51.5z" />
    <glyph glyph-name="uni1EE3" unicode="&#x1ee3;" horiz-adv-x="581" 
d="M151 17q-54 30 -84 88t-30 139t30 138.5t84 87.5t124 30q95 0 158 -58q32 33 32 98h94q0 -90 -78 -151q32 -59 32 -145q0 -81 -30 -139t-84 -88t-124 -30t-124 30zM380.5 98.5q37.5 51.5 37.5 145.5t-37.5 145t-105.5 51q-69 0 -106.5 -51t-37.5 -145t38 -145.5
t106 -51.5t105.5 51.5zM239 -161q-16 16 -16 40t16 39.5t39 15.5t39 -15.5t16 -39.5t-16 -40t-39 -16t-39 16z" />
    <glyph glyph-name="uni1EDD" unicode="&#x1edd;" horiz-adv-x="581" 
d="M172 706l73 47l94 -157l-55 -36zM151 17q-54 30 -84 88t-30 139t30 138.5t84 87.5t124 30q95 0 158 -58q32 33 32 98h94q0 -90 -78 -151q32 -59 32 -145q0 -81 -30 -139t-84 -88t-124 -30t-124 30zM380.5 98.5q37.5 51.5 37.5 145.5t-37.5 145t-105.5 51
q-69 0 -106.5 -51t-37.5 -145t38 -145.5t106 -51.5t105.5 51.5z" />
    <glyph glyph-name="uni1EDF" unicode="&#x1edf;" horiz-adv-x="581" 
d="M244 626q56 19 56 51q0 29 -33 29q-20 0 -51 -9l-7 38q14 6 32.5 10.5t34.5 4.5q39 0 64 -20.5t25 -51.5q0 -25 -16.5 -44.5t-46.5 -30.5l-6 -46h-46zM151 17q-54 30 -84 88t-30 139t30 138.5t84 87.5t124 30q95 0 158 -58q32 33 32 98h94q0 -90 -78 -151q32 -59 32 -145
q0 -81 -30 -139t-84 -88t-124 -30t-124 30zM380.5 98.5q37.5 51.5 37.5 145.5t-37.5 145t-105.5 51q-69 0 -106.5 -51t-37.5 -145t38 -145.5t106 -51.5t105.5 51.5z" />
    <glyph glyph-name="uni1EE1" unicode="&#x1ee1;" horiz-adv-x="581" 
d="M302.5 573.5q-13.5 4.5 -33.5 14.5q-20 9 -32 13.5t-26 4.5q-17 0 -32 -6.5t-33 -19.5l-33 46q23 21 49.5 34.5t49.5 13.5q14 0 26.5 -4.5t35.5 -14.5q20 -9 31.5 -13.5t24.5 -4.5q30 0 63 25l34 -46q-22 -22 -47.5 -34.5t-48.5 -12.5q-15 0 -28.5 4.5zM151 17
q-54 30 -84 88t-30 139t30 138.5t84 87.5t124 30q95 0 158 -58q32 33 32 98h94q0 -90 -78 -151q32 -59 32 -145q0 -81 -30 -139t-84 -88t-124 -30t-124 30zM380.5 98.5q37.5 51.5 37.5 145.5t-37.5 145t-105.5 51q-69 0 -106.5 -51t-37.5 -145t38 -145.5t106 -51.5
t105.5 51.5z" />
    <glyph glyph-name="ohungarumlaut" unicode="&#x151;" horiz-adv-x="555" 
d="M139 595l98 145l62 -37l-118 -137zM322 595l98 145l62 -37l-118 -137zM151 17q-54 30 -84 88t-30 139t30 138.5t84 87.5t124 30t124 -30t84 -87.5t30 -138.5t-30 -139t-84 -88t-124 -30t-124 30zM380.5 98.5q37.5 51.5 37.5 145.5t-37.5 145t-105.5 51q-69 0 -106.5 -51
t-37.5 -145t38 -145.5t106 -51.5t105.5 51.5z" />
    <glyph glyph-name="omacron" unicode="&#x14d;" horiz-adv-x="550" 
d="M131 650h287v-66h-287v66zM151 17q-54 30 -84 88t-30 139t30 138.5t84 87.5t124 30t124 -30t84 -87.5t30 -138.5t-30 -139t-84 -88t-124 -30t-124 30zM380.5 98.5q37.5 51.5 37.5 145.5t-37.5 145t-105.5 51q-69 0 -106.5 -51t-37.5 -145t38 -145.5t106 -51.5t105.5 51.5
z" />
    <glyph glyph-name="oslash" unicode="&#xf8;" horiz-adv-x="542" 
d="M54 -37l54 82q-36 34 -55.5 84t-19.5 115q0 81 30 138.5t84 87.5t124 30q66 0 116 -26l44 67l51 -31l-46 -70q73 -70 73 -196q0 -81 -30 -139t-84 -88t-124 -30q-62 0 -112 24l-52 -81zM350 416q-33 24 -79 24q-69 0 -106.5 -51t-37.5 -145q0 -80 27 -128zM376.5 98.5
q37.5 51.5 37.5 145.5q0 77 -24 123l-194 -299q32 -21 75 -21q68 0 105.5 51.5z" />
    <glyph glyph-name="oslashacute" unicode="&#x1ff;" horiz-adv-x="542" 
d="M195 596l94 157l73 -47l-112 -146zM54 -37l54 82q-36 34 -55.5 84t-19.5 115q0 81 30 138.5t84 87.5t124 30q66 0 116 -26l44 67l51 -31l-46 -70q73 -70 73 -196q0 -81 -30 -139t-84 -88t-124 -30q-62 0 -112 24l-52 -81zM350 416q-33 24 -79 24q-69 0 -106.5 -51
t-37.5 -145q0 -80 27 -128zM376.5 98.5q37.5 51.5 37.5 145.5q0 77 -24 123l-194 -299q32 -21 75 -21q68 0 105.5 51.5z" />
    <glyph glyph-name="otilde" unicode="&#xf5;" horiz-adv-x="550" 
d="M308.5 573.5q-13.5 4.5 -33.5 14.5q-20 9 -32 13.5t-26 4.5q-17 0 -32 -6.5t-33 -19.5l-33 46q23 21 49.5 34.5t49.5 13.5q14 0 26.5 -4.5t35.5 -14.5q20 -9 31.5 -13.5t24.5 -4.5q30 0 63 25l34 -46q-22 -22 -47.5 -34.5t-48.5 -12.5q-15 0 -28.5 4.5zM151 17
q-54 30 -84 88t-30 139t30 138.5t84 87.5t124 30t124 -30t84 -87.5t30 -138.5t-30 -139t-84 -88t-124 -30t-124 30zM380.5 98.5q37.5 51.5 37.5 145.5t-37.5 145t-105.5 51q-69 0 -106.5 -51t-37.5 -145t38 -145.5t106 -51.5t105.5 51.5z" />
    <glyph glyph-name="oe" unicode="&#x153;" horiz-adv-x="908" 
d="M151 17q-54 30 -84 88t-30 139t30 138.5t84 87.5t124 30q63 0 112.5 -30t79.5 -83q30 53 78.5 83t111.5 30q98 0 157 -57.5t59 -152.5q0 -36 -16 -70h-342q1 -83 45.5 -128t110.5 -45q38 0 67 9t59 29q15 10 24 10q11 0 18.5 -8t7.5 -20t-8.5 -21.5t-26.5 -20.5
q-61 -38 -145 -38q-65 0 -117 30t-83 83q-30 -53 -79.5 -83t-112.5 -30q-70 0 -124 30zM380.5 98.5q37.5 51.5 37.5 145.5t-37.5 145t-105.5 51q-69 0 -106.5 -51t-37.5 -145t38 -145.5t106 -51.5t105.5 51.5zM775 280q4 11 4 29q0 62 -33.5 96.5t-89.5 34.5
q-59 0 -97.5 -42.5t-43.5 -117.5h260z" />
    <glyph glyph-name="p" unicode="p" horiz-adv-x="622" 
d="M53 -206.5q-5 6.5 -5 17.5q0 16 11.5 24t31.5 8h25v591h-49q-19 0 -19 23q0 17 11.5 25t31.5 8h115v-59l3 -1q64 70 156 70q62 0 111.5 -28t78.5 -86.5t29 -145.5q0 -123 -65.5 -188t-176.5 -65q-30 0 -67 9t-67 23v-176l45 -13q16 -5 23.5 -11.5t7.5 -17.5
q0 -14 -14 -14h-203q-9 0 -14 6.5zM448.5 95.5q40.5 48.5 40.5 143.5q0 104 -39 152.5t-108 48.5q-34 0 -65 -15t-50 -42t-19 -59v-244q23 -15 57 -24t62 -9q81 0 121.5 48.5z" />
    <glyph glyph-name="thorn" unicode="&#xfe;" horiz-adv-x="624" 
d="M57 -206.5q-5 6.5 -5 17.5q0 16 11.5 24t31.5 8h25v811h-49q-19 0 -19 23q0 17 11.5 25t31.5 8h117v-278l2 -1q30 33 70.5 51t87.5 18q95 0 155.5 -65.5t60.5 -194.5q0 -84 -33 -141t-90 -84.5t-128 -27.5q-61 0 -124 26v-170l45 -13q16 -5 23 -11.5t7 -17.5
q0 -14 -13 -14h-204q-9 0 -14 6.5zM493 239q0 105 -39 153t-107 48q-35 0 -65.5 -15t-49.5 -41.5t-19 -58.5v-245q25 -15 58.5 -24t60.5 -9q161 0 161 192z" />
    <glyph glyph-name="q" unicode="q" horiz-adv-x="593" 
d="M339 -189q0 16 11.5 24t31.5 8h34v217h-4q-24 -33 -62.5 -53t-90.5 -20q-61 0 -111.5 27.5t-81 84.5t-30.5 141q0 79 31 138t85 90.5t119 31.5q76 0 142 -42q0 16 9 24t23 8h60v-647l40 -13q17 -6 24 -12t7 -17q0 -14 -13 -14h-205q-19 0 -19 24zM374 81.5
q38 34.5 38 89.5v225q-24 20 -57 32t-67 12q-44 0 -79.5 -23t-57 -68t-21.5 -109q0 -93 40 -143t111 -50q55 0 93 34.5z" />
    <glyph glyph-name="r" unicode="r" horiz-adv-x="434" 
d="M50 6.5q-5 6.5 -5 17.5q0 16 11.5 24t31.5 8h25v378h-49q-19 0 -19 23q0 17 11.5 25t31.5 8h113v-100h4q36 46 82.5 78t86.5 32q24 0 37 -13.5t13 -33.5q0 -26 -15 -43q-111 0 -203 -83v-271l45 -13q16 -5 23 -11.5t7 -17.5q0 -14 -13 -14h-204q-9 0 -14 6.5z" />
    <glyph glyph-name="racute" unicode="&#x155;" horiz-adv-x="434" 
d="M138 596l94 157l73 -47l-112 -146zM50 6.5q-5 6.5 -5 17.5q0 16 11.5 24t31.5 8h25v378h-49q-19 0 -19 23q0 17 11.5 25t31.5 8h113v-100h4q36 46 82.5 78t86.5 32q24 0 37 -13.5t13 -33.5q0 -26 -15 -43q-111 0 -203 -83v-271l45 -13q16 -5 23 -11.5t7 -17.5
q0 -14 -13 -14h-204q-9 0 -14 6.5z" />
    <glyph glyph-name="rcaron" unicode="&#x159;" horiz-adv-x="435" 
d="M93 703l44 37l92 -102l93 102l44 -37l-112 -143h-49zM50 6.5q-5 6.5 -5 17.5q0 16 11.5 24t31.5 8h25v378h-49q-19 0 -19 23q0 17 11.5 25t31.5 8h113v-100h4q36 46 82.5 78t86.5 32q24 0 37 -13.5t13 -33.5q0 -26 -15 -43q-111 0 -203 -83v-271l45 -13q16 -5 23 -11.5
t7 -17.5q0 -14 -13 -14h-204q-9 0 -14 6.5z" />
    <glyph glyph-name="rcommaaccent" unicode="&#x157;" horiz-adv-x="435" 
d="M50 6.5q-5 6.5 -5 17.5q0 16 11.5 24t31.5 8h25v378h-49q-19 0 -19 23q0 17 11.5 25t31.5 8h113v-100h4q36 46 82.5 78t86.5 32q24 0 37 -13.5t13 -33.5q0 -26 -15 -43q-111 0 -203 -83v-271l45 -13q16 -5 23 -11.5t7 -17.5q0 -14 -13 -14h-204q-9 0 -14 6.5zM81 -230
q19 28 36 65.5t20 61.5l-28 9q-14 5 -14 18t8 20.5t21 7.5q3 0 13 -2l84 -19q-12 -47 -38.5 -98.5t-59.5 -88.5z" />
    <glyph glyph-name="uni1E5B" unicode="&#x1e5b;" horiz-adv-x="435" 
d="M51 6.5q-5 6.5 -5 17.5q0 16 11.5 24t31.5 8h25v378h-49q-19 0 -19 23q0 17 11.5 25t31.5 8h113v-100h4q36 46 82.5 78t86.5 32q24 0 37 -13.5t13 -33.5q0 -26 -15 -43q-111 0 -203 -83v-271l45 -13q16 -5 23 -11.5t7 -17.5q0 -14 -13 -14h-204q-9 0 -14 6.5zM119 -161
q-16 16 -16 40t16 39.5t39 15.5t39 -15.5t16 -39.5t-16 -40t-39 -16t-39 16z" />
    <glyph glyph-name="uni1E5D" unicode="&#x1e5d;" horiz-adv-x="436" 
d="M73 650h287v-66h-287v66zM52 6.5q-5 6.5 -5 17.5q0 16 11.5 24t31.5 8h25v378h-49q-19 0 -19 23q0 17 11.5 25t31.5 8h113v-100h4q36 46 82.5 78t86.5 32q24 0 37 -13.5t13 -33.5q0 -26 -15 -43q-111 0 -203 -83v-271l45 -13q16 -5 23 -11.5t7 -17.5q0 -14 -13 -14h-204
q-9 0 -14 6.5zM126 -161q-16 16 -16 40t16 39.5t39 15.5t39 -15.5t16 -39.5t-16 -40t-39 -16t-39 16z" />
    <glyph glyph-name="uni1E5F" unicode="&#x1e5f;" horiz-adv-x="445" 
d="M61 6.5q-5 6.5 -5 17.5q0 16 11.5 24t31.5 8h25v378h-49q-19 0 -19 23q0 17 11.5 25t31.5 8h113v-100h4q36 46 82.5 78t86.5 32q24 0 37 -13.5t13 -33.5q0 -26 -15 -43q-111 0 -203 -83v-271l45 -13q16 -5 23 -11.5t7 -17.5q0 -14 -13 -14h-204q-9 0 -14 6.5zM48 -88h362
v-65h-362v65z" />
    <glyph glyph-name="s" unicode="s" horiz-adv-x="456" 
d="M120 2q-53 15 -80 38v99q0 7 4.5 12t13.5 5q23 0 31 -34l9 -44q18 -15 51 -23t67 -8q48 0 77.5 15t29.5 49q0 24 -12.5 39.5t-36.5 28t-85 38.5q-77 35 -111.5 68t-34.5 84q0 63 52 97t127 34q51 0 99.5 -18t74.5 -42v-95q0 -7 -4.5 -11.5t-13.5 -4.5q-23 0 -31 33
l-10 47q-17 14 -45.5 22.5t-58.5 8.5q-41 0 -68.5 -15.5t-27.5 -47.5q0 -21 11.5 -35.5t34 -26.5t72.5 -34l21 -10q76 -35 108.5 -67.5t32.5 -87.5q0 -67 -55.5 -98t-137.5 -31q-51 0 -104 15z" />
    <glyph glyph-name="sacute" unicode="&#x15b;" horiz-adv-x="456" 
d="M165 596l94 157l73 -47l-112 -146zM120 2q-53 15 -80 38v99q0 7 4.5 12t13.5 5q23 0 31 -34l9 -44q18 -15 51 -23t67 -8q48 0 77.5 15t29.5 49q0 24 -12.5 39.5t-36.5 28t-85 38.5q-77 35 -111.5 68t-34.5 84q0 63 52 97t127 34q51 0 99.5 -18t74.5 -42v-95
q0 -7 -4.5 -11.5t-13.5 -4.5q-23 0 -31 33l-10 47q-17 14 -45.5 22.5t-58.5 8.5q-41 0 -68.5 -15.5t-27.5 -47.5q0 -21 11.5 -35.5t34 -26.5t72.5 -34l21 -10q76 -35 108.5 -67.5t32.5 -87.5q0 -67 -55.5 -98t-137.5 -31q-51 0 -104 15z" />
    <glyph glyph-name="scaron" unicode="&#x161;" horiz-adv-x="456" 
d="M85 703l44 37l92 -102l93 102l44 -37l-112 -143h-49zM120 2q-53 15 -80 38v99q0 7 4.5 12t13.5 5q23 0 31 -34l9 -44q18 -15 51 -23t67 -8q48 0 77.5 15t29.5 49q0 24 -12.5 39.5t-36.5 28t-85 38.5q-77 35 -111.5 68t-34.5 84q0 63 52 97t127 34q51 0 99.5 -18t74.5 -42
v-95q0 -7 -4.5 -11.5t-13.5 -4.5q-23 0 -31 33l-10 47q-17 14 -45.5 22.5t-58.5 8.5q-41 0 -68.5 -15.5t-27.5 -47.5q0 -21 11.5 -35.5t34 -26.5t72.5 -34l21 -10q76 -35 108.5 -67.5t32.5 -87.5q0 -67 -55.5 -98t-137.5 -31q-51 0 -104 15z" />
    <glyph glyph-name="scedilla" unicode="&#x15f;" horiz-adv-x="456" 
d="M151 -180q34 11 51 28.5t17 38.5q0 38 -45 52l18 50q-45 4 -87 18t-65 33v99q0 7 4.5 12t13.5 5q23 0 31 -34l9 -44q18 -15 51 -23t67 -8q48 0 77.5 15t29.5 49q0 24 -12.5 39.5t-36.5 28t-85 38.5q-77 35 -111.5 68t-34.5 84q0 63 52 97t127 34q51 0 99.5 -18t74.5 -42
v-95q0 -7 -4.5 -11.5t-13.5 -4.5q-23 0 -31 33l-10 47q-17 14 -45.5 22.5t-58.5 8.5q-41 0 -68.5 -15.5t-27.5 -47.5q0 -21 11.5 -35.5t34 -26.5t72.5 -34l21 -10q76 -35 108.5 -67.5t32.5 -87.5q0 -60 -45.5 -91t-116.5 -37l-17 -37q49 -20 49 -66q0 -34 -36 -61.5
t-86 -38.5z" />
    <glyph glyph-name="scircumflex" unicode="&#x15d;" horiz-adv-x="456" 
d="M86 597l112 143h49l112 -143l-44 -37l-93 102l-92 -102zM120 2q-53 15 -80 38v99q0 7 4.5 12t13.5 5q23 0 31 -34l9 -44q18 -15 51 -23t67 -8q48 0 77.5 15t29.5 49q0 24 -12.5 39.5t-36.5 28t-85 38.5q-77 35 -111.5 68t-34.5 84q0 63 52 97t127 34q51 0 99.5 -18
t74.5 -42v-95q0 -7 -4.5 -11.5t-13.5 -4.5q-23 0 -31 33l-10 47q-17 14 -45.5 22.5t-58.5 8.5q-41 0 -68.5 -15.5t-27.5 -47.5q0 -21 11.5 -35.5t34 -26.5t72.5 -34l21 -10q76 -35 108.5 -67.5t32.5 -87.5q0 -67 -55.5 -98t-137.5 -31q-51 0 -104 15z" />
    <glyph glyph-name="scommaaccent" unicode="&#x219;" horiz-adv-x="456" 
d="M120 2q-53 15 -80 38v99q0 7 4.5 12t13.5 5q23 0 31 -34l9 -44q18 -15 51 -23t67 -8q48 0 77.5 15t29.5 49q0 24 -12.5 39.5t-36.5 28t-85 38.5q-77 35 -111.5 68t-34.5 84q0 63 52 97t127 34q51 0 99.5 -18t74.5 -42v-95q0 -7 -4.5 -11.5t-13.5 -4.5q-23 0 -31 33
l-10 47q-17 14 -45.5 22.5t-58.5 8.5q-41 0 -68.5 -15.5t-27.5 -47.5q0 -21 11.5 -35.5t34 -26.5t72.5 -34l21 -10q76 -35 108.5 -67.5t32.5 -87.5q0 -67 -55.5 -98t-137.5 -31q-51 0 -104 15zM153 -230q19 28 36 65.5t20 61.5l-28 9q-14 5 -14 18t8 20.5t21 7.5q3 0 13 -2
l84 -19q-12 -47 -38.5 -98.5t-59.5 -88.5z" />
    <glyph glyph-name="uni1E61" unicode="&#x1e61;" horiz-adv-x="456" 
d="M180 569q-16 16 -16 39q0 24 16 40t39 16t39 -16t16 -40q0 -23 -16 -39t-39 -16t-39 16zM120 2q-53 15 -80 38v99q0 7 4.5 12t13.5 5q23 0 31 -34l9 -44q18 -15 51 -23t67 -8q48 0 77.5 15t29.5 49q0 24 -12.5 39.5t-36.5 28t-85 38.5q-77 35 -111.5 68t-34.5 84
q0 63 52 97t127 34q51 0 99.5 -18t74.5 -42v-95q0 -7 -4.5 -11.5t-13.5 -4.5q-23 0 -31 33l-10 47q-17 14 -45.5 22.5t-58.5 8.5q-41 0 -68.5 -15.5t-27.5 -47.5q0 -21 11.5 -35.5t34 -26.5t72.5 -34l21 -10q76 -35 108.5 -67.5t32.5 -87.5q0 -67 -55.5 -98t-137.5 -31
q-51 0 -104 15z" />
    <glyph glyph-name="uni1E63" unicode="&#x1e63;" horiz-adv-x="456" 
d="M120 2q-53 15 -80 38v99q0 7 4.5 12t13.5 5q23 0 31 -34l9 -44q18 -15 51 -23t67 -8q48 0 77.5 15t29.5 49q0 24 -12.5 39.5t-36.5 28t-85 38.5q-77 35 -111.5 68t-34.5 84q0 63 52 97t127 34q51 0 99.5 -18t74.5 -42v-95q0 -7 -4.5 -11.5t-13.5 -4.5q-23 0 -31 33
l-10 47q-17 14 -45.5 22.5t-58.5 8.5q-41 0 -68.5 -15.5t-27.5 -47.5q0 -21 11.5 -35.5t34 -26.5t72.5 -34l21 -10q76 -35 108.5 -67.5t32.5 -87.5q0 -67 -55.5 -98t-137.5 -31q-51 0 -104 15zM186 -161q-16 16 -16 40t16 39.5t39 15.5t39 -15.5t16 -39.5t-16 -40t-39 -16
t-39 16z" />
    <glyph glyph-name="germandbls" unicode="&#xdf;" horiz-adv-x="703" 
d="M372 0q-44 13 -75 35v108q0 7 4.5 12t13.5 5q12 0 19 -8.5t11 -25.5l9 -46q19 -14 45 -21t51 -7q47 0 73 26t26 68q0 39 -17.5 66.5t-52.5 61.5q-31 32 -46 54t-15 51q0 26 9 44.5t26 41.5t25.5 41t8.5 43q0 47 -35.5 77t-90.5 30q-69 0 -103.5 -36t-34.5 -104v-516h-148
q-9 0 -14.5 6.5t-5.5 17.5q0 16 12 24t32 8h30v445q0 108 62 164.5t172 56.5q62 0 112.5 -21.5t79.5 -57.5t29 -78q0 -33 -10.5 -56.5t-30.5 -54.5q-16 -23 -24 -39t-8 -36q0 -21 13 -38.5t40 -43.5q39 -38 60.5 -71.5t21.5 -82.5q0 -71 -51.5 -113.5t-136.5 -42.5
q-42 0 -86 13z" />
    <glyph glyph-name="uni0259" unicode="&#x259;" horiz-adv-x="526" 
d="M97 44.5q-59 57.5 -59 152.5q0 36 16 70h343q-1 85 -46 129t-111 44q-39 0 -65.5 -7.5t-60.5 -30.5q-15 -10 -24 -10q-11 0 -18 7.5t-7 20.5q0 12 8.5 21.5t25.5 20.5q61 38 145 38q72 0 128 -30t87.5 -87t31.5 -136q0 -80 -29.5 -138.5t-83 -90t-124.5 -31.5
q-98 0 -157 57.5zM352 89.5q39 42.5 44 117.5h-259q-5 -13 -5 -29q0 -62 33.5 -96.5t89.5 -34.5q58 0 97 42.5z" />
    <glyph glyph-name="t" unicode="t" horiz-adv-x="413" 
d="M160 22q-39 35 -39 96v309h-68q-9 0 -14.5 7t-5.5 18q0 16 11.5 25.5t31.5 9.5h46l16 109h76v-109h154q6 0 10 -3.5t4 -10.5q0 -13 -11 -20t-36 -11l-120 -15h-1v-315q0 -32 17 -48.5t46 -16.5q19 0 34 6t30 19q14 12 23 12q10 0 17 -7t7 -19q0 -10 -8.5 -21.5
t-25.5 -21.5q-43 -28 -97 -28q-58 0 -97 35z" />
    <glyph glyph-name="tbar" unicode="&#x167;" horiz-adv-x="415" 
d="M161 22q-39 35 -39 96v157h-72v57h72v95h-68q-9 0 -14.5 7t-5.5 18q0 16 11.5 25.5t31.5 9.5h46l16 109h76v-109h154q6 0 10 -3.5t4 -10.5q0 -13 -11 -20t-36 -11l-120 -15h-1v-95h105v-57h-105v-163q0 -32 17 -48.5t46 -16.5q19 0 34 6t30 19q14 12 23 12q10 0 17 -7
t7 -19q0 -10 -8.5 -21.5t-25.5 -21.5q-43 -28 -97 -28q-58 0 -97 35z" />
    <glyph glyph-name="tcaron" unicode="&#x165;" horiz-adv-x="433" 
d="M304 555q16 23 30.5 55t17.5 53l-25 8q-12 3 -12 14q0 23 25 23q7 0 11 -1l69 -15q-10 -40 -32 -84t-49 -75zM160 22q-39 35 -39 96v309h-68q-9 0 -14.5 7t-5.5 18q0 16 11.5 25.5t31.5 9.5h46l16 109h76v-109h154q6 0 10 -3.5t4 -10.5q0 -13 -11 -20t-36 -11l-120 -15
h-1v-315q0 -32 17 -48.5t46 -16.5q19 0 34 6t30 19q14 12 23 12q10 0 17 -7t7 -19q0 -10 -8.5 -21.5t-25.5 -21.5q-43 -28 -97 -28q-58 0 -97 35z" />
    <glyph glyph-name="uni0163" unicode="&#x163;" horiz-adv-x="415" 
d="M183 -180q34 11 51 28.5t17 38.5q0 38 -45 52l19 51q-46 9 -75 42.5t-29 85.5v309h-68q-9 0 -14.5 7t-5.5 18q0 16 11.5 25.5t31.5 9.5h46l16 109h76v-109h154q6 0 10 -3.5t4 -10.5q0 -13 -11 -20t-36 -11l-120 -15h-1v-315q0 -32 17 -48.5t46 -16.5q19 0 34 6t30 19
q14 12 23 12q10 0 17 -7t7 -19q0 -10 -8.5 -21.5t-25.5 -21.5q-33 -21 -67 -26l-17 -38q49 -20 49 -66q0 -34 -36 -61.5t-86 -38.5z" />
    <glyph glyph-name="uni021B" unicode="&#x21b;" horiz-adv-x="413" 
d="M160 22q-39 35 -39 96v309h-68q-9 0 -14.5 7t-5.5 18q0 16 11.5 25.5t31.5 9.5h46l16 109h76v-109h154q6 0 10 -3.5t4 -10.5q0 -13 -11 -20t-36 -11l-120 -15h-1v-315q0 -32 17 -48.5t46 -16.5q19 0 34 6t30 19q14 12 23 12q10 0 17 -7t7 -19q0 -10 -8.5 -21.5
t-25.5 -21.5q-43 -28 -97 -28q-58 0 -97 35zM166 -230q19 28 36 65.5t20 61.5l-28 9q-14 5 -14 18t8 20.5t21 7.5q3 0 13 -2l84 -19q-12 -47 -38.5 -98.5t-59.5 -88.5z" />
    <glyph glyph-name="uni1E97" unicode="&#x1e97;" horiz-adv-x="417" 
d="M57 664.5q-16 15.5 -16 39.5t16 39.5t39 15.5q22 0 38.5 -16t16.5 -39t-16.5 -39t-38.5 -16q-23 0 -39 15.5zM254 664.5q-16 15.5 -16 39.5t16 39.5t39 15.5q22 0 38.5 -16t16.5 -39t-16.5 -39t-38.5 -16q-23 0 -39 15.5zM162 22q-39 35 -39 96v309h-68q-9 0 -14.5 7
t-5.5 18q0 16 11.5 25.5t31.5 9.5h46l16 109h76v-109h154q6 0 10 -3.5t4 -10.5q0 -13 -11 -20t-36 -11l-120 -15h-1v-315q0 -32 17 -48.5t46 -16.5q19 0 34 6t30 19q14 12 23 12q10 0 17 -7t7 -19q0 -10 -8.5 -21.5t-25.5 -21.5q-43 -28 -97 -28q-58 0 -97 35z" />
    <glyph glyph-name="uni1E6D" unicode="&#x1e6d;" horiz-adv-x="414" 
d="M160 22q-39 35 -39 96v309h-68q-9 0 -14.5 7t-5.5 18q0 16 11.5 25.5t31.5 9.5h46l16 109h76v-109h154q6 0 10 -3.5t4 -10.5q0 -13 -11 -20t-36 -11l-120 -15h-1v-315q0 -32 17 -48.5t46 -16.5q19 0 34 6t30 19q14 12 23 12q10 0 17 -7t7 -19q0 -10 -8.5 -21.5
t-25.5 -21.5q-43 -28 -97 -28q-58 0 -97 35zM204 -161q-16 16 -16 40t16 39.5t39 15.5t39 -15.5t16 -39.5t-16 -40t-39 -16t-39 16z" />
    <glyph glyph-name="uni1E6F" unicode="&#x1e6f;" horiz-adv-x="425" 
d="M157 22q-39 35 -39 96v309h-68q-9 0 -14.5 7t-5.5 18q0 16 11.5 25.5t31.5 9.5h46l16 109h76v-109h154q6 0 10 -3.5t4 -10.5q0 -13 -11 -20t-36 -11l-120 -15h-1v-315q0 -32 17 -48.5t46 -16.5q19 0 34 6t30 19q14 12 23 12q10 0 17 -7t7 -19q0 -10 -8.5 -21.5
t-25.5 -21.5q-43 -28 -97 -28q-58 0 -97 35zM48 -88h354v-65h-354v65z" />
    <glyph glyph-name="u" unicode="u" horiz-adv-x="612" 
d="M136 28.5q-46 41.5 -46 113.5v292h-49q-19 0 -19 23q0 17 11.5 25t31.5 8h118v-340q0 -46 25.5 -73t73.5 -27q37 0 74 20.5t68 54.5v309h-48q-20 0 -20 23q0 17 11.5 25t31.5 8h118v-434l39 -13q17 -5 24 -11.5t7 -17.5q0 -14 -13 -14h-145v64h-4q-84 -77 -172 -77
q-71 0 -117 41.5z" />
    <glyph glyph-name="uacute" unicode="&#xfa;" horiz-adv-x="612" 
d="M220 596l94 157l73 -47l-112 -146zM136 28.5q-46 41.5 -46 113.5v292h-49q-19 0 -19 23q0 17 11.5 25t31.5 8h118v-340q0 -46 25.5 -73t73.5 -27q37 0 74 20.5t68 54.5v309h-48q-20 0 -20 23q0 17 11.5 25t31.5 8h118v-434l39 -13q17 -6 24 -12t7 -17q0 -14 -13 -14h-145
v64h-4q-84 -77 -172 -77q-71 0 -117 41.5z" />
    <glyph glyph-name="ubreve" unicode="&#x16d;" horiz-adv-x="612" 
d="M196.5 581q-41.5 31 -59.5 96l54 19q12 -38 38 -59t62 -21q37 0 63 21.5t37 58.5l55 -19q-18 -65 -59.5 -96t-95.5 -31q-53 0 -94.5 31zM136 28.5q-46 41.5 -46 113.5v292h-49q-19 0 -19 23q0 17 11.5 25t31.5 8h118v-340q0 -46 25.5 -73t73.5 -27q37 0 74 20.5t68 54.5
v309h-48q-20 0 -20 23q0 17 11.5 25t31.5 8h118v-434l39 -13q17 -6 24 -12t7 -17q0 -14 -13 -14h-145v64h-4q-84 -77 -172 -77q-71 0 -117 41.5z" />
    <glyph glyph-name="uni01D4" unicode="&#x1d4;" horiz-adv-x="612" 
d="M149 703l44 37l92 -102l93 102l44 -37l-112 -143h-49zM136 28.5q-46 41.5 -46 113.5v292h-49q-19 0 -19 23q0 17 11.5 25t31.5 8h118v-340q0 -46 25.5 -73t73.5 -27q37 0 74 20.5t68 54.5v309h-48q-20 0 -20 23q0 17 11.5 25t31.5 8h118v-434l39 -13q17 -5 24 -11.5
t7 -17.5q0 -14 -13 -14h-145v64h-4q-84 -77 -172 -77q-71 0 -117 41.5z" />
    <glyph glyph-name="ucircumflex" unicode="&#xfb;" horiz-adv-x="612" 
d="M149 597l112 143h49l112 -143l-44 -37l-93 102l-92 -102zM136 28.5q-46 41.5 -46 113.5v292h-49q-19 0 -19 23q0 17 11.5 25t31.5 8h118v-340q0 -46 25.5 -73t73.5 -27q37 0 74 20.5t68 54.5v309h-48q-20 0 -20 23q0 17 11.5 25t31.5 8h118v-434l39 -13q17 -6 24 -12
t7 -17q0 -14 -13 -14h-145v64h-4q-84 -77 -172 -77q-71 0 -117 41.5z" />
    <glyph glyph-name="udieresis" unicode="&#xfc;" horiz-adv-x="612" 
d="M157 580.5q-16 15.5 -16 39.5t16 39.5t39 15.5q22 0 38.5 -16t16.5 -39t-16.5 -39t-38.5 -16q-23 0 -39 15.5zM354 580.5q-16 15.5 -16 39.5t16 39.5t39 15.5q22 0 38.5 -16t16.5 -39t-16.5 -39t-38.5 -16q-23 0 -39 15.5zM136 28.5q-46 41.5 -46 113.5v292h-49
q-19 0 -19 23q0 17 11.5 25t31.5 8h118v-340q0 -46 25.5 -73t73.5 -27q37 0 74 20.5t68 54.5v309h-48q-20 0 -20 23q0 17 11.5 25t31.5 8h118v-434l39 -13q17 -6 24 -12t7 -17q0 -14 -13 -14h-145v64h-4q-84 -77 -172 -77q-71 0 -117 41.5z" />
    <glyph glyph-name="uni01D8" unicode="&#x1d8;" horiz-adv-x="612" 
d="M248 722l85 145l68 -43l-103 -134zM149 584.5q-16 15.5 -16 39.5t16 39.5t39 15.5q22 0 38.5 -16t16.5 -39t-16.5 -39t-38.5 -16q-23 0 -39 15.5zM346 584.5q-16 15.5 -16 39.5t16 39.5t39 15.5q22 0 38.5 -16t16.5 -39t-16.5 -39t-38.5 -16q-23 0 -39 15.5zM136 28.5
q-46 41.5 -46 113.5v292h-49q-19 0 -19 23q0 17 11.5 25t31.5 8h118v-340q0 -46 25.5 -73t73.5 -27q37 0 74 20.5t68 54.5v309h-48q-20 0 -20 23q0 17 11.5 25t31.5 8h118v-434l39 -13q17 -5 24 -11.5t7 -17.5q0 -14 -13 -14h-145v64h-4q-84 -77 -172 -77q-71 0 -117 41.5z
" />
    <glyph glyph-name="uni01DA" unicode="&#x1da;" horiz-adv-x="612" 
d="M152 844l44 36l92 -102l93 102l44 -36l-112 -144h-49zM151 584.5q-16 15.5 -16 39.5t16 39.5t39 15.5q22 0 38.5 -16t16.5 -39t-16.5 -39t-38.5 -16q-23 0 -39 15.5zM348 584.5q-16 15.5 -16 39.5t16 39.5t39 15.5q22 0 38.5 -16t16.5 -39t-16.5 -39t-38.5 -16
q-23 0 -39 15.5zM136 28.5q-46 41.5 -46 113.5v292h-49q-19 0 -19 23q0 17 11.5 25t31.5 8h118v-340q0 -46 25.5 -73t73.5 -27q37 0 74 20.5t68 54.5v309h-48q-20 0 -20 23q0 17 11.5 25t31.5 8h118v-434l39 -13q17 -5 24 -11.5t7 -17.5q0 -14 -13 -14h-145v64h-4
q-84 -77 -172 -77q-71 0 -117 41.5z" />
    <glyph glyph-name="uni01DC" unicode="&#x1dc;" horiz-adv-x="612" 
d="M178 824l68 43l85 -145l-50 -32zM154 584.5q-16 15.5 -16 39.5t16 39.5t38 15.5q23 0 39.5 -15.5t16.5 -39.5t-16.5 -39.5t-39.5 -15.5q-22 0 -38 15.5zM352 584.5q-16 15.5 -16 39.5t16 39.5t38 15.5q23 0 39.5 -15.5t16.5 -39.5t-16.5 -39.5t-39.5 -15.5
q-22 0 -38 15.5zM136 28.5q-46 41.5 -46 113.5v292h-49q-19 0 -19 23q0 17 11.5 25t31.5 8h118v-340q0 -46 25.5 -73t73.5 -27q37 0 74 20.5t68 54.5v309h-48q-20 0 -20 23q0 17 11.5 25t31.5 8h118v-434l39 -13q17 -5 24 -11.5t7 -17.5q0 -14 -13 -14h-145v64h-4
q-84 -77 -172 -77q-71 0 -117 41.5z" />
    <glyph glyph-name="uni01D6" unicode="&#x1d6;" horiz-adv-x="612" 
d="M144 802h287v-66h-287v66zM148 587.5q-16 15.5 -16 39.5t16 39.5t39 15.5q22 0 38.5 -16t16.5 -39t-16.5 -39t-38.5 -16q-23 0 -39 15.5zM346 587.5q-16 15.5 -16 39.5t16 39.5t39 15.5q22 0 38.5 -16t16.5 -39t-16.5 -39t-38.5 -16q-23 0 -39 15.5zM136 28.5
q-46 41.5 -46 113.5v292h-49q-19 0 -19 23q0 17 11.5 25t31.5 8h118v-340q0 -46 25.5 -73t73.5 -27q37 0 74 20.5t68 54.5v309h-48q-20 0 -20 23q0 17 11.5 25t31.5 8h118v-434l39 -13q17 -5 24 -11.5t7 -17.5q0 -14 -13 -14h-145v64h-4q-84 -77 -172 -77q-71 0 -117 41.5z
" />
    <glyph glyph-name="uni1EE5" unicode="&#x1ee5;" horiz-adv-x="612" 
d="M136 28.5q-46 41.5 -46 113.5v292h-49q-19 0 -19 23q0 17 11.5 25t31.5 8h118v-340q0 -46 25.5 -73t73.5 -27q37 0 74 20.5t68 54.5v309h-48q-20 0 -20 23q0 17 11.5 25t31.5 8h118v-434l39 -13q17 -6 24 -12t7 -17q0 -14 -13 -14h-145v64h-4q-84 -77 -172 -77
q-71 0 -117 41.5zM277 -161q-16 16 -16 40t16 39.5t39 15.5t39 -15.5t16 -39.5t-16 -40t-39 -16t-39 16z" />
    <glyph glyph-name="ugrave" unicode="&#xf9;" horiz-adv-x="612" 
d="M172 706l73 47l94 -157l-55 -36zM136 28.5q-46 41.5 -46 113.5v292h-49q-19 0 -19 23q0 17 11.5 25t31.5 8h118v-340q0 -46 25.5 -73t73.5 -27q37 0 74 20.5t68 54.5v309h-48q-20 0 -20 23q0 17 11.5 25t31.5 8h118v-434l39 -13q17 -6 24 -12t7 -17q0 -14 -13 -14h-145
v64h-4q-84 -77 -172 -77q-71 0 -117 41.5z" />
    <glyph glyph-name="uni1EE7" unicode="&#x1ee7;" horiz-adv-x="612" 
d="M259 626q56 19 56 51q0 29 -33 29q-20 0 -51 -9l-7 38q14 6 32.5 10.5t34.5 4.5q39 0 64 -20.5t25 -51.5q0 -25 -16.5 -44.5t-46.5 -30.5l-6 -46h-46zM136 28.5q-46 41.5 -46 113.5v292h-49q-19 0 -19 23q0 17 11.5 25t31.5 8h118v-340q0 -46 25.5 -73t73.5 -27
q37 0 74 20.5t68 54.5v309h-48q-20 0 -20 23q0 17 11.5 25t31.5 8h118v-434l39 -13q17 -6 24 -12t7 -17q0 -14 -13 -14h-145v64h-4q-84 -77 -172 -77q-71 0 -117 41.5z" />
    <glyph glyph-name="uhorn" unicode="&#x1b0;" horiz-adv-x="700" 
d="M136 28.5q-46 41.5 -46 113.5v292h-49q-19 0 -19 23q0 17 11.5 25t31.5 8h118v-340q0 -46 25.5 -73t73.5 -27q37 0 74 20.5t68 54.5v309h-48q-20 0 -20 23q0 17 11.5 25t31.5 8h117v-126q48 25 70 66t22 110h87q0 -85 -49.5 -144.5t-129.5 -91.5v-248l39 -13
q17 -6 24 -12t7 -17q0 -14 -13 -14h-144v64h-4q-84 -77 -172 -77q-71 0 -117 41.5z" />
    <glyph glyph-name="uni1EE9" unicode="&#x1ee9;" horiz-adv-x="700" 
d="M215 596l94 157l73 -47l-112 -146zM136 28.5q-46 41.5 -46 113.5v292h-49q-19 0 -19 23q0 17 11.5 25t31.5 8h118v-340q0 -46 25.5 -73t73.5 -27q37 0 74 20.5t68 54.5v309h-48q-20 0 -20 23q0 17 11.5 25t31.5 8h117v-126q48 25 70 66t22 110h87q0 -85 -49.5 -144.5
t-129.5 -91.5v-248l39 -13q17 -6 24 -12t7 -17q0 -14 -13 -14h-144v64h-4q-84 -77 -172 -77q-71 0 -117 41.5z" />
    <glyph glyph-name="uni1EF1" unicode="&#x1ef1;" horiz-adv-x="700" 
d="M136 28.5q-46 41.5 -46 113.5v292h-49q-19 0 -19 23q0 17 11.5 25t31.5 8h118v-340q0 -46 25.5 -73t73.5 -27q37 0 74 20.5t68 54.5v309h-48q-20 0 -20 23q0 17 11.5 25t31.5 8h117v-126q48 25 70 66t22 110h87q0 -85 -49.5 -144.5t-129.5 -91.5v-248l39 -13
q17 -6 24 -12t7 -17q0 -14 -13 -14h-144v64h-4q-84 -77 -172 -77q-71 0 -117 41.5zM260 -161q-16 16 -16 40t16 39.5t39 15.5t39 -15.5t16 -39.5t-16 -40t-39 -16t-39 16z" />
    <glyph glyph-name="uni1EEB" unicode="&#x1eeb;" horiz-adv-x="700" 
d="M171 706l73 47l94 -157l-55 -36zM136 28.5q-46 41.5 -46 113.5v292h-49q-19 0 -19 23q0 17 11.5 25t31.5 8h118v-340q0 -46 25.5 -73t73.5 -27q37 0 74 20.5t68 54.5v309h-48q-20 0 -20 23q0 17 11.5 25t31.5 8h117v-126q48 25 70 66t22 110h87q0 -85 -49.5 -144.5
t-129.5 -91.5v-248l39 -13q17 -6 24 -12t7 -17q0 -14 -13 -14h-144v64h-4q-84 -77 -172 -77q-71 0 -117 41.5z" />
    <glyph glyph-name="uni1EED" unicode="&#x1eed;" horiz-adv-x="700" 
d="M265 626q56 19 56 51q0 29 -33 29q-20 0 -51 -9l-7 38q14 6 32.5 10.5t34.5 4.5q39 0 64 -20.5t25 -51.5q0 -25 -16.5 -44.5t-46.5 -30.5l-6 -46h-46zM136 28.5q-46 41.5 -46 113.5v292h-49q-19 0 -19 23q0 17 11.5 25t31.5 8h118v-340q0 -46 25.5 -73t73.5 -27
q37 0 74 20.5t68 54.5v309h-48q-20 0 -20 23q0 17 11.5 25t31.5 8h117v-126q48 25 70 66t22 110h87q0 -85 -49.5 -144.5t-129.5 -91.5v-248l39 -13q17 -6 24 -12t7 -17q0 -14 -13 -14h-144v64h-4q-84 -77 -172 -77q-71 0 -117 41.5z" />
    <glyph glyph-name="uni1EEF" unicode="&#x1eef;" horiz-adv-x="700" 
d="M338.5 573.5q-13.5 4.5 -33.5 14.5q-20 9 -32 13.5t-26 4.5q-17 0 -32 -6.5t-33 -19.5l-33 46q23 21 49.5 34.5t49.5 13.5q14 0 26.5 -4.5t35.5 -14.5q20 -9 31.5 -13.5t24.5 -4.5q30 0 63 25l34 -46q-22 -22 -47.5 -34.5t-48.5 -12.5q-15 0 -28.5 4.5zM136 28.5
q-46 41.5 -46 113.5v292h-49q-19 0 -19 23q0 17 11.5 25t31.5 8h118v-340q0 -46 25.5 -73t73.5 -27q37 0 74 20.5t68 54.5v309h-48q-20 0 -20 23q0 17 11.5 25t31.5 8h117v-126q48 25 70 66t22 110h87q0 -85 -49.5 -144.5t-129.5 -91.5v-248l39 -13q17 -6 24 -12t7 -17
q0 -14 -13 -14h-144v64h-4q-84 -77 -172 -77q-71 0 -117 41.5z" />
    <glyph glyph-name="uhungarumlaut" unicode="&#x171;" horiz-adv-x="612" 
d="M139 595l98 145l62 -37l-118 -137zM322 595l98 145l62 -37l-118 -137zM136 28.5q-46 41.5 -46 113.5v292h-49q-19 0 -19 23q0 17 11.5 25t31.5 8h118v-340q0 -46 25.5 -73t73.5 -27q37 0 74 20.5t68 54.5v309h-48q-20 0 -20 23q0 17 11.5 25t31.5 8h118v-434l39 -13
q17 -6 24 -12t7 -17q0 -14 -13 -14h-145v64h-4q-84 -77 -172 -77q-71 0 -117 41.5z" />
    <glyph glyph-name="umacron" unicode="&#x16b;" horiz-adv-x="612" 
d="M158 650h287v-66h-287v66zM136 28.5q-46 41.5 -46 113.5v292h-49q-19 0 -19 23q0 17 11.5 25t31.5 8h118v-340q0 -46 25.5 -73t73.5 -27q37 0 74 20.5t68 54.5v309h-48q-20 0 -20 23q0 17 11.5 25t31.5 8h118v-434l39 -13q17 -6 24 -12t7 -17q0 -14 -13 -14h-145v64h-4
q-84 -77 -172 -77q-71 0 -117 41.5z" />
    <glyph glyph-name="uogonek" unicode="&#x173;" horiz-adv-x="623" 
d="M428.5 -182q-32.5 27 -32.5 74q0 32 20 61t53 47h-40v64h-4q-84 -77 -172 -77q-71 0 -117 41.5t-46 113.5v292h-49q-19 0 -19 23q0 17 11.5 25t31.5 8h118v-340q0 -46 25.5 -73t73.5 -27q37 0 74 20.5t68 54.5v309h-48q-20 0 -20 23q0 17 11.5 25t31.5 8h118v-434l39 -13
q17 -6 24 -12t7 -17q0 -14 -13 -14h-37q-31 -14 -52.5 -43.5t-21.5 -61.5q0 -26 16.5 -41t45.5 -15q20 0 41 7l9 -41q-30 -14 -63 -14q-51 0 -83.5 27z" />
    <glyph glyph-name="uring" unicode="&#x16f;" horiz-adv-x="612" 
d="M224 592q-27 27 -27 66q0 40 27.5 67t71.5 27q45 0 72.5 -27t27.5 -67q0 -39 -27.5 -66t-72.5 -27t-72 27zM327.5 625q12.5 12 12.5 33q0 22 -12.5 34t-31.5 12q-20 0 -32.5 -12t-12.5 -34q0 -21 13 -33t32 -12t31.5 12zM136 28.5q-46 41.5 -46 113.5v292h-49
q-19 0 -19 23q0 17 11.5 25t31.5 8h118v-340q0 -46 25.5 -73t73.5 -27q37 0 74 20.5t68 54.5v309h-48q-20 0 -20 23q0 17 11.5 25t31.5 8h118v-434l39 -13q17 -6 24 -12t7 -17q0 -14 -13 -14h-145v64h-4q-84 -77 -172 -77q-71 0 -117 41.5z" />
    <glyph glyph-name="utilde" unicode="&#x169;" horiz-adv-x="612" 
d="M329.5 573.5q-13.5 4.5 -33.5 14.5q-20 9 -32 13.5t-26 4.5q-17 0 -32 -6.5t-33 -19.5l-33 46q23 21 49.5 34.5t49.5 13.5q14 0 26.5 -4.5t35.5 -14.5q20 -9 31.5 -13.5t24.5 -4.5q30 0 63 25l34 -46q-22 -22 -47.5 -34.5t-48.5 -12.5q-15 0 -28.5 4.5zM136 28.5
q-46 41.5 -46 113.5v292h-49q-19 0 -19 23q0 17 11.5 25t31.5 8h118v-340q0 -46 25.5 -73t73.5 -27q37 0 74 20.5t68 54.5v309h-48q-20 0 -20 23q0 17 11.5 25t31.5 8h118v-434l39 -13q17 -6 24 -12t7 -17q0 -14 -13 -14h-145v64h-4q-84 -77 -172 -77q-71 0 -117 41.5z" />
    <glyph glyph-name="v" unicode="v" horiz-adv-x="568" 
d="M61 434h-40q-19 0 -19 23q0 17 11.5 25t31.5 8h180q13 0 13 -14q0 -11 -7 -18t-23 -11l-50 -14l119 -346q5 -14 7.5 -27t3.5 -17h4q1 4 3.5 18.5t6.5 25.5l124 347h-58q-20 0 -20 23q0 17 11.5 25t31.5 8h163q13 0 13 -14q0 -18 -31 -29l-40 -14l-156 -433h-123z" />
    <glyph glyph-name="w" unicode="w" horiz-adv-x="866" 
d="M61 434h-40q-19 0 -19 23q0 17 11.5 25t31.5 8h180q13 0 13 -14q0 -21 -30 -29l-54 -14l101 -338q4 -14 6 -28.5t2 -18.5h4q0 4 2 18.5t6 28.5l109 395h110l118 -395q4 -14 6 -28.5t2 -18.5h4q0 4 2 18.5t6 28.5l94 339h-60q-20 0 -20 23q0 17 11.5 25t31.5 8h163
q13 0 13 -14q0 -19 -31 -29l-40 -14l-124 -433h-123l-107 363q-5 18 -7.5 39.5t-2.5 28.5h-4q0 -7 -2.5 -28.5t-7.5 -39.5l-100 -363h-123z" />
    <glyph glyph-name="wacute" unicode="&#x1e83;" horiz-adv-x="866" 
d="M380 596l94 157l73 -47l-112 -146zM61 434h-40q-19 0 -19 23q0 17 11.5 25t31.5 8h180q13 0 13 -14q0 -21 -30 -29l-54 -14l101 -338q4 -14 6 -28.5t2 -18.5h4q0 4 2 18.5t6 28.5l109 395h110l118 -395q4 -14 6 -28.5t2 -18.5h4q0 4 2 18.5t6 28.5l94 339h-60
q-20 0 -20 23q0 17 11.5 25t31.5 8h163q13 0 13 -14q0 -19 -31 -29l-40 -14l-124 -433h-123l-107 363q-5 18 -7.5 39.5t-2.5 28.5h-4q0 -7 -2.5 -28.5t-7.5 -39.5l-100 -363h-123z" />
    <glyph glyph-name="wcircumflex" unicode="&#x175;" horiz-adv-x="866" 
d="M290 597l112 143h49l112 -143l-44 -37l-93 102l-92 -102zM61 434h-40q-19 0 -19 23q0 17 11.5 25t31.5 8h180q13 0 13 -14q0 -21 -30 -29l-54 -14l101 -338q4 -14 6 -28.5t2 -18.5h4q0 4 2 18.5t6 28.5l109 395h110l118 -395q4 -14 6 -28.5t2 -18.5h4q0 4 2 18.5t6 28.5
l94 339h-60q-20 0 -20 23q0 17 11.5 25t31.5 8h163q13 0 13 -14q0 -19 -31 -29l-40 -14l-124 -433h-123l-107 363q-5 18 -7.5 39.5t-2.5 28.5h-4q0 -7 -2.5 -28.5t-7.5 -39.5l-100 -363h-123z" />
    <glyph glyph-name="wdieresis" unicode="&#x1e85;" horiz-adv-x="866" 
d="M305 584.5q-16 15.5 -16 39.5t16 39.5t39 15.5q22 0 38.5 -16t16.5 -39t-16.5 -39t-38.5 -16q-23 0 -39 15.5zM502 584.5q-16 15.5 -16 39.5t16 39.5t39 15.5q22 0 38.5 -16t16.5 -39t-16.5 -39t-38.5 -16q-23 0 -39 15.5zM61 434h-40q-19 0 -19 23q0 17 11.5 25t31.5 8
h180q13 0 13 -14q0 -21 -30 -29l-54 -14l101 -338q4 -14 6 -28.5t2 -18.5h4q0 4 2 18.5t6 28.5l109 395h110l118 -395q4 -14 6 -28.5t2 -18.5h4q0 4 2 18.5t6 28.5l94 339h-60q-20 0 -20 23q0 17 11.5 25t31.5 8h163q13 0 13 -14q0 -19 -31 -29l-40 -14l-124 -433h-123
l-107 363q-5 18 -7.5 39.5t-2.5 28.5h-4q0 -7 -2.5 -28.5t-7.5 -39.5l-100 -363h-123z" />
    <glyph glyph-name="wgrave" unicode="&#x1e81;" horiz-adv-x="866" 
d="M325 706l73 47l94 -157l-55 -36zM61 434h-40q-19 0 -19 23q0 17 11.5 25t31.5 8h180q13 0 13 -14q0 -21 -30 -29l-54 -14l101 -338q4 -14 6 -28.5t2 -18.5h4q0 4 2 18.5t6 28.5l109 395h110l118 -395q4 -14 6 -28.5t2 -18.5h4q0 4 2 18.5t6 28.5l94 339h-60q-20 0 -20 23
q0 17 11.5 25t31.5 8h163q13 0 13 -14q0 -19 -31 -29l-40 -14l-124 -433h-123l-107 363q-5 18 -7.5 39.5t-2.5 28.5h-4q0 -7 -2.5 -28.5t-7.5 -39.5l-100 -363h-123z" />
    <glyph glyph-name="x" unicode="x" horiz-adv-x="551" 
d="M18 6.5q-5 6.5 -5 17.5q0 14 11.5 23t27.5 9h20l134 196l-122 182h-44q-19 0 -19 23q0 15 11.5 24t27.5 9h99l131 -197l98 141h-49q-19 0 -19 23q0 15 11.5 24t27.5 9h159q11 0 11 -14q0 -19 -29 -29l-39 -14l-128 -180l136 -196l40 -14q29 -10 29 -29q0 -14 -11 -14
h-132l-145 212l-106 -155l49 -14q29 -8 29 -29q0 -14 -12 -14h-178q-9 0 -14 6.5z" />
    <glyph glyph-name="y" unicode="y" horiz-adv-x="564" 
d="M60.5 -213.5q-15.5 12.5 -15.5 34.5q0 15 9 32q69 0 108 23.5t65 85.5l15 38l-179 434h-40q-19 0 -19 23q0 17 11.5 25t31.5 8h180q13 0 13 -14q0 -21 -30 -29l-50 -14l123 -307q3 -8 4 -20t1 -16h5q0 4 1 16.5t4 19.5l124 308h-59q-19 0 -19 23q0 17 11.5 25t31.5 8h162
q14 0 14 -14q0 -17 -31 -29l-41 -14l-188 -465q-39 -95 -85.5 -144.5t-118.5 -49.5q-23 0 -38.5 12.5z" />
    <glyph glyph-name="yacute" unicode="&#xfd;" horiz-adv-x="564" 
d="M207 596l94 157l73 -47l-112 -146zM60.5 -213.5q-15.5 12.5 -15.5 34.5q0 15 9 32q69 0 108 23.5t65 85.5l15 38l-179 434h-40q-19 0 -19 23q0 17 11.5 25t31.5 8h180q13 0 13 -14q0 -21 -30 -29l-50 -14l123 -307q3 -8 4 -20t1 -16h5q0 4 1 16.5t4 19.5l124 308h-59
q-19 0 -19 23q0 17 11.5 25t31.5 8h162q14 0 14 -14q0 -17 -31 -29l-41 -14l-188 -465q-39 -95 -85.5 -144.5t-118.5 -49.5q-23 0 -38.5 12.5z" />
    <glyph glyph-name="ycircumflex" unicode="&#x177;" horiz-adv-x="564" 
d="M146 597l112 143h49l112 -143l-44 -37l-93 102l-92 -102zM60.5 -213.5q-15.5 12.5 -15.5 34.5q0 15 9 32q69 0 108 23.5t65 85.5l15 38l-179 434h-40q-19 0 -19 23q0 17 11.5 25t31.5 8h180q13 0 13 -14q0 -21 -30 -29l-50 -14l123 -307q3 -8 4 -20t1 -16h5q0 4 1 16.5
t4 19.5l124 308h-59q-19 0 -19 23q0 17 11.5 25t31.5 8h162q14 0 14 -14q0 -17 -31 -29l-41 -14l-188 -465q-39 -95 -85.5 -144.5t-118.5 -49.5q-23 0 -38.5 12.5z" />
    <glyph glyph-name="ydieresis" unicode="&#xff;" horiz-adv-x="564" 
d="M153 580.5q-16 15.5 -16 39.5t16 39.5t39 15.5q22 0 38.5 -16t16.5 -39t-16.5 -39t-38.5 -16q-23 0 -39 15.5zM350 580.5q-16 15.5 -16 39.5t16 39.5t39 15.5q22 0 38.5 -16t16.5 -39t-16.5 -39t-38.5 -16q-23 0 -39 15.5zM60.5 -213.5q-15.5 12.5 -15.5 34.5q0 15 9 32
q69 0 108 23.5t65 85.5l15 38l-179 434h-40q-19 0 -19 23q0 17 11.5 25t31.5 8h180q13 0 13 -14q0 -21 -30 -29l-50 -14l123 -307q3 -8 4 -20t1 -16h5q0 4 1 16.5t4 19.5l124 308h-59q-19 0 -19 23q0 17 11.5 25t31.5 8h162q14 0 14 -14q0 -17 -31 -29l-41 -14l-188 -465
q-39 -95 -85.5 -144.5t-118.5 -49.5q-23 0 -38.5 12.5z" />
    <glyph glyph-name="uni1E8F" unicode="&#x1e8f;" horiz-adv-x="564" 
d="M251 569q-16 16 -16 39q0 24 16 40t39 16t39 -16t16 -40q0 -23 -16 -39t-39 -16t-39 16zM60.5 -213.5q-15.5 12.5 -15.5 34.5q0 15 9 32q69 0 108 23.5t65 85.5l15 38l-179 434h-40q-19 0 -19 23q0 17 11.5 25t31.5 8h180q13 0 13 -14q0 -21 -30 -29l-50 -14l123 -307
q3 -8 4 -20t1 -16h5q0 4 1 16.5t4 19.5l124 308h-59q-19 0 -19 23q0 17 11.5 25t31.5 8h162q14 0 14 -14q0 -17 -31 -29l-41 -14l-188 -465q-39 -95 -85.5 -144.5t-118.5 -49.5q-23 0 -38.5 12.5z" />
    <glyph glyph-name="uni1EF5" unicode="&#x1ef5;" horiz-adv-x="564" 
d="M60.5 -213.5q-15.5 12.5 -15.5 34.5q0 15 9 32q69 0 108 23.5t65 85.5l15 38l-179 434h-40q-19 0 -19 23q0 17 11.5 25t31.5 8h180q13 0 13 -14q0 -21 -30 -29l-50 -14l123 -307q3 -8 4 -20t1 -16h5q0 4 1 16.5t4 19.5l124 308h-59q-19 0 -19 23q0 17 11.5 25t31.5 8h162
q14 0 14 -14q0 -17 -31 -29l-41 -14l-188 -465q-39 -95 -85.5 -144.5t-118.5 -49.5q-23 0 -38.5 12.5zM302 -293.5q-16 15.5 -16 39.5t16 40t39 16t39 -16t16 -40t-16 -39.5t-39 -15.5t-39 15.5z" />
    <glyph glyph-name="ygrave" unicode="&#x1ef3;" horiz-adv-x="564" 
d="M162 706l73 47l94 -157l-55 -36zM60.5 -213.5q-15.5 12.5 -15.5 34.5q0 15 9 32q69 0 108 23.5t65 85.5l15 38l-179 434h-40q-19 0 -19 23q0 17 11.5 25t31.5 8h180q13 0 13 -14q0 -21 -30 -29l-50 -14l123 -307q3 -8 4 -20t1 -16h5q0 4 1 16.5t4 19.5l124 308h-59
q-19 0 -19 23q0 17 11.5 25t31.5 8h162q14 0 14 -14q0 -17 -31 -29l-41 -14l-188 -465q-39 -95 -85.5 -144.5t-118.5 -49.5q-23 0 -38.5 12.5z" />
    <glyph glyph-name="uni1EF7" unicode="&#x1ef7;" horiz-adv-x="564" 
d="M248 626q56 19 56 51q0 29 -33 29q-20 0 -51 -9l-7 38q14 6 32.5 10.5t34.5 4.5q39 0 64 -20.5t25 -51.5q0 -25 -16.5 -44.5t-46.5 -30.5l-6 -46h-46zM60.5 -213.5q-15.5 12.5 -15.5 34.5q0 15 9 32q69 0 108 23.5t65 85.5l15 38l-179 434h-40q-19 0 -19 23q0 17 11.5 25
t31.5 8h180q13 0 13 -14q0 -21 -30 -29l-50 -14l123 -307q3 -8 4 -20t1 -16h5q0 4 1 16.5t4 19.5l124 308h-59q-19 0 -19 23q0 17 11.5 25t31.5 8h162q14 0 14 -14q0 -17 -31 -29l-41 -14l-188 -465q-39 -95 -85.5 -144.5t-118.5 -49.5q-23 0 -38.5 12.5z" />
    <glyph glyph-name="uni1EF9" unicode="&#x1ef9;" horiz-adv-x="564" 
d="M317.5 573.5q-13.5 4.5 -33.5 14.5q-20 9 -32 13.5t-26 4.5q-17 0 -32 -6.5t-33 -19.5l-33 46q23 21 49.5 34.5t49.5 13.5q14 0 26.5 -4.5t35.5 -14.5q20 -9 31.5 -13.5t24.5 -4.5q30 0 63 25l34 -46q-22 -22 -47.5 -34.5t-48.5 -12.5q-15 0 -28.5 4.5zM60.5 -213.5
q-15.5 12.5 -15.5 34.5q0 15 9 32q69 0 108 23.5t65 85.5l15 38l-179 434h-40q-19 0 -19 23q0 17 11.5 25t31.5 8h180q13 0 13 -14q0 -21 -30 -29l-50 -14l123 -307q3 -8 4 -20t1 -16h5q0 4 1 16.5t4 19.5l124 308h-59q-19 0 -19 23q0 17 11.5 25t31.5 8h162q14 0 14 -14
q0 -17 -31 -29l-41 -14l-188 -465q-39 -95 -85.5 -144.5t-118.5 -49.5q-23 0 -38.5 12.5z" />
    <glyph glyph-name="z" unicode="z" horiz-adv-x="463" 
d="M39 67l267 363h-195l-9 -45q-4 -17 -11 -25.5t-21 -8.5q-9 0 -14 5t-5 13v121h366v-67l-268 -363h216l9 46q4 17 11.5 25.5t20.5 8.5q9 0 14 -5t5 -13v-122h-386v67z" />
    <glyph glyph-name="zacute" unicode="&#x17a;" horiz-adv-x="463" 
d="M167 596l94 157l73 -47l-112 -146zM39 67l267 363h-195l-9 -45q-4 -17 -11 -25.5t-21 -8.5q-9 0 -14 5t-5 13v121h366v-67l-268 -363h216l9 46q4 17 11.5 25.5t20.5 8.5q9 0 14 -5t5 -13v-122h-386v67z" />
    <glyph glyph-name="zcaron" unicode="&#x17e;" horiz-adv-x="463" 
d="M101 703l44 37l92 -102l93 102l44 -37l-112 -143h-49zM39 67l267 363h-195l-9 -45q-4 -17 -11 -25.5t-21 -8.5q-9 0 -14 5t-5 13v121h366v-67l-268 -363h216l9 46q4 17 11.5 25.5t20.5 8.5q9 0 14 -5t5 -13v-122h-386v67z" />
    <glyph glyph-name="zdotaccent" unicode="&#x17c;" horiz-adv-x="463" 
d="M198 569q-16 16 -16 39q0 24 16 40t39 16t39 -16t16 -40q0 -23 -16 -39t-39 -16t-39 16zM39 67l267 363h-195l-9 -45q-4 -17 -11 -25.5t-21 -8.5q-9 0 -14 5t-5 13v121h366v-67l-268 -363h216l9 46q4 17 11.5 25.5t20.5 8.5q9 0 14 -5t5 -13v-122h-386v67z" />
    <glyph glyph-name="uni1E93" unicode="&#x1e93;" horiz-adv-x="463" 
d="M39 67l267 363h-195l-9 -45q-4 -17 -11 -25.5t-21 -8.5q-9 0 -14 5t-5 13v121h366v-67l-268 -363h216l9 46q4 17 11.5 25.5t20.5 8.5q9 0 14 -5t5 -13v-122h-386v67zM192 -161q-16 16 -16 40t16 39.5t39 15.5t39 -15.5t16 -39.5t-16 -40t-39 -16t-39 16z" />
    <glyph glyph-name="ordfeminine" unicode="&#xaa;" horiz-adv-x="400" 
d="M82 339.5q-29 22.5 -29 65.5q0 47 33 69.5t89 31.5l82 12v24q0 29 -16.5 44t-48.5 15q-18 0 -40.5 -6.5t-37.5 -14.5l-5 -28q-5 -23 -22 -23q-14 0 -14 13v65q26 16 61 26t67 10q55 0 87 -26.5t32 -76.5v-175l24 -8q22 -7 22 -21q0 -11 -10 -11h-97v41h-4
q-17 -22 -43.5 -35.5t-58.5 -13.5q-42 0 -71 22.5zM230.5 384q26.5 23 26.5 55v38l-74 -12q-67 -12 -67 -58q0 -21 14.5 -33.5t40.5 -12.5q33 0 59.5 23z" />
    <glyph glyph-name="ordmasculine" unicode="&#xba;" horiz-adv-x="397" 
d="M89 360q-42 43 -42 120t42 120t110 43q67 0 109 -43t42 -120t-42 -120t-109 -43q-68 0 -110 43zM263.5 391.5q22.5 31.5 22.5 88.5q0 58 -22.5 89.5t-64.5 31.5q-43 0 -65.5 -31.5t-22.5 -89.5q0 -57 22.5 -88.5t65.5 -31.5q42 0 64.5 31.5z" />
    <glyph glyph-name="uni207F" unicode="&#x207f;" horiz-adv-x="483" 
d="M35 411q0 13 9 19.5t24 6.5h18v280h-37q-14 0 -14 18q0 26 33 26h88v-51h3q63 59 131 59q55 0 90.5 -31.5t35.5 -85.5v-216l34 -9q13 -4 18 -9t5 -14q0 -11 -9 -11h-157q-15 0 -15 18q0 13 9 19.5t24 6.5h19v207q0 35 -19.5 55.5t-56.5 20.5q-28 0 -56.5 -15.5
t-51.5 -40.5v-228l33 -9q13 -4 18.5 -9t5.5 -14q0 -11 -11 -11h-157q-14 0 -14 18z" />
    <glyph glyph-name="uni03A9" unicode="&#x3a9;" horiz-adv-x="828" 
d="M10 160q0 17 17 17q11 0 19 -11.5t15 -37.5l16 -62h163q-40 23 -75 67t-56 103.5t-21 125.5q0 107 42.5 185.5t116.5 119.5t167 41t167 -41t116.5 -119.5t42.5 -185.5q0 -66 -21 -125.5t-55.5 -104t-75.5 -66.5h163l16 62q7 26 15 37.5t19 11.5q17 0 17 -17v-160h-330v80
q66 36 108 105.5t42 165.5q0 135 -59 213t-165 78t-165 -78t-59 -213q0 -96 42 -165.5t108 -105.5v-80h-330v160z" />
    <glyph glyph-name="pi" unicode="&#x3c0;" horiz-adv-x="618" 
d="M416.5 12.5q-30.5 25.5 -30.5 79.5v330h-152v-422h-96v422h-98v65h539v-65h-96v-345q0 -23 10 -32.5t30 -9.5q23 0 42 9v-43q-29 -14 -67 -14q-51 0 -81.5 25.5z" />
    <glyph glyph-name="uni0E01" unicode="&#xe01;" horiz-adv-x="624" 
d="M94.5 7.5q-12.5 10.5 -12.5 28.5v189q0 23 6 35.5t21 25.5l61 55v5l-89 68q-15 13 -15 26q0 14 16 28q48 39 110.5 65.5t128.5 26.5q99 0 161 -52t62 -148v-335q0 -12 -10.5 -20t-29.5 -8q-24 0 -37 10.5t-13 28.5v328q0 69 -37 104t-102 35q-45 0 -86.5 -17t-71.5 -39
q-7 -6 -7 -10q0 -5 7 -10l93 -73v-18l-64 -59q-10 -9 -12.5 -16t-2.5 -24v-212q0 -12 -10.5 -20t-29.5 -8q-24 0 -36.5 10.5z" />
    <glyph glyph-name="uni0E16" unicode="&#xe16;" horiz-adv-x="627" 
d="M106.5 20.5q-27.5 29.5 -27.5 75.5v125q0 24 6 37.5t21 26.5l61 56v4l-89 69q-15 13 -15 27q0 13 16 27q48 39 112 65.5t130 26.5q100 0 163 -52t63 -147v-336q0 -13 -10 -20.5t-30 -7.5q-24 0 -37 10.5t-13 28.5v330q0 67 -38.5 102t-103.5 35q-45 0 -88.5 -17
t-72.5 -39q-7 -6 -7 -10q0 -5 7 -10l93 -74v-18l-65 -59q-10 -9 -12.5 -16t-2.5 -23v-44q0 -15 -4 -23q11 6 28 6q42 0 68 -25.5t26 -65.5q0 -43 -28.5 -68.5t-72.5 -25.5q-50 0 -77.5 29.5zM218 46.5q14 13.5 14 37.5q0 23 -14 36.5t-34 13.5q-21 0 -34.5 -13.5
t-13.5 -36.5q0 -24 13.5 -37.5t34.5 -13.5q20 0 34 13.5z" />
    <glyph glyph-name="uni0E20" unicode="&#xe20;" horiz-adv-x="651" 
d="M58 16q-28 25 -28 66q0 38 24.5 63.5t64.5 25.5q18 0 27 -5q-3 4 -3 14v52q0 20 5.5 31t21.5 24l54 44v5l-109 80q-16 12 -16 27t16 27q48 39 108.5 64.5t124.5 25.5q98 0 160.5 -52t62.5 -147v-336q0 -12 -11 -20t-30 -8q-24 0 -36.5 10.5t-12.5 28.5v328q0 69 -38 104
t-103 35q-76 0 -150 -52q-7 -6 -7 -10t7 -10l114 -85v-21l-55 -48q-11 -9 -14 -16.5t-3 -24.5v-145q0 -44 -27.5 -72t-76.5 -28q-42 0 -70 25zM161 46.5q13 12.5 13 35.5t-13 35.5t-33 12.5q-19 0 -32 -12.5t-13 -35.5q0 -22 13 -35t32 -13q20 0 33 12.5z" />
    </font>
</defs>
</svg>
